mtllib Gemini2_world_Orbbec_Gemini2_gemini2_foot_left_foot_left.mtl
v -0.0029999982640147587 -0.0012955939480157055 0.007604317495130357
v -0.0029999982640147587 -0.001268799276602284 0.007704317397527753
v -0.0029999982640147587 -0.0011955940456183092 0.007777522628511728
v -0.0029999982640147587 -0.0010955941432209129 0.007804317895971584
v -0.0037499987240881 -0.0010955941432209129 0.007603355476185185
v -0.004299037360421477 -0.0010955941432209129 0.007054317435898242
v -0.0044999991841614415 -0.0010955941432209129 0.006304317571871335
v -0.00429999818727378 -0.0012955939480157055 0.006304317571871335
v -0.004399999281764045 -0.001268799276602284 0.006304317571871335
v -0.004473203320655151 -0.0011955940456183092 0.006304317571871335
v -0.0036499988216907035 -0.0012955939480157055 0.0074301509388502475
v -0.004125832227040106 -0.0012955939480157055 0.006954317533500846
v -0.004212434197684357 -0.001268799276602284 0.007004317484699544
v -0.0042758320806362 -0.0011955940456183092 0.007040920100191531
v -0.0036999987728894017 -0.001268799276602284 0.007516753505540934
v -0.0037366007923349547 -0.0011955940456183092 0.007580150792446343
v 0.004300001763552387 -0.0012955939480157055 0.006304317571871335
v 0.0041258346112258435 -0.0012955939480157055 0.006954317533500846
v 0.0036500012058764413 -0.0012955939480157055 0.0074301509388502475
v 0.0030000006482004964 -0.0012955939480157055 0.007604317495130357
v -0.0029999982640147587 -0.0012955939480157055 0.007604317495130357
v -0.0036499988216907035 -0.0012955939480157055 0.0074301509388502475
v -0.004125832227040106 -0.0012955939480157055 0.006954317533500846
v -0.00429999818727378 -0.0012955939480157055 0.006304317571871335
v -0.00429999818727378 -0.0012955939480157055 -0.01019568182090636
v -0.004125832227040106 -0.0012955939480157055 -0.010845681186489436
v -0.0036499988216907035 -0.0012955939480157055 -0.011321514591838838
v -0.0029999982640147587 -0.0012955939480157055 -0.011495681744165381
v 0.0030000006482004964 -0.0012955939480157055 -0.011495681744165381
v 0.0036500012058764413 -0.0012955939480157055 -0.011321514591838838
v 0.0041258346112258435 -0.0012955939480157055 -0.010845681186489436
v 0.004300001763552387 -0.0012955939480157055 -0.01019568182090636
v 0.004300001763552387 -0.0012955939480157055 -0.01019568182090636
v 0.004400001665949783 -0.001268799276602284 -0.01019568182090636
v 0.004473205704840889 -0.0011955940456183092 -0.01019568182090636
v 0.004500001568347179 -0.0010955941432209129 -0.01019568182090636
v 0.004500001568347179 -0.0010955941432209129 0.006304317571871335
v 0.004300001763552387 -0.0012955939480157055 0.006304317571871335
v 0.004400001665949783 -0.001268799276602284 0.006304317571871335
v 0.004473205704840889 -0.0011955940456183092 0.006304317571871335
v 0.004300001763552387 -0.0012955939480157055 0.006304317571871335
v 0.004400001665949783 -0.001268799276602284 0.006304317571871335
v 0.004473205704840889 -0.0011955940456183092 0.006304317571871335
v 0.004500001568347179 -0.0010955941432209129 0.006304317571871335
v 0.004299038552514346 -0.0010955941432209129 0.007054317435898242
v 0.003750001108273838 -0.0010955941432209129 0.007603355476185185
v 0.0030000006482004964 -0.0010955941432209129 0.007804317895971584
v 0.0030000006482004964 -0.0012955939480157055 0.007604317495130357
v 0.0030000006482004964 -0.001268799276602284 0.007704317397527753
v 0.0030000006482004964 -0.0011955940456183092 0.007777522628511728
v 0.0041258346112258435 -0.0012955939480157055 0.006954317533500846
v 0.0036500012058764413 -0.0012955939480157055 0.0074301509388502475
v 0.0036999999649822706 -0.001268799276602284 0.007516753505540934
v 0.0037366043686135613 -0.0011955940456183092 0.007580150792446343
v 0.0042124377739629635 -0.001268799276602284 0.007004317484699544
v 0.004275833272729069 -0.0011955940456183092 0.007040920100191531
v 0.0030000006482004964 -0.0012955939480157055 0.007604317495130357
v 0.0030000006482004964 -0.001268799276602284 0.007704317397527753
v 0.0030000006482004964 -0.0011955940456183092 0.007777522628511728
v 0.0030000006482004964 -0.0010955941432209129 0.007804317895971584
v -0.0029999982640147587 -0.0010955941432209129 0.007804317895971584
v -0.0029999982640147587 -0.0012955939480157055 0.007604317495130357
v -0.0029999982640147587 -0.001268799276602284 0.007704317397527753
v -0.0029999982640147587 -0.0011955940456183092 0.007777522628511728
v 0.0030000006482004964 -0.0010955941432209129 0.007804317895971584
v 0.0030000006482004964 0.0009486007478400895 0.007804317895971584
v -0.0029999982640147587 0.0009486007478400895 0.007804317895971584
v -0.0029999982640147587 -0.0010955941432209129 0.007804317895971584
v -0.0029999982640147587 -0.0010955941432209129 0.007804317895971584
v -0.0029999982640147587 0.0009486007478400895 0.007804317895971584
v -0.0044999991841614415 0.0008359145931322588 0.006304317571871335
v -0.00406109562379653 0.0009155630860724352 0.007364540531533795
v -0.0044999991841614415 -0.0010955941432209129 0.006304317571871335
v -0.0037499987240881 -0.0010955941432209129 0.007603355476185185
v -0.004299037360421477 -0.0010955941432209129 0.007054317435898242
v -0.0044999991841614415 -0.0010955941432209129 0.006304317571871335
v -0.0044999991841614415 0.0008359145931322588 0.006304317571871335
v -0.0044999991841614415 -0.000403642645396829 -0.01019568182090636
v -0.0044999991841614415 -0.0010955941432209129 -0.01019568182090636
v -0.00429999818727378 -0.0012955939480157055 0.006304317571871335
v -0.004399999281764045 -0.001268799276602284 0.006304317571871335
v -0.004473203320655151 -0.0011955940456183092 0.006304317571871335
v -0.0044999991841614415 -0.0010955941432209129 0.006304317571871335
v -0.0044999991841614415 -0.0010955941432209129 -0.01019568182090636
v -0.00429999818727378 -0.0012955939480157055 -0.01019568182090636
v -0.004399999281764045 -0.001268799276602284 -0.01019568182090636
v -0.004473203320655151 -0.0011955940456183092 -0.01019568182090636
v -0.00429999818727378 -0.0012955939480157055 -0.01019568182090636
v -0.004399999281764045 -0.001268799276602284 -0.01019568182090636
v -0.004473203320655151 -0.0011955940456183092 -0.01019568182090636
v -0.0044999991841614415 -0.0010955941432209129 -0.01019568182090636
v -0.004299037360421477 -0.0010955941432209129 -0.010945681088886832
v -0.0037499987240881 -0.0010955941432209129 -0.011494719725220209
v -0.0029999982640147587 -0.0010955941432209129 -0.011695681548960175
v -0.0029999982640147587 -0.0012955939480157055 -0.011495681744165381
v -0.0029999982640147587 -0.001268799276602284 -0.011595681646562777
v -0.0029999982640147587 -0.0011955940456183092 -0.011668886877546754
v -0.004125832227040106 -0.0012955939480157055 -0.010845681186489436
v -0.0036499988216907035 -0.0012955939480157055 -0.011321514591838838
v -0.0036999987728894017 -0.001268799276602284 -0.011408116562483089
v -0.0037366007923349547 -0.0011955940456183092 -0.011471514445434932
v -0.004212434197684357 -0.001268799276602284 -0.010895681137688134
v -0.0042758320806362 -0.0011955940456183092 -0.010932284349226556
v -0.0029999982640147587 -0.0012955939480157055 -0.011495681744165381
v -0.0029999982640147587 -0.001268799276602284 -0.011595681646562777
v -0.0029999982640147587 -0.0011955940456183092 -0.011668886877546754
v -0.0029999982640147587 -0.0010955941432209129 -0.011695681548960175
v 0.0030000006482004964 -0.0010955941432209129 -0.011695681548960175
v 0.0030000006482004964 -0.0012955939480157055 -0.011495681744165381
v 0.0030000006482004964 -0.001268799276602284 -0.011595681646562777
v 0.0030000006482004964 -0.0011955940456183092 -0.011668886877546754
v 0.0030000006482004964 -0.0012955939480157055 -0.011495681744165381
v 0.0030000006482004964 -0.001268799276602284 -0.011595681646562777
v 0.0030000006482004964 -0.0011955940456183092 -0.011668886877546754
v 0.0030000006482004964 -0.0010955941432209129 -0.011695681548960175
v 0.003750001108273838 -0.0010955941432209129 -0.011494719725220209
v 0.004299038552514346 -0.0010955941432209129 -0.010945681088886832
v 0.004500001568347179 -0.0010955941432209129 -0.01019568182090636
v 0.004300001763552387 -0.0012955939480157055 -0.01019568182090636
v 0.004400001665949783 -0.001268799276602284 -0.01019568182090636
v 0.004473205704840889 -0.0011955940456183092 -0.01019568182090636
v 0.0036500012058764413 -0.0012955939480157055 -0.011321514591838838
v 0.0041258346112258435 -0.0012955939480157055 -0.010845681186489436
v 0.0042124377739629635 -0.001268799276602284 -0.010895681137688134
v 0.004275833272729069 -0.0011955940456183092 -0.010932284349226556
v 0.0036999999649822706 -0.001268799276602284 -0.011408116562483089
v 0.0037366043686135613 -0.0011955940456183092 -0.011471514445434932
v 0.0030000006482004964 -0.0010955941432209129 -0.011695681548960175
v 0.0030000006482004964 -0.0005163299921975285 -0.011695681548960175
v 0.004500001568347179 -0.000403642645396829 -0.01019568182090636
v 0.0040610992000751365 -0.0004832923304298743 -0.011255904184522386
v 0.004500001568347179 -0.0010955941432209129 -0.01019568182090636
v 0.003750001108273838 -0.0010955941432209129 -0.011494719725220209
v 0.004299038552514346 -0.0010955941432209129 -0.010945681088886832
v 0.004500001568347179 -0.0010955941432209129 -0.01019568182090636
v 0.004500001568347179 -0.000403642645396829 -0.01019568182090636
v 0.004500001568347179 0.0008359145931322588 0.006304317571871335
v 0.004500001568347179 -0.0010955941432209129 0.006304317571871335
v 0.004500001568347179 -0.0010955941432209129 0.006304317571871335
v 0.004500001568347179 0.0008359145931322588 0.006304317571871335
v 0.0030000006482004964 0.0009486007478400895 0.007804317895971584
v 0.0040610992000751365 0.0009155630860724352 0.007364540531533795
v 0.0030000006482004964 -0.0010955941432209129 0.007804317895971584
v 0.004299038552514346 -0.0010955941432209129 0.007054317435898242
v 0.003750001108273838 -0.0010955941432209129 0.007603355476185185
v -0.0044999991841614415 -0.000403642645396829 -0.01019568182090636
v -0.0044999991841614415 0.0008359145931322588 0.006304317571871335
v -0.00406109562379653 0.0009155630860724352 0.007364540531533795
v -0.0029999982640147587 0.0009486007478400895 0.007804317895971584
v 0.0030000006482004964 0.0009486007478400895 0.007804317895971584
v 0.0040610992000751365 0.0009155630860724352 0.007364540531533795
v 0.004500001568347179 0.0008359145931322588 0.006304317571871335
v 0.004500001568347179 -0.000403642645396829 -0.01019568182090636
v 0.0040610992000751365 -0.0004832923304298743 -0.011255904184522386
v 0.0030000006482004964 -0.0005163299921975285 -0.011695681548960175
v -0.0029999982640147587 -0.0005163299921975285 -0.011695681548960175
v -0.00406109562379653 -0.0004832923304298743 -0.011255904184522386
v 0.001000001408159701 0.0006489467475798706 0.0038155578714111926
v 0.0007071077665588011 0.0005959749088590983 0.0031104379197112193
v 1.1920928688624601e-09 0.0005740332475148159 0.002818368014282703
v -0.0007071053823730634 0.0005959749088590983 0.0031104379197112193
v -0.0009999990239739633 0.0006489467475798706 0.0038155578714111926
v -0.0007071053823730634 0.0007019185863006429 0.0045206772270647315
v 1.1920928688624601e-09 0.0007238602476449253 0.004812747728539682
v 0.0007071077665588011 0.0007019185863006429 0.0045206772270647315
v -0.0009999990239739633 0.0006489467475798706 0.0038155578714111926
v -0.0009999990239739633 0.0017770099242699902 0.0037308125854101943
v -0.0007071053823730634 0.0007019185863006429 0.0045206772270647315
v 1.1920928688624601e-09 0.0007238602476449253 0.004812747728539682
v 0.0007071077665588011 0.0007019185863006429 0.0045206772270647315
v 0.001000001408159701 0.0006489467475798706 0.0038155578714111926
v 0.001000001408159701 0.0017770099242699902 0.0037308125854101943
v -1.9073485901799362e-08 0.0018990283780017107 0.004724463714857466
v -0.0009999990239739633 0.003573487917181373 0.003595856943819144
v -0.0009999990239739633 0.008327309899166748 0.0032387232056545496
v 0.001000001408159701 0.003573487917181373 0.0035958575398655785
v -6.675720065629777e-08 0.0037259422899944554 0.004587217466818896
v 0.001000001408159701 0.008327309899166748 0.0032387232056545496
v -0.0007071053823730634 0.00838028173788752 0.0039438431573545225
v 1.1920928688624601e-09 0.008402223399231802 0.004235913062783039
v 0.0007071077665588011 0.00838028173788752 0.0039438431573545225
v 0.001299039096406718 0.0016937303164512587 0.0029849552441025846
v 0.001299039096406718 0.0018672912895539853 0.004476143021669768
v 1.1920928688624601e-09 0.0016169499989535654 0.002238610187800001
v -0.0012990367122209803 0.0016937303164512587 0.0029849552441025846
v -0.0012990367122209803 0.0018672912895539853 0.004476143021669768
v 1.1920928688624601e-09 0.0019650792636332075 0.005220910194048803
v -0.0009999990239739633 0.0017770099242699902 0.0037308125854101943
v -1.9073485901799362e-08 0.0018990283780017107 0.004724463714857466
v 0.001000001408159701 0.0017770099242699902 0.0037308125854101943
v 1.1920928688624601e-09 0.0016674387082284972 0.0027362262591073007
v 0.001299039096406718 0.0016937303164512587 0.0029849552441025846
v 0.001299039096406718 0.0018672912895539853 0.004476143021669768
v 0.001299039096406718 0.0024918883481944713 0.0029249941648916717
v 0.001299039096406718 0.0024953603186750333 0.00295725219792309
v 0.001299039096406718 0.0029795043994597097 0.003665847100335797
v 0.001299039096406718 0.0027139919389637117 0.0044125353303730045
v -0.0012990367122209803 0.0018672912895539853 0.004476143021669768
v 1.1920928688624601e-09 0.0019650792636332075 0.005220910194048803
v 0.001299039096406718 0.0018672912895539853 0.004476143021669768
v 0.001299039096406718 0.0027139919389637117 0.0044125353303730045
v -0.0012990367122209803 0.0027137636531793245 0.004412552019673169
v -5.602836483653562e-08 0.002878488237891608 0.005152290944331342
v -0.0012990367122209803 0.0016937303164512587 0.0029849552441025846
v -0.0012990367122209803 0.0024918883481944713 0.0029249941648916717
v -0.0012990367122209803 0.0018672912895539853 0.004476143021669768
v -0.0012990367122209803 0.0027137636531793245 0.004412552019673169
v -0.0012990367122209803 0.0029794501592341764 0.0036658506766144034
v -0.0012990367122209803 0.0024953603186750333 0.00295725219792309
v 0.001299039096406718 0.0024918883481944713 0.0029249941648916717
v 0.001299039096406718 0.0024953603186750333 0.00295725219792309
v -0.0012990367122209803 0.0024918883481944713 0.0029249941648916717
v 1.1920928688624601e-09 0.0024149262365342765 0.0021786622216106457
v -0.0012990367122209803 0.0024953603186750333 0.00295725219792309
v -1.1920928688624601e-09 0.00241728061995028 0.0022024358316711525
v -0.0012990367122209803 0.0024953603186750333 0.00295725219792309
v -0.0012990367122209803 0.0029794459869091354 0.003665851272660838
v -0.0009999716058379795 0.0035734789764848567 0.003595858135912013
v 0.0 0.0034498064938975896 0.0026023262157516282
v 0.000999975182116586 0.003573479572531291 0.0035958587319584474
v 0.0012990164466422096 0.002979496650856062 0.0036658482924286657
v 0.001299039096406718 0.0024953603186750333 0.00295725219792309
v -1.1920928688624601e-09 0.0024172788318109766 0.002202436427717587
v -0.0006244027475028614 0.0029511677559204146 0.0025697576425278714
v 0.0006244015554099925 0.0029511677559204146 0.0025697552583421337
v -0.0009729361316650478 0.0032547985779911586 0.0030614959509336365
v -0.001102344965137281 0.0029518418844377563 0.0030188315432034835
v 0.0009729373237579166 0.0032547985779911586 0.0030614941627943332
v 0.00110233542839433 0.002951867514434437 0.003018833331342787
v -0.0005296504379141976 0.0033363466709178673 0.0026932644242063665
v 0.0005296492458213288 0.0033363466709178673 0.002693262040020629
v -0.0008915495673220698 0.003444677514329309 0.0030878072286887343
v 0.0008915507594149387 0.003444677514329309 0.003087805440549431
v -0.0005060219651604748 0.0034326445289110112 0.0027241771804352734
v 0.000506020773067606 0.0034326445289110112 0.0027241747962495357
v -0.0008712124629792762 0.0034921484405067153 0.003094401290392847
v 0.0008712124629792762 0.0034921484405067153 0.0030943989062071093
v -0.0005001187212738679 0.0034567188443976886 0.0027319079026898465
v 0.000500117529180999 0.0034567188443976886 0.0027319055185041088
v -0.0008661281868935778 0.0035040163210626756 0.0030960505508769182
v 0.0008661293789864467 0.0035040163210626756 0.0030960481666911805
v -0.000498644102395085 0.003462737721292575 0.0027338402852302725
v 0.0004986417182093473 0.003462737721292575 0.002733837901044535
v -0.0008648574158953705 0.00350698284416684 0.0030964630150095446
v 0.0008648586079882393 0.0035069834402132742 0.003096460630823807
v -0.0004982745536057377 0.0034642421424930796 0.0027343236788885963
v 0.0004982733615128688 0.0034642421424930796 0.0027343212947028585
v -0.0009999906793238813 0.0035734885132278076 0.003595856943819144
v -0.0012990617461712264 0.0029794585038842585 0.003665850080567969
v -0.0012990367122209803 0.0027137636531793245 0.004412552019673169
v -5.602836483653562e-08 0.002878488237891608 0.005152290944331342
v 0.001299039096406718 0.0027139919389637117 0.0044125353303730045
v 0.001299039096406718 0.0029795085717847507 0.003665847100335797
v 0.000999993063509619 0.0035734885132278076 0.0035958575398655785
v -6.675720065629777e-08 0.0037259422899944554 0.004587217466818896
v 0.0006316768981886601 0.00324605696098379 0.004716620339826785
v -0.0006313419200925098 0.0032459824551794862 0.004716921343276173
v 0.0009714650890648715 0.003413475675579703 0.0041772030850379975
v 0.0011011790983115335 0.003122403551882425 0.004289119743798977
v -0.0009731352111741478 0.0034129845333177315 0.004174209739844284
v -0.0011030792943445002 0.003121856381255617 0.004285719298890547
v 0.0005295252681629671 0.003589576402539541 0.004522021907820808
v -0.0005306804061528948 0.003589446464416835 0.0045213960590646555
v 0.0008908104697433751 0.0035881506594683814 0.004115850833449121
v -0.0008927464285624077 0.003587619582095303 0.0041124247585440105
v 0.0005045568830246429 0.00367542616258354 0.0044729982806817085
v -0.000506011236324655 0.0036752860916714485 0.0044721924259023575
v 0.0008707272811816492 0.0036318074845118624 0.004100356606386081
v -0.0008727192683655184 0.0036312674664422677 0.004096842316608675
v 0.0004983508475493449 0.003696886218408802 0.004460719128085991
v -0.0004998743422357511 0.0036967449554038416 0.0044598715500562295
v 0.000865710954389476 0.003642720498679864 0.004096473363865762
v -0.0008677172466877715 0.003642178692470966 0.00409293821246315
v 0.0004968023189126926 0.0037022512323651173 0.004457648296855801
v -0.0004983425028992628 0.0037021093733137227 0.00445678998999022
v 0.0008644580647843015 0.00364544919925669 0.004095501808177639
v -0.0008664667412683348 0.003644906200954923 0.0040919612923571175
v 0.0004964148887303123 0.003703592932889022 0.004456880589048254
v -0.000497959841088358 0.003703450477791193 0.0044560193019505005
v 0.001000001408159701 0.0006489467475798706 0.0038155578714111926
v 0.001000001408159701 0.0017770099242699902 0.0037308125854101943
v 0.0007071077665588011 0.0005959749088590983 0.0031104379197112193
v 1.1920928688624601e-09 0.0005740332475148159 0.002818368014282703
v -0.0007071053823730634 0.0005959749088590983 0.0031104379197112193
v -0.0009999990239739633 0.0006489467475798706 0.0038155578714111926
v -0.0009999990239739633 0.0017770099242699902 0.0037308125854101943
v 1.1920928688624601e-09 0.0016674387082284972 0.0027362262591073007
v 0.001000001408159701 0.003573487917181373 0.0035958575398655785
v 0.001000001408159701 0.008327309899166748 0.0032387232056545496
v -0.0009999990239739633 0.003573487917181373 0.003595856943819144
v 0.0 0.0034498064938975896 0.0026023262157516282
v -0.0009999990239739633 0.008327309899166748 0.0032387232056545496
v 0.0007071077665588011 0.008274338060445975 0.0025336032539545763
v 1.1920928688624601e-09 0.008252396399101693 0.002241533199514452
v -0.0007071053823730634 0.008274338060445975 0.0025336032539545763
v 0.000700001700967512 0.008626466796700651 0.00321624927484432
v 0.001000001408159701 0.008327309899166748 0.0032387232056545496
v 0.0007071077665588011 0.008274338060445975 0.0025336032539545763
v 1.1920928688624601e-09 0.008252396399101693 0.002241533199514452
v -0.0007071053823730634 0.008274338060445975 0.0025336032539545763
v -0.0009999990239739633 0.008327309899166748 0.0032387232056545496
v -0.0006999993167817743 0.008626466796700651 0.00321624927484432
v 0.000350000850483756 0.008581052826768467 0.002611734808719125
v -0.0003499984662980183 0.008581052826768467 0.002611734808719125
v 0.000700001700967512 0.008626466796700651 0.00321624927484432
v 0.000350000850483756 0.008581052826768467 0.002611734808719125
v -0.0003499984662980183 0.008581052826768467 0.002611734808719125
v -0.0006999993167817743 0.008626466796700651 0.00321624927484432
v -0.0003499984662980183 0.008671880766632835 0.0038207631449230805
v 0.000350000850483756 0.008671880766632835 0.0038207631449230805
v -0.0006999993167817743 0.008626466796700651 0.00321624927484432
v -0.0009999990239739633 0.008327309899166748 0.0032387232056545496
v -0.0007071053823730634 0.00838028173788752 0.0039438431573545225
v 1.1920928688624601e-09 0.008402223399231802 0.004235913062783039
v 0.0007071077665588011 0.00838028173788752 0.0039438431573545225
v 0.001000001408159701 0.008327309899166748 0.0032387232056545496
v 0.000700001700967512 0.008626466796700651 0.00321624927484432
v -0.0003499984662980183 0.008671880766632835 0.0038207631449230805
v 0.000350000850483756 0.008671880766632835 0.0038207631449230805
v -0.0012990367122209803 0.0016937303164512587 0.0029849552441025846
v -0.0012990367122209803 0.0024918883481944713 0.0029249941648916717
v 1.1920928688624601e-09 0.0024149262365342765 0.0021786622216106457
v 0.001299039096406718 0.0024918883481944713 0.0029249941648916717
v 0.001299039096406718 0.0016937303164512587 0.0029849552441025846
v 1.1920928688624601e-09 0.0016169499989535654 0.002238610187800001
v -0.0044999991841614415 -0.0010955941432209129 -0.01019568182090636
v -0.0044999991841614415 -0.000403642645396829 -0.01019568182090636
v -0.0029999982640147587 -0.0005163299921975285 -0.011695681548960175
v -0.00406109562379653 -0.0004832923304298743 -0.011255904184522386
v -0.0029999982640147587 -0.0010955941432209129 -0.011695681548960175
v -0.004299037360421477 -0.0010955941432209129 -0.010945681088886832
v -0.0037499987240881 -0.0010955941432209129 -0.011494719725220209
v -0.0029999982640147587 -0.0010955941432209129 -0.011695681548960175
v -0.0029999982640147587 -0.0005163299921975285 -0.011695681548960175
v 0.0030000006482004964 -0.0005163299921975285 -0.011695681548960175
v 0.0030000006482004964 -0.0010955941432209129 -0.011695681548960175
usemtl foot
f 13 9 8
f 13 8 12
f 14 6 7
f 14 10 9
f 14 7 10
f 14 9 13
f 15 1 2
f 15 11 1
f 15 12 11
f 15 13 12
f 16 2 3
f 16 3 4
f 16 4 5
f 16 5 6
f 16 6 14
f 16 13 15
f 16 14 13
f 16 15 2
f 25 26 27
f 25 27 28
f 32 28 29
f 32 29 30
f 32 30 31
f 32 25 28
f 21 22 23
f 21 23 24
f 20 21 24
f 17 24 25
f 17 25 32
f 17 20 24
f 18 19 20
f 18 20 17
f 38 33 34
f 39 34 35
f 39 38 34
f 40 35 36
f 40 39 35
f 37 40 36
f 53 49 48
f 53 48 52
f 54 46 47
f 54 50 49
f 54 47 50
f 54 49 53
f 55 41 42
f 55 51 41
f 55 52 51
f 55 53 52
f 56 42 43
f 56 43 44
f 56 44 45
f 56 45 46
f 56 46 54
f 56 53 55
f 56 54 53
f 56 55 42
f 63 57 58
f 63 62 57
f 64 58 59
f 64 63 58
f 61 59 60
f 61 64 59
f 68 65 66
f 68 66 67
f 71 73 75
f 72 75 74
f 72 71 75
f 70 74 69
f 70 72 74
f 78 76 77
f 79 76 78
f 86 80 81
f 86 85 80
f 87 81 82
f 87 86 81
f 84 82 83
f 84 87 82
f 100 96 95
f 100 95 99
f 101 93 94
f 101 97 96
f 101 94 97
f 101 96 100
f 102 88 89
f 102 98 88
f 102 99 98
f 102 100 99
f 103 89 90
f 103 90 91
f 103 91 92
f 103 92 93
f 103 93 101
f 103 100 102
f 103 101 100
f 103 102 89
f 110 104 105
f 110 109 104
f 111 105 106
f 111 110 105
f 108 106 107
f 108 111 106
f 113 122 112
f 124 120 119
f 124 119 123
f 125 117 118
f 125 121 120
f 125 118 121
f 125 120 124
f 126 123 122
f 126 124 123
f 126 122 113
f 127 113 114
f 127 114 115
f 127 115 116
f 127 116 117
f 127 117 125
f 127 125 124
f 127 126 113
f 127 124 126
f 130 132 134
f 131 134 133
f 131 130 134
f 129 133 128
f 129 131 133
f 138 135 136
f 138 136 137
f 141 143 145
f 142 145 144
f 142 141 145
f 140 144 139
f 140 142 144
f 146 156 157
f 153 154 155
f 153 155 156
f 153 156 146
f 161 146 147
f 162 161 147
f 160 153 146
f 160 146 161
f 163 162 147
f 159 153 160
f 149 147 148
f 149 163 147
f 164 163 149
f 152 159 158
f 152 158 165
f 152 153 159
f 150 165 164
f 150 152 165
f 150 164 149
f 151 152 150
f 167 166 168
f 173 168 169
f 173 169 170
f 173 167 168
f 172 170 171
f 172 173 170
f 179 175 174
f 179 174 177
f 180 179 177
f 181 177 176
f 181 180 177
f 178 181 176
f 191 185 184
f 191 188 185
f 186 185 188
f 182 191 184
f 190 191 182
f 189 186 188
f 187 186 189
f 183 189 190
f 183 187 189
f 183 190 182
f 196 197 193
f 195 193 192
f 195 196 193
f 194 195 192
f 199 202 198
f 203 202 199
f 201 199 200
f 201 203 199
f 209 205 204
f 206 209 204
f 208 209 206
f 207 208 206
f 215 213 212
f 215 212 214
f 210 213 215
f 211 210 215
f 224 223 216
f 224 219 223
f 225 222 223
f 225 223 219
f 226 217 218
f 227 216 217
f 227 224 216
f 227 217 226
f 227 226 224
f 228 220 221
f 229 221 222
f 229 228 221
f 229 222 225
f 229 225 228
f 230 224 226
f 230 219 224
f 231 225 219
f 231 228 225
f 232 226 218
f 232 230 226
f 233 220 228
f 233 228 231
f 234 219 230
f 234 230 232
f 235 231 219
f 235 233 231
f 236 232 218
f 236 234 232
f 237 220 233
f 237 233 235
f 238 219 234
f 238 234 236
f 239 235 219
f 239 237 235
f 240 236 218
f 240 238 236
f 241 220 237
f 241 237 239
f 242 219 238
f 242 238 240
f 243 239 219
f 243 241 239
f 244 240 218
f 244 242 240
f 245 220 241
f 245 241 243
f 246 218 219
f 246 244 218
f 246 219 242
f 246 242 244
f 247 219 220
f 247 243 219
f 247 220 245
f 247 245 243
f 256 251 252
f 256 255 251
f 257 250 251
f 257 251 255
f 258 253 254
f 259 252 253
f 259 253 258
f 259 258 256
f 259 256 252
f 260 248 249
f 261 249 250
f 261 250 257
f 261 260 249
f 261 257 260
f 262 255 256
f 262 256 258
f 263 257 255
f 263 260 257
f 264 258 254
f 264 262 258
f 265 248 260
f 265 260 263
f 266 255 262
f 266 262 264
f 267 263 255
f 267 265 263
f 268 264 254
f 268 266 264
f 269 248 265
f 269 265 267
f 270 255 266
f 271 267 255
f 272 268 254
f 272 266 268
f 273 248 269
f 273 269 267
f 274 255 270
f 275 271 255
f 276 272 254
f 276 270 266
f 276 266 272
f 276 274 270
f 277 248 273
f 277 267 271
f 277 273 267
f 277 271 275
f 278 254 255
f 278 276 254
f 278 255 274
f 278 274 276
f 279 255 248
f 279 275 255
f 279 248 277
f 279 277 275
f 281 280 282
f 287 282 283
f 287 283 284
f 287 281 282
f 286 284 285
f 286 287 284
f 293 289 288
f 293 288 291
f 294 293 291
f 295 291 290
f 295 294 291
f 292 295 290
f 300 301 302
f 300 302 304
f 299 300 304
f 303 299 304
f 298 299 303
f 296 298 303
f 297 298 296
f 309 305 306
f 309 306 307
f 309 307 308
f 309 310 305
f 315 316 317
f 315 317 319
f 314 315 319
f 318 314 319
f 313 314 318
f 311 313 318
f 312 313 311
f 322 323 324
f 322 324 325
f 320 322 325
f 321 322 320
f 328 330 332
f 329 332 331
f 329 328 332
f 327 331 326
f 327 329 331
f 336 333 334
f 336 334 335
