mtllib Gemini2_world_Orbbec_Gemini2_gemini2_foot_right_foot_right.mtl
v 0.004300000571459518 -0.0012955939480157055 0.006304317571871335
v 0.004400001665949783 -0.001268799276602284 0.006304317571871335
v 0.004473205704840889 -0.0011955940456183092 0.006304317571871335
v 0.004500001568347179 -0.0010955941432209129 0.006304317571871335
v 0.004299039744607215 -0.0010955941432209129 0.007054317435898242
v 0.003750001108273838 -0.0010955941432209129 0.007603355476185185
v 0.0030000006482004964 -0.0010955941432209129 0.007804317895971584
v 0.0030000006482004964 -0.0012955939480157055 0.007604317495130357
v 0.0030000006482004964 -0.001268799276602284 0.007704317397527753
v 0.0030000006482004964 -0.0011955940456183092 0.007777522628511728
v 0.0041258346112258435 -0.0012955939480157055 0.006954317533500846
v 0.0036500012058764413 -0.0012955939480157055 0.0074301509388502475
v 0.0037000011570751394 -0.001268799276602284 0.007516753505540934
v 0.0037366031765206924 -0.0011955940456183092 0.007580150792446343
v 0.004212436581870095 -0.001268799276602284 0.007004317484699544
v 0.004275834464821938 -0.0011955940456183092 0.007040920100191531
v -0.004299999379366649 -0.0012955939480157055 -0.01019568182090636
v -0.004125832227040106 -0.0012955939480157055 -0.010845681186489436
v -0.0036499988216907035 -0.0012955939480157055 -0.011321514591838838
v -0.0029999982640147587 -0.0012955939480157055 -0.011495681744165381
v 0.0030000006482004964 -0.0012955939480157055 -0.011495681744165381
v 0.0036500012058764413 -0.0012955939480157055 -0.011321514591838838
v 0.0041258346112258435 -0.0012955939480157055 -0.010845681186489436
v 0.004300000571459518 -0.0012955939480157055 -0.01019568182090636
v 0.004300000571459518 -0.0012955939480157055 0.006304317571871335
v 0.0041258346112258435 -0.0012955939480157055 0.006954317533500846
v 0.0036500012058764413 -0.0012955939480157055 0.0074301509388502475
v 0.0030000006482004964 -0.0012955939480157055 0.007604317495130357
v -0.0029999982640147587 -0.0012955939480157055 0.007604317495130357
v -0.0036499988216907035 -0.0012955939480157055 0.0074301509388502475
v -0.004125832227040106 -0.0012955939480157055 0.006954317533500846
v -0.004299999379366649 -0.0012955939480157055 0.006304317571871335
v -0.004299999379366649 -0.0012955939480157055 0.006304317571871335
v -0.004399999281764045 -0.001268799276602284 0.006304317571871335
v -0.004473203320655151 -0.0011955940456183092 0.006304317571871335
v -0.0044999991841614415 -0.0010955941432209129 0.006304317571871335
v -0.0044999991841614415 -0.0010955941432209129 -0.01019568182090636
v -0.004299999379366649 -0.0012955939480157055 -0.01019568182090636
v -0.004399999281764045 -0.001268799276602284 -0.01019568182090636
v -0.004473203320655151 -0.0011955940456183092 -0.01019568182090636
v -0.004299999379366649 -0.0012955939480157055 -0.01019568182090636
v -0.004399999281764045 -0.001268799276602284 -0.01019568182090636
v -0.004473203320655151 -0.0011955940456183092 -0.01019568182090636
v -0.0044999991841614415 -0.0010955941432209129 -0.01019568182090636
v -0.004299036168328608 -0.0010955941432209129 -0.010945681088886832
v -0.0037499987240881 -0.0010955941432209129 -0.011494719725220209
v -0.0029999982640147587 -0.0010955941432209129 -0.011695681548960175
v -0.0029999982640147587 -0.0012955939480157055 -0.011495681744165381
v -0.0029999982640147587 -0.001268799276602284 -0.011595681646562777
v -0.0029999982640147587 -0.0011955940456183092 -0.011668886877546754
v -0.004125832227040106 -0.0012955939480157055 -0.010845681186489436
v -0.0036499988216907035 -0.0012955939480157055 -0.011321514591838838
v -0.003699997580796533 -0.001268799276602284 -0.011408116562483089
v -0.0037366019844278235 -0.0011955940456183092 -0.011471514445434932
v -0.004212435389777226 -0.001268799276602284 -0.010895681137688134
v -0.004275830888543331 -0.0011955940456183092 -0.010932284349226556
v -0.0029999982640147587 -0.0012955939480157055 -0.011495681744165381
v -0.0029999982640147587 -0.001268799276602284 -0.011595681646562777
v -0.0029999982640147587 -0.0011955940456183092 -0.011668886877546754
v -0.0029999982640147587 -0.0010955941432209129 -0.011695681548960175
v 0.0030000006482004964 -0.0010955941432209129 -0.011695681548960175
v 0.0030000006482004964 -0.0012955939480157055 -0.011495681744165381
v 0.0030000006482004964 -0.001268799276602284 -0.011595681646562777
v 0.0030000006482004964 -0.0011955940456183092 -0.011668886877546754
v 0.0030000006482004964 -0.0012955939480157055 -0.011495681744165381
v 0.0030000006482004964 -0.001268799276602284 -0.011595681646562777
v 0.0030000006482004964 -0.0011955940456183092 -0.011668886877546754
v 0.0030000006482004964 -0.0010955941432209129 -0.011695681548960175
v 0.003750001108273838 -0.0010955941432209129 -0.011494719725220209
v 0.004299039744607215 -0.0010955941432209129 -0.010945681088886832
v 0.004500001568347179 -0.0010955941432209129 -0.01019568182090636
v 0.004300000571459518 -0.0012955939480157055 -0.01019568182090636
v 0.004400001665949783 -0.001268799276602284 -0.01019568182090636
v 0.004473205704840889 -0.0011955940456183092 -0.01019568182090636
v 0.0036500012058764413 -0.0012955939480157055 -0.011321514591838838
v 0.0041258346112258435 -0.0012955939480157055 -0.010845681186489436
v 0.004212436581870095 -0.001268799276602284 -0.010895681137688134
v 0.004275834464821938 -0.0011955940456183092 -0.010932284349226556
v 0.0037000011570751394 -0.001268799276602284 -0.011408116562483089
v 0.0037366031765206924 -0.0011955940456183092 -0.011471514445434932
v 0.004300000571459518 -0.0012955939480157055 -0.01019568182090636
v 0.004400001665949783 -0.001268799276602284 -0.01019568182090636
v 0.004473205704840889 -0.0011955940456183092 -0.01019568182090636
v 0.004500001568347179 -0.0010955941432209129 -0.01019568182090636
v 0.004500001568347179 -0.0010955941432209129 0.006304317571871335
v 0.004300000571459518 -0.0012955939480157055 0.006304317571871335
v 0.004400001665949783 -0.001268799276602284 0.006304317571871335
v 0.004473205704840889 -0.0011955940456183092 0.006304317571871335
v 0.004500001568347179 -0.0010955941432209129 -0.01019568182090636
v 0.004500001568347179 -0.000403642645396829 -0.01019568182090636
v 0.004500001568347179 0.0008359145931322588 0.006304317571871335
v 0.004500001568347179 -0.0010955941432209129 0.006304317571871335
v 0.004500001568347179 -0.0010955941432209129 0.006304317571871335
v 0.004500001568347179 0.0008359145931322588 0.006304317571871335
v 0.0030000006482004964 0.0009486007478400895 0.007804317895971584
v 0.004061098007982268 0.0009155630860724352 0.007364540531533795
v 0.0030000006482004964 -0.0010955941432209129 0.007804317895971584
v 0.004299039744607215 -0.0010955941432209129 0.007054317435898242
v 0.003750001108273838 -0.0010955941432209129 0.007603355476185185
v 0.0030000006482004964 -0.0010955941432209129 0.007804317895971584
v 0.0030000006482004964 0.0009486007478400895 0.007804317895971584
v -0.0029999982640147587 0.0009486007478400895 0.007804317895971584
v -0.0029999982640147587 -0.0010955941432209129 0.007804317895971584
v 0.0030000006482004964 -0.0012955939480157055 0.007604317495130357
v 0.0030000006482004964 -0.001268799276602284 0.007704317397527753
v 0.0030000006482004964 -0.0011955940456183092 0.007777522628511728
v 0.0030000006482004964 -0.0010955941432209129 0.007804317895971584
v -0.0029999982640147587 -0.0010955941432209129 0.007804317895971584
v -0.0029999982640147587 -0.0012955939480157055 0.007604317495130357
v -0.0029999982640147587 -0.001268799276602284 0.007704317397527753
v -0.0029999982640147587 -0.0011955940456183092 0.007777522628511728
v -0.0029999982640147587 -0.0012955939480157055 0.007604317495130357
v -0.0029999982640147587 -0.001268799276602284 0.007704317397527753
v -0.0029999982640147587 -0.0011955940456183092 0.007777522628511728
v -0.0029999982640147587 -0.0010955941432209129 0.007804317895971584
v -0.0037499987240881 -0.0010955941432209129 0.007603355476185185
v -0.004299036168328608 -0.0010955941432209129 0.007054317435898242
v -0.0044999991841614415 -0.0010955941432209129 0.006304317571871335
v -0.004299999379366649 -0.0012955939480157055 0.006304317571871335
v -0.004399999281764045 -0.001268799276602284 0.006304317571871335
v -0.004473203320655151 -0.0011955940456183092 0.006304317571871335
v -0.0036499988216907035 -0.0012955939480157055 0.0074301509388502475
v -0.004125832227040106 -0.0012955939480157055 0.006954317533500846
v -0.004212435389777226 -0.001268799276602284 0.007004317484699544
v -0.004275830888543331 -0.0011955940456183092 0.007040920100191531
v -0.003699997580796533 -0.001268799276602284 0.007516753505540934
v -0.0037366019844278235 -0.0011955940456183092 0.007580150792446343
v -0.0029999982640147587 -0.0010955941432209129 0.007804317895971584
v -0.0029999982640147587 0.0009486007478400895 0.007804317895971584
v -0.0044999991841614415 0.0008359145931322588 0.006304317571871335
v -0.004061096815889399 0.0009155630860724352 0.007364540531533795
v -0.0044999991841614415 -0.0010955941432209129 0.006304317571871335
v -0.0037499987240881 -0.0010955941432209129 0.007603355476185185
v -0.004299036168328608 -0.0010955941432209129 0.007054317435898242
v -0.0044999991841614415 -0.0010955941432209129 0.006304317571871335
v -0.0044999991841614415 0.0008359145931322588 0.006304317571871335
v -0.0044999991841614415 -0.000403642645396829 -0.01019568182090636
v -0.0044999991841614415 -0.0010955941432209129 -0.01019568182090636
v -0.0044999991841614415 -0.0010955941432209129 -0.01019568182090636
v -0.0044999991841614415 -0.000403642645396829 -0.01019568182090636
v -0.0029999982640147587 -0.0005163299921975285 -0.011695681548960175
v -0.004061096815889399 -0.0004832923304298743 -0.011255904184522386
v -0.0029999982640147587 -0.0010955941432209129 -0.011695681548960175
v -0.004299036168328608 -0.0010955941432209129 -0.010945681088886832
v -0.0037499987240881 -0.0010955941432209129 -0.011494719725220209
v -0.0029999982640147587 -0.0010955941432209129 -0.011695681548960175
v -0.0029999982640147587 -0.0005163299921975285 -0.011695681548960175
v 0.0030000006482004964 -0.0005163299921975285 -0.011695681548960175
v 0.0030000006482004964 -0.0010955941432209129 -0.011695681548960175
v 0.0030000006482004964 -0.0010955941432209129 -0.011695681548960175
v 0.0030000006482004964 -0.0005163299921975285 -0.011695681548960175
v 0.004500001568347179 -0.000403642645396829 -0.01019568182090636
v 0.004061098007982268 -0.0004832923304298743 -0.011255904184522386
v 0.004500001568347179 -0.0010955941432209129 -0.01019568182090636
v 0.003750001108273838 -0.0010955941432209129 -0.011494719725220209
v 0.004299039744607215 -0.0010955941432209129 -0.010945681088886832
v -0.0029999982640147587 -0.0005163299921975285 -0.011695681548960175
v 0.0030000006482004964 -0.0005163299921975285 -0.011695681548960175
v -0.004061096815889399 -0.0004832923304298743 -0.011255904184522386
v -0.0044999991841614415 -0.000403642645396829 -0.01019568182090636
v -0.0044999991841614415 0.0008359145931322588 0.006304317571871335
v -0.004061096815889399 0.0009155630860724352 0.007364540531533795
v -0.0029999982640147587 0.0009486007478400895 0.007804317895971584
v 0.0030000006482004964 0.0009486007478400895 0.007804317895971584
v 0.004061098007982268 0.0009155630860724352 0.007364540531533795
v 0.004500001568347179 0.0008359145931322588 0.006304317571871335
v 0.004500001568347179 -0.000403642645396829 -0.01019568182090636
v 0.004061098007982268 -0.0004832923304298743 -0.011255904184522386
v 0.001000001408159701 0.0006489467475798706 0.0038155578714111926
v 0.0007071077665588011 0.0005959749088590983 0.0031104379197112193
v 1.1920928688624601e-09 0.0005740332475148159 0.002818368014282703
v -0.0007071053823730634 0.0005959749088590983 0.0031104379197112193
v -0.0009999990239739633 0.0006489467475798706 0.0038155578714111926
v -0.0007071053823730634 0.0007019185863006429 0.0045206772270647315
v 1.1920928688624601e-09 0.0007238602476449253 0.004812747728539682
v 0.0007071077665588011 0.0007019185863006429 0.0045206772270647315
v -0.0009999990239739633 0.0006489467475798706 0.0038155578714111926
v -0.0009999990239739633 0.0017770099242699902 0.0037308125854101943
v -0.0007071053823730634 0.0007019185863006429 0.0045206772270647315
v 1.1920928688624601e-09 0.0007238602476449253 0.004812747728539682
v 0.0007071077665588011 0.0007019185863006429 0.0045206772270647315
v 0.001000001408159701 0.0006489467475798706 0.0038155578714111926
v 0.001000001408159701 0.0017770099242699902 0.0037308125854101943
v -1.9073485901799362e-08 0.0018990283780017107 0.004724463714857466
v -0.0009999990239739633 0.003573487917181373 0.003595856943819144
v -0.0009999990239739633 0.008327309899166748 0.0032387232056545496
v 0.001000001408159701 0.003573487917181373 0.0035958575398655785
v -6.675720065629777e-08 0.0037259422899944554 0.004587217466818896
v 0.001000001408159701 0.008327309899166748 0.0032387232056545496
v -0.0007071053823730634 0.00838028173788752 0.0039438431573545225
v 1.1920928688624601e-09 0.008402223399231802 0.004235913062783039
v 0.0007071077665588011 0.00838028173788752 0.0039438431573545225
v -0.0012990367122209803 0.0018672912895539853 0.004476143021669768
v 1.1920928688624601e-09 0.0019650792636332075 0.005220910194048803
v 0.001299039096406718 0.0018672912895539853 0.004476143021669768
v 0.001299039096406718 0.0016937303164512587 0.0029849552441025846
v 1.1920928688624601e-09 0.0016169499989535654 0.002238610187800001
v -0.0012990367122209803 0.0016937303164512587 0.0029849552441025846
v -0.0009999990239739633 0.0017770099242699902 0.0037308125854101943
v -1.9073485901799362e-08 0.0018990283780017107 0.004724463714857466
v 0.001000001408159701 0.0017770099242699902 0.0037308125854101943
v -4.76837147544984e-08 0.0016674387082284972 0.0027362262591073007
v -0.0012990367122209803 0.0018672912895539853 0.004476143021669768
v 1.1920928688624601e-09 0.0019650792636332075 0.005220910194048803
v 0.001299039096406718 0.0018672912895539853 0.004476143021669768
v 0.001299039096406718 0.0027139919389637117 0.0044125353303730045
v -0.0012990367122209803 0.0027137636531793245 0.004412552019673169
v -5.602836483653562e-08 0.002878488237891608 0.005152290944331342
v -0.0012990367122209803 0.0016937303164512587 0.0029849552441025846
v -0.0012990367122209803 0.0024918883481944713 0.0029249941648916717
v -0.0012990367122209803 0.0018672912895539853 0.004476143021669768
v -0.0012990367122209803 0.0027137636531793245 0.004412552019673169
v -0.0012990367122209803 0.0029794501592341764 0.0036658506766144034
v -0.0012990367122209803 0.0024953603186750333 0.00295725219792309
v 0.001299039096406718 0.0024918883481944713 0.0029249941648916717
v 0.001299039096406718 0.0024953603186750333 0.00295725219792309
v -0.0012990367122209803 0.0024918883481944713 0.0029249941648916717
v 1.1920928688624601e-09 0.0024149262365342765 0.0021786622216106457
v -0.0012990367122209803 0.0024953603186750333 0.00295725219792309
v -2.3841857377249202e-09 0.00241728061995028 0.0022024358316711525
v 0.000999975182116586 0.003573479572531291 0.0035958587319584474
v 0.0012990164466422096 0.002979496650856062 0.0036658482924286657
v 0.001299039096406718 0.0024953603186750333 0.00295725219792309
v -0.0012990367122209803 0.0024953603186750333 0.00295725219792309
v -2.3841857377249202e-09 0.0024172788318109766 0.0022024361296943697
v -0.0012990367122209803 0.0029794459869091354 0.003665851272660838
v -0.0009999716058379795 0.0035734789764848567 0.003595858135912013
v 0.0 0.0034498064938975896 0.0026023262157516282
v -0.0006244027475028614 0.0029511677559204146 0.0025697576425278714
v 0.0006244015554099925 0.0029511677559204146 0.0025697552583421337
v -0.0009729361316650478 0.0032547985779911586 0.0030614971430265054
v -0.001102344965137281 0.0029518418844377563 0.003018832139249918
v 0.0009729373237579166 0.0032547985779911586 0.0030614947588407677
v 0.00110233542839433 0.002951867514434437 0.0030188345234356557
v -0.0005296504379141976 0.0033363466709178673 0.002693265020252801
v 0.0005296492458213288 0.0033363466709178673 0.0026932626360670633
v -0.0008915507594149387 0.003444677514329309 0.003087808420781603
v 0.0008915507594149387 0.003444677514329309 0.0030878060365958655
v -0.0005060231572533437 0.0034326445289110112 0.002724177776481708
v 0.0005060219651604748 0.0034326445289110112 0.00272417539229597
v -0.0008712124629792762 0.0034921484405067153 0.0030944018864392814
v 0.0008712136550721451 0.0034921484405067153 0.0030943995022535437
v -0.0005001199133667368 0.0034567188443976886 0.0027319079026898465
v 0.0005001187212738679 0.0034567188443976886 0.0027319055185041088
v -0.0008661281868935778 0.0035040163210626756 0.0030960511469233527
v 0.0008661293789864467 0.0035040163210626756 0.003096048762737615
v -0.000498644102395085 0.003462737721292575 0.002733840881276707
v 0.0004986429103022162 0.003462737721292575 0.0027338384970909692
v -0.0008648574158953705 0.00350698284416684 0.003096463611055979
v 0.0008648586079882393 0.0035069834402132742 0.0030964612268702413
v -0.0004982757456986066 0.0034642421424930796 0.0027343242749350307
v 0.0004982733615128688 0.0034642421424930796 0.002734321890749293
v 0.001000001408159701 0.0006489467475798706 0.0038155578714111926
v 0.001000001408159701 0.0017770099242699902 0.0037308125854101943
v 0.0007071077665588011 0.0005959749088590983 0.0031104379197112193
v 1.1920928688624601e-09 0.0005740332475148159 0.002818368014282703
v -0.0007071053823730634 0.0005959749088590983 0.0031104379197112193
v -0.0009999990239739633 0.0006489467475798706 0.0038155578714111926
v -0.0009999990239739633 0.0017770099242699902 0.0037308125854101943
v -4.76837147544984e-08 0.0016674387082284972 0.0027362262591073007
v 0.001000001408159701 0.003573487917181373 0.0035958575398655785
v 0.001000001408159701 0.008327309899166748 0.0032387232056545496
v -0.0009999990239739633 0.003573487917181373 0.003595856943819144
v 0.0 0.0034498064938975896 0.0026023262157516282
v -0.0009999990239739633 0.008327309899166748 0.0032387232056545496
v 0.0007071077665588011 0.008274338060445975 0.0025336032539545763
v 1.1920928688624601e-09 0.008252396399101693 0.002241533199514452
v -0.0007071053823730634 0.008274338060445975 0.0025336032539545763
v 0.000700001700967512 0.008626466796700651 0.00321624927484432
v 0.001000001408159701 0.008327309899166748 0.0032387232056545496
v 0.0007071077665588011 0.008274338060445975 0.0025336032539545763
v 1.1920928688624601e-09 0.008252396399101693 0.002241533199514452
v -0.0007071053823730634 0.008274338060445975 0.0025336032539545763
v -0.0009999990239739633 0.008327309899166748 0.0032387232056545496
v -0.0006999993167817743 0.008626466796700651 0.00321624927484432
v 0.000350000850483756 0.008581052826768467 0.002611734808719125
v -0.0003499984662980183 0.008581052826768467 0.002611734808719125
v 0.000700001700967512 0.008626466796700651 0.00321624927484432
v 0.000350000850483756 0.008581052826768467 0.002611734808719125
v -0.0003499984662980183 0.008581052826768467 0.002611734808719125
v -0.0006999993167817743 0.008626466796700651 0.00321624927484432
v -0.0003499984662980183 0.008671880766632835 0.0038207631449230805
v 0.000350000850483756 0.008671880766632835 0.0038207631449230805
v -0.0006999993167817743 0.008626466796700651 0.00321624927484432
v -0.0009999990239739633 0.008327309899166748 0.0032387232056545496
v -0.0007071053823730634 0.00838028173788752 0.0039438431573545225
v 1.1920928688624601e-09 0.008402223399231802 0.004235913062783039
v 0.0007071077665588011 0.00838028173788752 0.0039438431573545225
v 0.001000001408159701 0.008327309899166748 0.0032387232056545496
v 0.000700001700967512 0.008626466796700651 0.00321624927484432
v -0.0003499984662980183 0.008671880766632835 0.0038207631449230805
v 0.000350000850483756 0.008671880766632835 0.0038207631449230805
v -0.0009999906793238813 0.0035734885132278076 0.003595856943819144
v -0.0012990617461712264 0.0029794585038842585 0.003665850080567969
v -0.0012990367122209803 0.0027137636531793245 0.004412552019673169
v -5.602836483653562e-08 0.002878488237891608 0.005152290944331342
v 0.001299039096406718 0.0027139919389637117 0.0044125353303730045
v 0.001299039096406718 0.0029795085717847507 0.0036658465042893624
v 0.000999993063509619 0.0035734885132278076 0.0035958575398655785
v -6.675720065629777e-08 0.0037259422899944554 0.004587217466818896
v 0.0006316768981886601 0.00324605696098379 0.004716620339826785
v -0.0006313419200925098 0.0032459824551794862 0.004716921343276173
v 0.0009714650890648715 0.003413475675579703 0.0041772030850379975
v 0.0011011790983115335 0.003122403551882425 0.004289119743798977
v -0.0009731352111741478 0.0034129845333177315 0.004174209739844284
v -0.0011030792943445002 0.003121856381255617 0.004285719298890547
v 0.0005295252681629671 0.003589576402539541 0.004522021907820808
v -0.0005306804061528948 0.003589446464416835 0.0045213960590646555
v 0.0008908104697433751 0.0035881506594683814 0.004115850833449121
v -0.0008927464285624077 0.003587619582095303 0.0041124247585440105
v 0.0005045568830246429 0.00367542616258354 0.0044729982806817085
v -0.000506011236324655 0.0036752860916714485 0.0044721924259023575
v 0.0008707272811816492 0.0036318074845118624 0.004100356606386081
v -0.0008727192683655184 0.0036312674664422677 0.004096842316608675
v 0.0004983508475493449 0.003696886218408802 0.004460719128085991
v -0.0004998743422357511 0.0036967449554038416 0.0044598715500562295
v 0.000865710954389476 0.003642720498679864 0.004096473363865762
v -0.0008677172466877715 0.003642178692470966 0.00409293821246315
v 0.0004968023189126926 0.0037022512323651173 0.004457648296855801
v -0.0004983425028992628 0.0037021093733137227 0.00445678998999022
v 0.0008644580647843015 0.00364544919925669 0.004095501808177639
v -0.0008664667412683348 0.003644906200954923 0.0040919612923571175
v 0.0004964148887303123 0.003703592932889022 0.004456880589048254
v -0.000497959841088358 0.003703450477791193 0.0044560193019505005
v 0.001299039096406718 0.0016937303164512587 0.0029849552441025846
v 0.001299039096406718 0.0018672912895539853 0.004476143021669768
v 0.001299039096406718 0.0024918883481944713 0.0029249941648916717
v 0.001299039096406718 0.0024953603186750333 0.00295725219792309
v 0.001299039096406718 0.0029795043994597097 0.003665847100335797
v 0.001299039096406718 0.0027139919389637117 0.0044125353303730045
v -0.0012990367122209803 0.0016937303164512587 0.0029849552441025846
v -0.0012990367122209803 0.0024918883481944713 0.0029249941648916717
v 1.1920928688624601e-09 0.0024149262365342765 0.0021786622216106457
v 0.001299039096406718 0.0024918883481944713 0.0029249941648916717
v 0.001299039096406718 0.0016937303164512587 0.0029849552441025846
v 1.1920928688624601e-09 0.0016169499989535654 0.002238610187800001
usemtl foot
f 13 9 8
f 13 8 12
f 14 6 7
f 14 10 9
f 14 7 10
f 14 9 13
f 15 1 2
f 15 11 1
f 15 12 11
f 15 13 12
f 16 2 3
f 16 3 4
f 16 4 5
f 16 5 6
f 16 6 14
f 16 13 15
f 16 14 13
f 16 15 2
f 17 18 19
f 17 19 20
f 21 17 20
f 24 21 22
f 24 22 23
f 24 17 21
f 29 30 31
f 29 31 32
f 28 29 32
f 25 32 17
f 25 17 24
f 25 28 32
f 26 27 28
f 26 28 25
f 39 33 34
f 39 38 33
f 40 34 35
f 40 35 36
f 40 39 34
f 37 40 36
f 53 49 48
f 53 48 52
f 54 46 47
f 54 50 49
f 54 47 50
f 54 49 53
f 55 41 42
f 55 51 41
f 55 52 51
f 55 53 52
f 56 42 43
f 56 43 44
f 56 44 45
f 56 45 46
f 56 46 54
f 56 53 55
f 56 54 53
f 56 55 42
f 63 57 58
f 63 62 57
f 64 58 59
f 64 63 58
f 61 59 60
f 61 64 59
f 77 73 72
f 77 72 76
f 78 70 71
f 78 74 73
f 78 71 74
f 78 73 77
f 79 65 66
f 79 75 65
f 79 76 75
f 79 77 76
f 80 66 67
f 80 67 68
f 80 68 69
f 80 69 70
f 80 70 78
f 80 77 79
f 80 78 77
f 80 79 66
f 87 81 82
f 87 86 81
f 88 82 83
f 88 87 82
f 85 83 84
f 85 88 83
f 92 89 90
f 92 90 91
f 95 97 99
f 96 99 98
f 96 95 99
f 94 98 93
f 94 96 98
f 103 100 101
f 103 101 102
f 109 104 105
f 110 105 106
f 110 109 105
f 111 106 107
f 111 110 106
f 108 111 107
f 113 122 112
f 124 120 119
f 124 119 123
f 125 117 118
f 125 121 120
f 125 118 121
f 125 120 124
f 126 123 122
f 126 124 123
f 126 122 113
f 127 113 114
f 127 114 115
f 127 115 116
f 127 116 117
f 127 117 125
f 127 125 124
f 127 126 113
f 127 124 126
f 130 132 134
f 131 134 133
f 131 130 134
f 129 133 128
f 129 131 133
f 137 135 136
f 138 135 137
f 141 143 145
f 142 145 144
f 142 141 145
f 140 144 139
f 140 142 144
f 149 146 147
f 149 147 148
f 152 154 156
f 153 156 155
f 153 152 156
f 151 155 150
f 151 153 155
f 166 164 165
f 176 164 166
f 169 176 166
f 175 164 176
f 163 164 175
f 174 163 175
f 170 169 166
f 161 162 163
f 161 173 172
f 161 174 173
f 161 163 174
f 167 171 170
f 167 170 166
f 158 167 168
f 160 172 171
f 160 171 167
f 160 161 172
f 157 167 158
f 157 160 167
f 159 160 157
f 178 177 179
f 184 179 180
f 184 180 181
f 184 178 179
f 183 181 182
f 183 184 181
f 190 186 185
f 190 185 188
f 191 190 188
f 192 188 187
f 192 191 188
f 189 192 187
f 202 198 197
f 202 199 198
f 193 198 199
f 196 202 197
f 201 202 196
f 200 193 199
f 194 193 200
f 195 200 201
f 195 194 200
f 195 201 196
f 204 207 203
f 208 207 204
f 206 204 205
f 206 208 204
f 214 210 209
f 211 214 209
f 213 214 211
f 212 213 211
f 220 218 217
f 220 217 219
f 215 218 220
f 216 215 220
f 229 225 224
f 229 228 225
f 230 223 225
f 230 225 228
f 231 226 227
f 232 224 226
f 232 226 231
f 232 231 229
f 232 229 224
f 233 221 222
f 234 222 223
f 234 223 230
f 234 233 222
f 234 230 233
f 235 228 229
f 235 229 231
f 236 230 228
f 236 233 230
f 237 231 227
f 237 235 231
f 238 221 233
f 238 233 236
f 239 228 235
f 239 235 237
f 240 236 228
f 240 238 236
f 241 237 227
f 241 239 237
f 242 221 238
f 242 238 240
f 243 228 239
f 243 239 241
f 244 240 228
f 244 242 240
f 245 241 227
f 245 243 241
f 246 221 242
f 246 242 244
f 247 228 243
f 247 243 245
f 248 244 228
f 248 246 244
f 249 245 227
f 249 247 245
f 250 221 246
f 250 246 248
f 251 227 228
f 251 249 227
f 251 228 247
f 251 247 249
f 252 228 221
f 252 248 228
f 252 221 250
f 252 250 248
f 254 253 255
f 260 255 256
f 260 256 257
f 260 254 255
f 259 257 258
f 259 260 257
f 266 262 261
f 266 261 264
f 267 266 264
f 268 264 263
f 268 267 264
f 265 268 263
f 273 274 275
f 273 275 277
f 272 273 277
f 276 272 277
f 271 272 276
f 269 271 276
f 270 271 269
f 283 278 279
f 282 279 280
f 282 280 281
f 282 283 279
f 288 289 290
f 288 290 292
f 287 288 292
f 291 287 292
f 286 287 291
f 284 286 291
f 285 286 284
f 301 296 297
f 301 300 296
f 302 295 296
f 302 296 300
f 303 298 299
f 304 297 298
f 304 298 303
f 304 303 301
f 304 301 297
f 305 293 294
f 306 294 295
f 306 295 302
f 306 305 294
f 306 302 305
f 307 300 301
f 307 301 303
f 308 302 300
f 308 305 302
f 309 303 299
f 309 307 303
f 310 293 305
f 310 305 308
f 311 300 307
f 311 307 309
f 312 308 300
f 312 310 308
f 313 309 299
f 313 311 309
f 314 293 310
f 314 310 312
f 315 300 311
f 316 312 300
f 317 313 299
f 317 311 313
f 318 293 314
f 318 314 312
f 319 300 315
f 320 316 300
f 321 317 299
f 321 315 311
f 321 311 317
f 321 319 315
f 322 312 316
f 322 293 318
f 322 318 312
f 322 316 320
f 323 299 300
f 323 321 299
f 323 300 319
f 323 319 321
f 324 300 293
f 324 320 300
f 324 322 320
f 324 293 322
f 329 330 326
f 328 326 325
f 328 329 326
f 327 328 325
f 333 334 335
f 333 335 336
f 331 333 336
f 332 333 331
