mtllib Gemini2_world_Orbbec_Gemini2_front_cover_solid_solid.mtl
v -0.0269373363195955 0.00935291150168527 0.00036268233442271497
v 0.027062992444716553 0.009352912097731704 0.00036268233442271497
v -0.030139226239787938 0.009309544355208922 0.00036268233442271497
v -0.03200988221146429 0.009177876505750195 0.00036268233442271497
v -0.03367989941656813 0.00893188993039973 0.00036268233442271497
v -0.03505795877297314 0.00859508137564924 0.00036268233442271497
v -0.03624180951174028 0.008172330673657415 0.00036268233442271497
v -0.037275301576957805 0.007667155690480267 0.00036268233442271497
v -0.03818098936570458 0.007083247145639794 0.00036268233442271497
v -0.038980433069606864 0.006417931770877573 0.00036268233442271497
v -0.03966998488448593 0.005681621305310248 0.00036268233442271497
v -0.040268329673968324 0.0048607619510420705 0.00036268233442271497
v -0.04076430229624429 0.00396900376746795 0.00036268233442271497
v -0.04115708259142004 0.0030073677821300664 0.00036268233442271497
v -0.04144002344965881 0.0019865598830604574 0.00036268233442271497
v -0.04160567190634446 0.0009240661354944225 0.00036268233442271497
v -0.041649316810459254 -0.0001627496034782468 0.00036268233442271497
v -0.04156827356886251 -0.001249138461445157 0.00036268233442271497
v -0.041363715200937186 -0.0023122146208834353 0.00036268233442271497
v -0.04104102042970759 -0.0033276792616915856 0.00036268233442271497
v -0.040606326149262635 -0.0042821918960915814 0.00036268233442271497
v -0.0400701037033624 -0.005157270912291013 0.00036268233442271497
v -0.0394361081845438 -0.005952592955099202 0.00036268233442271497
v -0.038711022465429686 -0.006661681383959618 0.00036268233442271497
v -0.037898143874895325 -0.007282777265844254 0.00036268233442271497
v -0.03698563016238144 -0.007824525062191669 0.00036268233442271497
v -0.03598093190831842 -0.008278601580591462 0.00036268233442271497
v -0.034944478684414644 -0.008628974364050303 0.00036268233442271497
v -0.03368445082714145 -0.008931463161152677 0.00036268233442271497
v -0.0320530669677317 -0.00917374769209889 0.00036268233442271497
v -0.030853695179811964 -0.009273682625434933 0.00036268233442271497
v -0.029528686340257074 -0.00933042684203922 0.00036268233442271497
v -0.026937341087966974 -0.009353378802089864 0.00036268233442271497
v 0.02710367619014509 -0.009353379398136298 0.00036268233442271497
v 0.030301346101581757 -0.00930850425418084 0.00036268233442271497
v 0.032169498678233495 -0.009174735341040742 0.00036268233442271497
v 0.03383255167679745 -0.008927064934513009 0.00036268233442271497
v 0.0352064935444334 -0.008588673876479104 0.00036268233442271497
v 0.036387473723572324 -0.008164366897246979 0.00036268233442271497
v 0.03741831219006376 -0.007657795377273959 0.00036268233442271497
v 0.03832220468695003 -0.007072253665203144 0.00036268233442271497
v 0.03911972435296197 -0.006405497646208903 0.00036268233442271497
v 0.039807645384796427 -0.005667569510618532 0.00036268233442271497
v 0.040404113820103234 -0.004845341931760117 0.00036268233442271497
v 0.04089811710495984 -0.003952401490083302 0.00036268233442271497
v 0.04128899005154541 -0.0029894336389876823 0.00036268233442271497
v 0.04156982328959203 -0.0019677035070723996 0.00036268233442271497
v 0.0417332544535416 -0.0009045872635114056 0.00036268233442271497
v 0.04177460100260522 0.00018241885641771124 0.00036268233442271497
v 0.04169124033247141 0.0012686122670334812 0.00036268233442271497
v 0.04148443606158115 0.002331043727747118 0.00036268233442271497
v 0.04115963367015941 0.003345450982180587 0.00036268233442271497
v 0.04072297005229509 0.00429862281012633 0.00036268233442271497
v 0.040185007150806314 0.005172062996654293 0.00036268233442271497
v 0.039549199650827045 0.0059659670449949695 0.00036268233442271497
v 0.038822526064011605 0.006673404425232011 0.00036268233442271497
v 0.038007811650459196 0.00729308290869557 0.00036268233442271497
v 0.03709359324514284 0.007833218399437849 0.00036268233442271497
v 0.03608655372068537 0.008285922818945581 0.00036268233442271497
v 0.035051714590526035 0.008633822009701532 0.00036268233442271497
v 0.0337941233710768 0.008934111395460855 0.00036268233442271497
v 0.03216639208421724 0.009174600038500126 0.00036268233442271497
v 0.03096983601965376 0.009273800046582516 0.00036268233442271497
v 0.029648050599216273 0.009330126434636267 0.00036268233442271497
v -0.031937176467392366 -2.3353320490122122e-07 0.00036268233442271497
v -0.031865925076620456 -0.0009964373485050195 0.00036268233442271497
v -0.03165362764179048 -0.0019723613119342624 0.00036268233442271497
v -0.031304599539087714 -0.0029081385677723896 0.00036268233442271497
v -0.03082595041038206 -0.003784719322963371 0.00036268233442271497
v -0.030227422038597858 -0.004584258692318378 0.00036268233442271497
v -0.029521199997040618 -0.005290480733875614 0.00036268233442271497
v -0.02872166092570883 -0.005889008509613381 0.00036268233442271497
v -0.027845081660633934 -0.006367657638319036 0.00036268233442271497
v -0.02690930306369133 -0.0067166845489289315 0.00036268233442271497
v -0.025933379547296912 -0.0069289837718982126 0.00036268233442271497
v -0.024937176147017407 -0.0070002333745308185 0.00036268233442271497
v -0.023940972746737902 -0.0069289837718982126 0.00036268233442271497
v -0.022965049230343485 -0.0067166845489289315 0.00036268233442271497
v -0.02202927063340088 -0.006367657638319036 0.00036268233442271497
v -0.021152691368325986 -0.005889008509613381 0.00036268233442271497
v -0.020353152296994196 -0.005290480733875614 0.00036268233442271497
v -0.019646927871251222 -0.004584258692318378 0.00036268233442271497
v -0.01904840069155989 -0.003784719322963371 0.00036268233442271497
v -0.018569751562854234 -0.0029081385677723896 0.00036268233442271497
v -0.01822072465224434 -0.0019723613119342624 0.00036268233442271497
v -0.018008424833228624 -0.0009964373485050195 0.00036268233442271497
v -0.017937174634549583 -2.3353320490122122e-07 0.00036268233442271497
v -0.018008424833228624 0.0009959703461236427 0.00036268233442271497
v -0.01822072465224434 0.0019718943095528856 0.00036268233442271497
v -0.018569751562854234 0.0029076712673677956 0.00036268233442271497
v -0.01904840069155989 0.003784252022558777 0.00036268233442271497
v -0.019646927871251222 0.004583791391913784 0.00036268233442271497
v -0.020353152296994196 0.00529001343347102 0.00036268233442271497
v -0.021152691368325986 0.005888541209208787 0.00036268233442271497
v -0.02202927063340088 0.006367190337914442 0.00036268233442271497
v -0.022965049230343485 0.006716217248524337 0.00036268233442271497
v -0.023940972746737902 0.0069285164714936185 0.00036268233442271497
v -0.024937176147017407 0.006999766074126224 0.00036268233442271497
v -0.025933379547296912 0.0069285164714936185 0.00036268233442271497
v -0.02690930306369133 0.006716217248524337 0.00036268233442271497
v -0.027845081660633934 0.006367190337914442 0.00036268233442271497
v -0.02872166092570883 0.005888541209208787 0.00036268233442271497
v -0.029521199997040618 0.00529001343347102 0.00036268233442271497
v -0.030227422038597858 0.004583791391913784 0.00036268233442271497
v -0.03082595041038206 0.003784252022558777 0.00036268233442271497
v -0.031304599539087714 0.0029076712673677956 0.00036268233442271497
v -0.03165362764179048 0.0019718943095528856 0.00036268233442271497
v -0.031865925076620456 0.0009959703461236427 0.00036268233442271497
v -0.0034371756739055574 -2.3353320490122122e-07 0.00036268233442271497
v -0.003295401261104614 -0.0009862974065624754 0.00036268233442271497
v -0.002881563241446839 -0.0018924763375712255 0.00036268233442271497
v -0.002229188332799337 -0.0026453571920389556 0.00036268233442271497
v -0.001391128270526343 -0.0031839456442606666 0.00036268233442271497
v -0.0004352777353984622 -0.003464608711050255 0.00036268233442271497
v 0.0005609261119158688 -0.003464608711050255 0.00036268233442271497
v 0.0015167766470437496 -0.0031839456442606666 0.00036268233442271497
v 0.0023548367093167437 -0.0026453571920389556 0.00036268233442271497
v 0.0030072116179642454 -0.0018924763375712255 0.00036268233442271497
v 0.0034210496376220205 -0.0009862974065624754 0.00036268233442271497
v 0.003562824050422964 -2.3353320490122122e-07 0.00036268233442271497
v 0.0034210496376220205 0.0009858304041810986 0.00036268233442271497
v 0.0030072116179642454 0.0018920093351898486 0.00036268233442271497
v 0.0023548367093167437 0.0026448898916343615 0.00036268233442271497
v 0.0015167766470437496 0.0031834783438560725 0.00036268233442271497
v 0.0005609261119158688 0.0034641414106456607 0.00036268233442271497
v -0.0004352777353984622 0.0034641414106456607 0.00036268233442271497
v -0.001391128270526343 0.0031834783438560725 0.00036268233442271497
v -0.002229188332799337 0.0026448898916343615 0.00036268233442271497
v -0.002881563241446839 0.0018920093351898486 0.00036268233442271497
v -0.003295401261104614 0.0009858304041810986 0.00036268233442271497
v 0.006562824102577026 -2.3353320490122122e-07 0.00036268233442271497
v 0.00666115984332949 -0.0009358361154235274 0.00036268233442271497
v 0.006951869570794634 -0.0018305483051266893 0.00036268233442271497
v 0.007422247959176121 -0.0026452671890273565 0.00036268233442271497
v 0.008051736770903985 -0.003344385251155824 0.00036268233442271497
v 0.008812824290704182 -0.003897347959190279 0.00036268233442271497
v 0.009672247551256842 -0.004279988014400272 0.00036268233442271497
v 0.01059244609044985 -0.004475582141974966 0.00036268233442271497
v 0.011533202867212823 -0.004475582141974966 0.00036268233442271497
v 0.012453400810359396 -0.004279988014400272 0.00036268233442271497
v 0.013312824666958491 -0.003897347959190279 0.00036268233442271497
v 0.014073911590712253 -0.003344385251155824 0.00036268233442271497
v 0.01470340099848655 -0.0026452671890273565 0.00036268233442271497
v 0.01517377819477517 -0.0018305483051266893 0.00036268233442271497
v 0.015464487922240314 -0.0009358361154235274 0.00036268233442271497
v 0.015562823662992779 -2.3353320490122122e-07 0.00036268233442271497
v 0.015464487922240314 0.0009353691130421505 0.00036268233442271497
v 0.01517377819477517 0.0018300813027453124 0.00036268233442271497
v 0.01470340099848655 0.0026447998886227624 0.00036268233442271497
v 0.014073911590712253 0.00334391795075123 0.00036268233442271497
v 0.013312824666958491 0.003896880658785685 0.00036268233442271497
v 0.012453400810359396 0.004279520713995678 0.00036268233442271497
v 0.011533202867212823 0.004475114841570372 0.00036268233442271497
v 0.01059244609044985 0.004475114841570372 0.00036268233442271497
v 0.009672247551256842 0.004279520713995678 0.00036268233442271497
v 0.008812824290704182 0.003896880658785685 0.00036268233442271497
v 0.008051736770903985 0.00334391795075123 0.00036268233442271497
v 0.007422247959176121 0.0026447998886227624 0.00036268233442271497
v 0.006951869570794634 0.0018300813027453124 0.00036268233442271497
v 0.00666115984332949 0.0009353691130421505 0.00036268233442271497
v 0.018062823607113424 -2.3353320490122122e-07 0.00036268233442271497
v 0.018134073805792465 -0.0009964373485050195 0.00036268233442271497
v 0.01834637362480818 -0.0019723613119342624 0.00036268233442271497
v 0.018695400535418075 -0.0029081385677723896 0.00036268233442271497
v 0.01917404966412373 -0.003784719322963371 0.00036268233442271497
v 0.019772576843815063 -0.004584258692318378 0.00036268233442271497
v 0.0204787988853723 -0.005290480733875614 0.00036268233442271497
v 0.02127833795670409 -0.005889008509613381 0.00036268233442271497
v 0.022154917221778984 -0.006367657638319036 0.00036268233442271497
v 0.02309069581872159 -0.0067166845489289315 0.00036268233442271497
v 0.024066619335116005 -0.0069289837718982126 0.00036268233442271497
v 0.02506282273539551 -0.0070002333745308185 0.00036268233442271497
v 0.026059026135675015 -0.0069289837718982126 0.00036268233442271497
v 0.027034949652069432 -0.0067166845489289315 0.00036268233442271497
v 0.027970728249012037 -0.006367657638319036 0.00036268233442271497
v 0.028847307514086932 -0.005889008509613381 0.00036268233442271497
v 0.02964684658541872 -0.005290480733875614 0.00036268233442271497
v 0.03035306862697596 -0.004584258692318378 0.00036268233442271497
v 0.030951596998760163 -0.003784719322963371 0.00036268233442271497
v 0.03143024612746582 -0.0029081385677723896 0.00036268233442271497
v 0.03177927423016858 -0.0019723613119342624 0.00036268233442271497
v 0.03199157166499856 -0.0009964373485050195 0.00036268233442271497
v 0.03206282305577047 -2.3353320490122122e-07 0.00036268233442271497
v 0.03199157166499856 0.0009959703461236427 0.00036268233442271497
v 0.03177927423016858 0.0019718943095528856 0.00036268233442271497
v 0.03143024612746582 0.0029076712673677956 0.00036268233442271497
v 0.030951596998760163 0.003784252022558777 0.00036268233442271497
v 0.03035306862697596 0.004583791391913784 0.00036268233442271497
v 0.02964684658541872 0.00529001343347102 0.00036268233442271497
v 0.028847307514086932 0.005888541209208787 0.00036268233442271497
v 0.027970728249012037 0.006367190337914442 0.00036268233442271497
v 0.027034949652069432 0.006716217248524337 0.00036268233442271497
v 0.026059026135675015 0.0069285164714936185 0.00036268233442271497
v 0.02506282273539551 0.006999766074126224 0.00036268233442271497
v 0.024066619335116005 0.0069285164714936185 0.00036268233442271497
v 0.02309069581872159 0.006716217248524337 0.00036268233442271497
v 0.022154917221778984 0.006367190337914442 0.00036268233442271497
v 0.02127833795670409 0.005888541209208787 0.00036268233442271497
v 0.0204787988853723 0.00529001343347102 0.00036268233442271497
v 0.019772576843815063 0.004583791391913784 0.00036268233442271497
v 0.01917404966412373 0.003784252022558777 0.00036268233442271497
v 0.018695400535418075 0.0029076712673677956 0.00036268233442271497
v 0.01834637362480818 0.0019718943095528856 0.00036268233442271497
v 0.018134073805792465 0.0009959703461236427 0.00036268233442271497
v -0.007237175541285224 0.0006997664861433246 0.00036268233442271497
v -0.007588647434369157 0.0015482945394152128 0.00036268233442271497
v -0.00843717556214685 0.0018997664324991452 0.00036268233442271497
v -0.009285703689924542 0.0015482945394152128 0.00036268233442271497
v -0.009637175583008474 0.0006997664861433246 0.00036268233442271497
v -0.007237175541285224 -0.001200233447546509 0.00036268233442271497
v -0.009637175583008474 -0.001200233447546509 0.00036268233442271497
v -0.009285703689924542 -0.002048761649830006 0.00036268233442271497
v -0.00843717556214685 -0.0024002333939023295 0.00036268233442271497
v -0.007588647434369157 -0.002048761649830006 0.00036268233442271497
v 0.02710367619014509 -0.009353380590229167 -0.0003373181744519284
v 0.02710367619014509 -0.009353380590229167 0.00036268233442271497
v 0.030301346101581757 -0.00930850425418084 -0.0003373181744519284
v 0.032169498678233495 -0.009174735341040742 -0.0003373181744519284
v 0.03383255167679745 -0.008927064934513009 -0.0003373181744519284
v 0.0352064935444334 -0.008588673876479104 -0.0003373181744519284
v 0.036387473723572324 -0.008164366897246979 -0.0003373181744519284
v 0.03741831219006376 -0.007657795377273959 -0.0003373181744519284
v 0.03832220468695003 -0.007072253665203144 -0.0003373181744519284
v 0.03911972435296197 -0.006405497646208903 -0.0003373181744519284
v 0.039807645384796427 -0.005667569510618532 -0.0003373181744519284
v 0.040404113820103234 -0.004845341931760117 -0.0003373181744519284
v 0.04089811710495984 -0.003952401490083302 -0.0003373181744519284
v 0.04128899005154541 -0.0029894336389876823 -0.0003373181744519284
v 0.04156982328959203 -0.0019677035070723996 -0.0003373181744519284
v 0.0417332544535416 -0.0009045872635114056 -0.0003373181744519284
v 0.04177460100260522 0.00018241885641771124 -0.0003373181744519284
v 0.04169124033247141 0.0012686122670334812 -0.0003373181744519284
v 0.04148443606158115 0.002331043727747118 -0.0003373181744519284
v 0.04115963367015941 0.003345450982180587 -0.0003373181744519284
v 0.04072297005229509 0.00429862281012633 -0.0003373181744519284
v 0.040185007150806314 0.005172062996654293 -0.0003373181744519284
v 0.039549199650827045 0.0059659670449949695 -0.0003373181744519284
v 0.038822526064011605 0.006673404425232011 -0.0003373181744519284
v 0.038007811650459196 0.00729308290869557 -0.0003373181744519284
v 0.03709359324514284 0.007833218399437849 -0.0003373181744519284
v 0.03608655372068537 0.008285922818945581 -0.0003373181744519284
v 0.035051714590526035 0.008633822009701532 -0.0003373181744519284
v 0.0337941233710768 0.008934111395460855 -0.0003373181744519284
v 0.03216639208421724 0.009174600038500126 -0.0003373181744519284
v 0.03096983601965376 0.009273800046582516 -0.0003373181744519284
v 0.029648050599216273 0.009330126434636267 -0.0003373181744519284
v 0.027062992444716553 0.009352912693778139 -0.0003373181744519284
v 0.027062992444716553 0.009352912693778139 0.00036268233442271497
v 0.030301346101581757 -0.00930850425418084 0.00036268233442271497
v 0.032169498678233495 -0.009174735341040742 0.00036268233442271497
v 0.03383255167679745 -0.008927064934513009 0.00036268233442271497
v 0.0352064935444334 -0.008588673876479104 0.00036268233442271497
v 0.036387473723572324 -0.008164366897246979 0.00036268233442271497
v 0.03741831219006376 -0.007657795377273959 0.00036268233442271497
v 0.03832220468695003 -0.007072253665203144 0.00036268233442271497
v 0.03911972435296197 -0.006405497646208903 0.00036268233442271497
v 0.039807645384796427 -0.005667569510618532 0.00036268233442271497
v 0.040404113820103234 -0.004845341931760117 0.00036268233442271497
v 0.04089811710495984 -0.003952401490083302 0.00036268233442271497
v 0.04128899005154541 -0.0029894336389876823 0.00036268233442271497
v 0.04156982328959203 -0.0019677035070723996 0.00036268233442271497
v 0.0417332544535416 -0.0009045872635114056 0.00036268233442271497
v 0.04177460100260522 0.00018241885641771124 0.00036268233442271497
v 0.04169124033247141 0.0012686122670334812 0.00036268233442271497
v 0.04148443606158115 0.002331043727747118 0.00036268233442271497
v 0.04115963367015941 0.003345450982180587 0.00036268233442271497
v 0.04072297005229509 0.00429862281012633 0.00036268233442271497
v 0.040185007150806314 0.005172062996654293 0.00036268233442271497
v 0.039549199650827045 0.0059659670449949695 0.00036268233442271497
v 0.038822526064011605 0.006673404425232011 0.00036268233442271497
v 0.038007811650459196 0.00729308290869557 0.00036268233442271497
v 0.03709359324514284 0.007833218399437849 0.00036268233442271497
v 0.03608655372068537 0.008285922818945581 0.00036268233442271497
v 0.035051714590526035 0.008633822009701532 0.00036268233442271497
v 0.0337941233710768 0.008934111395460855 0.00036268233442271497
v 0.03216639208421724 0.009174600038500126 0.00036268233442271497
v 0.03096983601965376 0.009273800046582516 0.00036268233442271497
v 0.029648050599216273 0.009330126434636267 0.00036268233442271497
v -0.0269373363195955 0.009352910905638835 0.00036268233442271497
v 0.027062992444716553 0.009352910905638835 0.00036268233442271497
v -0.0269373363195955 0.009352910905638835 -0.0003373181744519284
v 0.027062992444716553 0.009352910905638835 -0.0003373181744519284
v -0.0269373363195955 0.009352912693778139 -0.0003373181744519284
v -0.0269373363195955 0.009352912693778139 0.00036268233442271497
v -0.030139226239787938 0.009309544355208922 -0.0003373181744519284
v -0.03200988221146429 0.009177876505750195 -0.0003373181744519284
v -0.03367989941656813 0.00893188993039973 -0.0003373181744519284
v -0.03505795877297314 0.00859508137564924 -0.0003373181744519284
v -0.03624180951174028 0.00817233007761098 -0.0003373181744519284
v -0.037275301576957805 0.007667155690480267 -0.0003373181744519284
v -0.03818098936570458 0.007083246549593359 -0.0003373181744519284
v -0.038980433069606864 0.006417931770877573 -0.0003373181744519284
v -0.03966998488448593 0.005681621305310248 -0.0003373181744519284
v -0.040268329673968324 0.0048607619510420705 -0.0003373181744519284
v -0.04076430229624429 0.00396900376746795 -0.0003373181744519284
v -0.04115708259142004 0.003007367484106849 -0.0003373181744519284
v -0.04144002344965881 0.0019865598830604574 -0.0003373181744519284
v -0.04160567190634446 0.0009240660609886182 -0.0003373181744519284
v -0.041649316810459254 -0.00016274964073114895 -0.0003373181744519284
v -0.04156827356886251 -0.0012491385359509612 -0.0003373181744519284
v -0.041363715200937186 -0.0023122146208834353 -0.0003373181744519284
v -0.04104102042970759 -0.0033276792616915856 -0.0003373181744519284
v -0.040606326149262635 -0.0042821918960915814 -0.0003373181744519284
v -0.0400701037033624 -0.005157270912291013 -0.0003373181744519284
v -0.0394361081845438 -0.005952593551145636 -0.0003373181744519284
v -0.038711022465429686 -0.006661681383959618 -0.0003373181744519284
v -0.037898143874895325 -0.007282777265844254 -0.0003373181744519284
v -0.03698563016238144 -0.007824525062191669 -0.0003373181744519284
v -0.03598093190831842 -0.008278601580591462 -0.0003373181744519284
v -0.034944478684414644 -0.008628974364050303 -0.0003373181744519284
v -0.03368445082714145 -0.008931463161152677 -0.0003373181744519284
v -0.0320530669677317 -0.00917374769209889 -0.0003373181744519284
v -0.030853697563997702 -0.009273682625434933 -0.0003373181744519284
v -0.029528686340257074 -0.00933042684203922 -0.0003373181744519284
v -0.026937338703781236 -0.009353379994182733 -0.0003373181744519284
v -0.026937341087966974 -0.009353379994182733 0.00036268233442271497
v -0.030139226239787938 0.009309544355208922 0.00036268233442271497
v -0.03200988221146429 0.009177876505750195 0.00036268233442271497
v -0.03367989941656813 0.00893188993039973 0.00036268233442271497
v -0.03505795877297314 0.00859508137564924 0.00036268233442271497
v -0.03624180951174028 0.00817233007761098 0.00036268233442271497
v -0.037275301576957805 0.007667155690480267 0.00036268233442271497
v -0.03818098936570458 0.007083247145639794 0.00036268233442271497
v -0.038980433069606864 0.006417931770877573 0.00036268233442271497
v -0.03966998488448593 0.005681621305310248 0.00036268233442271497
v -0.040268329673968324 0.0048607619510420705 0.00036268233442271497
v -0.04076430229624429 0.00396900376746795 0.00036268233442271497
v -0.04115708259142004 0.0030073677821300664 0.00036268233442271497
v -0.04144002344965881 0.0019865598830604574 0.00036268233442271497
v -0.04160567190634446 0.0009240661354944225 0.00036268233442271497
v -0.041649316810459254 -0.0001627496034782468 0.00036268233442271497
v -0.04156827356886251 -0.001249138461445157 0.00036268233442271497
v -0.041363715200937186 -0.0023122146208834353 0.00036268233442271497
v -0.04104102042970759 -0.0033276792616915856 0.00036268233442271497
v -0.040606326149262635 -0.0042821918960915814 0.00036268233442271497
v -0.0400701037033624 -0.005157270912291013 0.00036268233442271497
v -0.0394361081845438 -0.005952592955099202 0.00036268233442271497
v -0.038711022465429686 -0.006661681383959618 0.00036268233442271497
v -0.037898143874895325 -0.007282777265844254 0.00036268233442271497
v -0.03698563016238144 -0.007824525062191669 0.00036268233442271497
v -0.03598093190831842 -0.008278601580591462 0.00036268233442271497
v -0.034944478684414644 -0.008628974364050303 0.00036268233442271497
v -0.03368445082714145 -0.008931463161152677 0.00036268233442271497
v -0.0320530669677317 -0.00917374769209889 0.00036268233442271497
v -0.030853695179811964 -0.009273682625434933 0.00036268233442271497
v -0.029528686340257074 -0.00933042684203922 0.00036268233442271497
v 0.02710367619014509 -0.00935337820604343 0.00036268233442271497
v -0.026937341087966974 -0.00935337820604343 0.00036268233442271497
v 0.02710367619014509 -0.00935337820604343 -0.0003373181744519284
v -0.026937338703781236 -0.00935337820604343 -0.0003373181744519284
v 0.02710367619014509 -0.009353379398136298 -0.0003373181744519284
v -0.026937338703781236 -0.009353379398136298 -0.0003373181744519284
v -0.0269373363195955 0.00935291150168527 -0.0003373181744519284
v -0.030139226239787938 0.009309544355208922 -0.0003373181744519284
v -0.03200988221146429 0.009177876505750195 -0.0003373181744519284
v -0.03367989941656813 0.00893188993039973 -0.0003373181744519284
v -0.03505795877297314 0.00859508137564924 -0.0003373181744519284
v -0.03624180951174028 0.00817233007761098 -0.0003373181744519284
v -0.037275301576957805 0.007667155690480267 -0.0003373181744519284
v -0.03818098936570458 0.007083246549593359 -0.0003373181744519284
v -0.038980433069606864 0.006417931770877573 -0.0003373181744519284
v -0.03966998488448593 0.005681621305310248 -0.0003373181744519284
v -0.040268329673968324 0.0048607619510420705 -0.0003373181744519284
v -0.04076430229624429 0.00396900376746795 -0.0003373181744519284
v -0.04115708259142004 0.003007367484106849 -0.0003373181744519284
v -0.04144002344965881 0.0019865598830604574 -0.0003373181744519284
v -0.04160567190634446 0.0009240660609886182 -0.0003373181744519284
v -0.041649316810459254 -0.00016274964073114895 -0.0003373181744519284
v -0.04156827356886251 -0.0012491385359509612 -0.0003373181744519284
v -0.041363715200937186 -0.0023122146208834353 -0.0003373181744519284
v -0.04104102042970759 -0.0033276792616915856 -0.0003373181744519284
v -0.040606326149262635 -0.0042821918960915814 -0.0003373181744519284
v -0.0400701037033624 -0.005157270912291013 -0.0003373181744519284
v -0.0394361081845438 -0.005952593551145636 -0.0003373181744519284
v -0.038711022465429686 -0.006661681383959618 -0.0003373181744519284
v -0.037898143874895325 -0.007282777265844254 -0.0003373181744519284
v -0.03698563016238144 -0.007824525062191669 -0.0003373181744519284
v -0.03598093190831842 -0.008278601580591462 -0.0003373181744519284
v -0.034944478684414644 -0.008628974364050303 -0.0003373181744519284
v -0.03368445082714145 -0.008931463161152677 -0.0003373181744519284
v -0.0320530669677317 -0.00917374769209889 -0.0003373181744519284
v -0.030853697563997702 -0.009273682625434933 -0.0003373181744519284
v -0.029528686340257074 -0.00933042684203922 -0.0003373181744519284
v 0.027062992444716553 0.009352912097731704 -0.0003373181744519284
v 0.030301346101581757 -0.00930850425418084 -0.0003373181744519284
v 0.032169498678233495 -0.009174735341040742 -0.0003373181744519284
v 0.03383255167679745 -0.008927064934513009 -0.0003373181744519284
v 0.0352064935444334 -0.008588673876479104 -0.0003373181744519284
v 0.036387473723572324 -0.008164366897246979 -0.0003373181744519284
v 0.03741831219006376 -0.007657795377273959 -0.0003373181744519284
v 0.03832220468695003 -0.007072253665203144 -0.0003373181744519284
v 0.03911972435296197 -0.006405497646208903 -0.0003373181744519284
v 0.039807645384796427 -0.005667569510618532 -0.0003373181744519284
v 0.040404113820103234 -0.004845341931760117 -0.0003373181744519284
v 0.04089811710495984 -0.003952401490083302 -0.0003373181744519284
v 0.04128899005154541 -0.0029894336389876823 -0.0003373181744519284
v 0.04156982328959203 -0.0019677035070723996 -0.0003373181744519284
v 0.0417332544535416 -0.0009045872635114056 -0.0003373181744519284
v 0.04177460100260522 0.00018241885641771124 -0.0003373181744519284
v 0.04169124033247141 0.0012686122670334812 -0.0003373181744519284
v 0.04148443606158115 0.002331043727747118 -0.0003373181744519284
v 0.04115963367015941 0.003345450982180587 -0.0003373181744519284
v 0.04072297005229509 0.00429862281012633 -0.0003373181744519284
v 0.040185007150806314 0.005172062996654293 -0.0003373181744519284
v 0.039549199650827045 0.0059659670449949695 -0.0003373181744519284
v 0.038822526064011605 0.006673404425232011 -0.0003373181744519284
v 0.038007811650459196 0.00729308290869557 -0.0003373181744519284
v 0.03709359324514284 0.007833218399437849 -0.0003373181744519284
v 0.03608655372068537 0.008285922818945581 -0.0003373181744519284
v 0.035051714590526035 0.008633822009701532 -0.0003373181744519284
v 0.0337941233710768 0.008934111395460855 -0.0003373181744519284
v 0.03216639208421724 0.009174600038500126 -0.0003373181744519284
v 0.03096983601965376 0.009273800046582516 -0.0003373181744519284
v 0.029648050599216273 0.009330126434636267 -0.0003373181744519284
v -0.017937174634549583 -2.3353320490122122e-07 0.00036268233442271497
v -0.018008424833228624 0.0009959703461236427 0.00036268233442271497
v -0.01822072465224434 0.0019718943095528856 0.00036268233442271497
v -0.018569751562854234 0.0029076712673677956 0.00036268233442271497
v -0.01904840069155989 0.003784252022558777 0.00036268233442271497
v -0.019646927871251222 0.004583791391913784 0.00036268233442271497
v -0.020353152296994196 0.00529001343347102 0.00036268233442271497
v -0.021152691368325986 0.005888541209208787 0.00036268233442271497
v -0.02202927063340088 0.006367190337914442 0.00036268233442271497
v -0.022965049230343485 0.006716217248524337 0.00036268233442271497
v -0.023940972746737902 0.0069285164714936185 0.00036268233442271497
v -0.024937176147017407 0.006999766074126224 0.00036268233442271497
v -0.025933379547296912 0.0069285164714936185 0.00036268233442271497
v -0.02690930306369133 0.006716217248524337 0.00036268233442271497
v -0.027845081660633934 0.006367190337914442 0.00036268233442271497
v -0.02872166092570883 0.005888541209208787 0.00036268233442271497
v -0.029521199997040618 0.00529001343347102 0.00036268233442271497
v -0.030227422038597858 0.004583791391913784 0.00036268233442271497
v -0.03082595041038206 0.003784252022558777 0.00036268233442271497
v -0.031304599539087714 0.0029076712673677956 0.00036268233442271497
v -0.03165362764179048 0.0019718943095528856 0.00036268233442271497
v -0.031865925076620456 0.0009959703461236427 0.00036268233442271497
v -0.031937176467392366 -2.3353320490122122e-07 0.00036268233442271497
v -0.017937174634549583 -2.3353320490122122e-07 0.00026268243202531865
v -0.031937176467392366 -2.3353320490122122e-07 0.00026268243202531865
v -0.031865925076620456 0.0009959703461236427 0.00026268243202531865
v -0.03165362764179048 0.0019718943095528856 0.00026268243202531865
v -0.031304599539087714 0.0029076712673677956 0.00026268243202531865
v -0.03082595041038206 0.003784252022558777 0.00026268243202531865
v -0.030227422038597858 0.004583791391913784 0.00026268243202531865
v -0.029521199997040618 0.00529001343347102 0.00026268243202531865
v -0.02872166092570883 0.005888541209208787 0.00026268243202531865
v -0.027845081660633934 0.006367190337914442 0.00026268243202531865
v -0.02690930306369133 0.006716217248524337 0.00026268243202531865
v -0.025933379547296912 0.0069285164714936185 0.00026268243202531865
v -0.024937176147017407 0.006999766074126224 0.00026268243202531865
v -0.023940972746737902 0.0069285164714936185 0.00026268243202531865
v -0.022965049230343485 0.006716217248524337 0.00026268243202531865
v -0.02202927063340088 0.006367190337914442 0.00026268243202531865
v -0.021152691368325986 0.005888541209208787 0.00026268243202531865
v -0.020353152296994196 0.00529001343347102 0.00026268243202531865
v -0.019646927871251222 0.004583791391913784 0.00026268243202531865
v -0.01904840069155989 0.003784252022558777 0.00026268243202531865
v -0.018569751562854234 0.0029076712673677956 0.00026268243202531865
v -0.01822072465224434 0.0019718943095528856 0.00026268243202531865
v -0.018008424833228624 0.0009959703461236427 0.00026268243202531865
v -0.031937176467392366 -2.3353320490122122e-07 0.00036268233442271497
v -0.031865925076620456 -0.0009964373485050195 0.00036268233442271497
v -0.03165362764179048 -0.0019723613119342624 0.00036268233442271497
v -0.031304599539087714 -0.0029081385677723896 0.00036268233442271497
v -0.03082595041038206 -0.003784719322963371 0.00036268233442271497
v -0.030227422038597858 -0.004584258692318378 0.00036268233442271497
v -0.029521199997040618 -0.005290480733875614 0.00036268233442271497
v -0.02872166092570883 -0.005889008509613381 0.00036268233442271497
v -0.027845081660633934 -0.006367657638319036 0.00036268233442271497
v -0.02690930306369133 -0.0067166845489289315 0.00036268233442271497
v -0.025933379547296912 -0.0069289837718982126 0.00036268233442271497
v -0.024937176147017407 -0.0070002333745308185 0.00036268233442271497
v -0.023940972746737902 -0.0069289837718982126 0.00036268233442271497
v -0.022965049230343485 -0.0067166845489289315 0.00036268233442271497
v -0.02202927063340088 -0.006367657638319036 0.00036268233442271497
v -0.021152691368325986 -0.005889008509613381 0.00036268233442271497
v -0.020353152296994196 -0.005290480733875614 0.00036268233442271497
v -0.019646927871251222 -0.004584258692318378 0.00036268233442271497
v -0.01904840069155989 -0.003784719322963371 0.00036268233442271497
v -0.018569751562854234 -0.0029081385677723896 0.00036268233442271497
v -0.01822072465224434 -0.0019723613119342624 0.00036268233442271497
v -0.018008424833228624 -0.0009964373485050195 0.00036268233442271497
v -0.017937174634549583 -2.3353320490122122e-07 0.00036268233442271497
v -0.031937176467392366 -2.3353320490122122e-07 0.00026268243202531865
v -0.017937174634549583 -2.3353320490122122e-07 0.00026268243202531865
v -0.018008424833228624 -0.0009964373485050195 0.00026268243202531865
v -0.01822072465224434 -0.0019723613119342624 0.00026268243202531865
v -0.018569751562854234 -0.0029081385677723896 0.00026268243202531865
v -0.01904840069155989 -0.003784719322963371 0.00026268243202531865
v -0.019646927871251222 -0.004584258692318378 0.00026268243202531865
v -0.020353152296994196 -0.005290480733875614 0.00026268243202531865
v -0.021152691368325986 -0.005889008509613381 0.00026268243202531865
v -0.02202927063340088 -0.006367657638319036 0.00026268243202531865
v -0.022965049230343485 -0.0067166845489289315 0.00026268243202531865
v -0.023940972746737902 -0.0069289837718982126 0.00026268243202531865
v -0.024937176147017407 -0.0070002333745308185 0.00026268243202531865
v -0.025933379547296912 -0.0069289837718982126 0.00026268243202531865
v -0.02690930306369133 -0.0067166845489289315 0.00026268243202531865
v -0.027845081660633934 -0.006367657638319036 0.00026268243202531865
v -0.02872166092570883 -0.005889008509613381 0.00026268243202531865
v -0.029521199997040618 -0.005290480733875614 0.00026268243202531865
v -0.030227422038597858 -0.004584258692318378 0.00026268243202531865
v -0.03082595041038206 -0.003784719322963371 0.00026268243202531865
v -0.031304599539087714 -0.0029081385677723896 0.00026268243202531865
v -0.03165362764179048 -0.0019723613119342624 0.00026268243202531865
v -0.031865925076620456 -0.0009964373485050195 0.00026268243202531865
v -0.017937174634549583 -2.3353320490122122e-07 0.00026268243202531865
v -0.018008424833228624 -0.0009964373485050195 0.00026268243202531865
v -0.01822072465224434 -0.0019723613119342624 0.00026268243202531865
v -0.018569751562854234 -0.0029081385677723896 0.00026268243202531865
v -0.01904840069155989 -0.003784719322963371 0.00026268243202531865
v -0.019646927871251222 -0.004584258692318378 0.00026268243202531865
v -0.020353152296994196 -0.005290480733875614 0.00026268243202531865
v -0.021152691368325986 -0.005889008509613381 0.00026268243202531865
v -0.02202927063340088 -0.006367657638319036 0.00026268243202531865
v -0.022965049230343485 -0.0067166845489289315 0.00026268243202531865
v -0.023940972746737902 -0.0069289837718982126 0.00026268243202531865
v -0.024937176147017407 -0.0070002333745308185 0.00026268243202531865
v -0.025933379547296912 -0.0069289837718982126 0.00026268243202531865
v -0.02690930306369133 -0.0067166845489289315 0.00026268243202531865
v -0.027845081660633934 -0.006367657638319036 0.00026268243202531865
v -0.02872166092570883 -0.005889008509613381 0.00026268243202531865
v -0.029521199997040618 -0.005290480733875614 0.00026268243202531865
v -0.030227422038597858 -0.004584258692318378 0.00026268243202531865
v -0.03082595041038206 -0.003784719322963371 0.00026268243202531865
v -0.031304599539087714 -0.0029081385677723896 0.00026268243202531865
v -0.03165362764179048 -0.0019723613119342624 0.00026268243202531865
v -0.031865925076620456 -0.0009964373485050195 0.00026268243202531865
v -0.031937176467392366 -2.3353320490122122e-07 0.00026268243202531865
v -0.031865925076620456 0.0009959703461236427 0.00026268243202531865
v -0.03165362764179048 0.0019718943095528856 0.00026268243202531865
v -0.031304599539087714 0.0029076712673677956 0.00026268243202531865
v -0.03082595041038206 0.003784252022558777 0.00026268243202531865
v -0.030227422038597858 0.004583791391913784 0.00026268243202531865
v -0.029521199997040618 0.00529001343347102 0.00026268243202531865
v -0.02872166092570883 0.005888541209208787 0.00026268243202531865
v -0.027845081660633934 0.006367190337914442 0.00026268243202531865
v -0.02690930306369133 0.006716217248524337 0.00026268243202531865
v -0.025933379547296912 0.0069285164714936185 0.00026268243202531865
v -0.024937176147017407 0.006999766074126224 0.00026268243202531865
v -0.023940972746737902 0.0069285164714936185 0.00026268243202531865
v -0.022965049230343485 0.006716217248524337 0.00026268243202531865
v -0.02202927063340088 0.006367190337914442 0.00026268243202531865
v -0.021152691368325986 0.005888541209208787 0.00026268243202531865
v -0.020353152296994196 0.00529001343347102 0.00026268243202531865
v -0.019646927871251222 0.004583791391913784 0.00026268243202531865
v -0.01904840069155989 0.003784252022558777 0.00026268243202531865
v -0.018569751562854234 0.0029076712673677956 0.00026268243202531865
v -0.01822072465224434 0.0019718943095528856 0.00026268243202531865
v -0.018008424833228624 0.0009959703461236427 0.00026268243202531865
v 0.003562824050422964 -2.3353320490122122e-07 0.00026268243202531865
v 0.0034210496376220205 -0.0009862974065624754 0.00026268243202531865
v 0.0030072116179642454 -0.0018924763375712255 0.00026268243202531865
v 0.0023548367093167437 -0.0026453571920389556 0.00026268243202531865
v 0.0015167766470437496 -0.0031839456442606666 0.00026268243202531865
v 0.0005609261119158688 -0.003464608711050255 0.00026268243202531865
v -0.0004352777353984622 -0.003464608711050255 0.00026268243202531865
v -0.001391128270526343 -0.0031839456442606666 0.00026268243202531865
v -0.002229188332799337 -0.0026453571920389556 0.00026268243202531865
v -0.002881563241446839 -0.0018924763375712255 0.00026268243202531865
v -0.003295401261104614 -0.0009862974065624754 0.00026268243202531865
v -0.0034371756739055574 -2.3353320490122122e-07 0.00026268243202531865
v -0.003295401261104614 0.0009858304041810986 0.00026268243202531865
v -0.002881563241446839 0.0018920093351898486 0.00026268243202531865
v -0.002229188332799337 0.0026448898916343615 0.00026268243202531865
v -0.001391128270526343 0.0031834783438560725 0.00026268243202531865
v -0.0004352777353984622 0.0034641414106456607 0.00026268243202531865
v 0.0005609261119158688 0.0034641414106456607 0.00026268243202531865
v 0.0015167766470437496 0.0031834783438560725 0.00026268243202531865
v 0.0023548367093167437 0.0026448898916343615 0.00026268243202531865
v 0.0030072116179642454 0.0018920093351898486 0.00026268243202531865
v 0.0034210496376220205 0.0009858304041810986 0.00026268243202531865
v 0.015562823662992779 -2.3353320490122122e-07 0.00026268243202531865
v 0.015464487922240314 -0.0009358361154235274 0.00026268243202531865
v 0.01517377819477517 -0.0018305483051266893 0.00026268243202531865
v 0.01470340099848655 -0.0026452671890273565 0.00026268243202531865
v 0.014073911590712253 -0.003344385251155824 0.00026268243202531865
v 0.013312824666958491 -0.003897347959190279 0.00026268243202531865
v 0.012453400810359396 -0.004279988014400272 0.00026268243202531865
v 0.011533202867212823 -0.004475582141974966 0.00026268243202531865
v 0.01059244609044985 -0.004475582141974966 0.00026268243202531865
v 0.009672247551256842 -0.004279988014400272 0.00026268243202531865
v 0.008812824290704182 -0.003897347959190279 0.00026268243202531865
v 0.008051736770903985 -0.003344385251155824 0.00026268243202531865
v 0.007422247959176121 -0.0026452671890273565 0.00026268243202531865
v 0.006951869570794634 -0.0018305483051266893 0.00026268243202531865
v 0.00666115984332949 -0.0009358361154235274 0.00026268243202531865
v 0.006562824102577026 -2.3353320490122122e-07 0.00026268243202531865
v 0.00666115984332949 0.0009353691130421505 0.00026268243202531865
v 0.006951869570794634 0.0018300813027453124 0.00026268243202531865
v 0.007422247959176121 0.0026447998886227624 0.00026268243202531865
v 0.008051736770903985 0.00334391795075123 0.00026268243202531865
v 0.008812824290704182 0.003896880658785685 0.00026268243202531865
v 0.009672247551256842 0.004279520713995678 0.00026268243202531865
v 0.01059244609044985 0.004475114841570372 0.00026268243202531865
v 0.011533202867212823 0.004475114841570372 0.00026268243202531865
v 0.012453400810359396 0.004279520713995678 0.00026268243202531865
v 0.013312824666958491 0.003896880658785685 0.00026268243202531865
v 0.014073911590712253 0.00334391795075123 0.00026268243202531865
v 0.01470340099848655 0.0026447998886227624 0.00026268243202531865
v 0.01517377819477517 0.0018300813027453124 0.00026268243202531865
v 0.015464487922240314 0.0009353691130421505 0.00026268243202531865
v 0.03206282305577047 -2.3353320490122122e-07 0.00026268243202531865
v 0.03199157166499856 -0.0009964373485050195 0.00026268243202531865
v 0.03177927423016858 -0.0019723613119342624 0.00026268243202531865
v 0.03143024612746582 -0.0029081385677723896 0.00026268243202531865
v 0.030951596998760163 -0.003784719322963371 0.00026268243202531865
v 0.03035306862697596 -0.004584258692318378 0.00026268243202531865
v 0.02964684658541872 -0.005290480733875614 0.00026268243202531865
v 0.028847307514086932 -0.005889008509613381 0.00026268243202531865
v 0.027970728249012037 -0.006367657638319036 0.00026268243202531865
v 0.027034949652069432 -0.0067166845489289315 0.00026268243202531865
v 0.026059026135675015 -0.0069289837718982126 0.00026268243202531865
v 0.02506282273539551 -0.0070002333745308185 0.00026268243202531865
v 0.024066619335116005 -0.0069289837718982126 0.00026268243202531865
v 0.02309069581872159 -0.0067166845489289315 0.00026268243202531865
v 0.022154917221778984 -0.006367657638319036 0.00026268243202531865
v 0.02127833795670409 -0.005889008509613381 0.00026268243202531865
v 0.0204787988853723 -0.005290480733875614 0.00026268243202531865
v 0.019772576843815063 -0.004584258692318378 0.00026268243202531865
v 0.01917404966412373 -0.003784719322963371 0.00026268243202531865
v 0.018695400535418075 -0.0029081385677723896 0.00026268243202531865
v 0.01834637362480818 -0.0019723613119342624 0.00026268243202531865
v 0.018134073805792465 -0.0009964373485050195 0.00026268243202531865
v 0.018062823607113424 -2.3353320490122122e-07 0.00026268243202531865
v 0.018134073805792465 0.0009959703461236427 0.00026268243202531865
v 0.01834637362480818 0.0019718943095528856 0.00026268243202531865
v 0.018695400535418075 0.0029076712673677956 0.00026268243202531865
v 0.01917404966412373 0.003784252022558777 0.00026268243202531865
v 0.019772576843815063 0.004583791391913784 0.00026268243202531865
v 0.0204787988853723 0.00529001343347102 0.00026268243202531865
v 0.02127833795670409 0.005888541209208787 0.00026268243202531865
v 0.022154917221778984 0.006367190337914442 0.00026268243202531865
v 0.02309069581872159 0.006716217248524337 0.00026268243202531865
v 0.024066619335116005 0.0069285164714936185 0.00026268243202531865
v 0.02506282273539551 0.006999766074126224 0.00026268243202531865
v 0.026059026135675015 0.0069285164714936185 0.00026268243202531865
v 0.027034949652069432 0.006716217248524337 0.00026268243202531865
v 0.027970728249012037 0.006367190337914442 0.00026268243202531865
v 0.028847307514086932 0.005888541209208787 0.00026268243202531865
v 0.02964684658541872 0.00529001343347102 0.00026268243202531865
v 0.03035306862697596 0.004583791391913784 0.00026268243202531865
v 0.030951596998760163 0.003784252022558777 0.00026268243202531865
v 0.03143024612746582 0.0029076712673677956 0.00026268243202531865
v 0.03177927423016858 0.0019718943095528856 0.00026268243202531865
v 0.03199157166499856 0.0009959703461236427 0.00026268243202531865
v -0.009637175583008474 -0.001200233447546509 0.00026268243202531865
v -0.009285703689924542 -0.002048761649830006 0.00026268243202531865
v -0.00843717556214685 -0.0024002333939023295 0.00026268243202531865
v -0.007588647434369157 -0.002048761649830006 0.00026268243202531865
v -0.007237175541285224 -0.001200233447546509 0.00026268243202531865
v -0.007237175541285224 0.0006997664861433246 0.00026268243202531865
v -0.007588647434369157 0.0015482945394152128 0.00026268243202531865
v -0.00843717556214685 0.0018997664324991452 0.00026268243202531865
v -0.009285703689924542 0.0015482945394152128 0.00026268243202531865
v -0.009637175583008474 0.0006997664861433246 0.00026268243202531865
v 0.003562824050422964 -2.3353320490122122e-07 0.00036268233442271497
v 0.0034210496376220205 0.0009858304041810986 0.00036268233442271497
v 0.0030072116179642454 0.0018920093351898486 0.00036268233442271497
v 0.0023548367093167437 0.0026448898916343615 0.00036268233442271497
v 0.0015167766470437496 0.0031834783438560725 0.00036268233442271497
v 0.0005609261119158688 0.0034641414106456607 0.00036268233442271497
v -0.0004352777353984622 0.0034641414106456607 0.00036268233442271497
v -0.001391128270526343 0.0031834783438560725 0.00036268233442271497
v -0.002229188332799337 0.0026448898916343615 0.00036268233442271497
v -0.002881563241446839 0.0018920093351898486 0.00036268233442271497
v -0.003295401261104614 0.0009858304041810986 0.00036268233442271497
v -0.0034371756739055574 -2.3353320490122122e-07 0.00036268233442271497
v 0.003562824050422964 -2.3353320490122122e-07 0.00026268243202531865
v -0.0034371756739055574 -2.3353320490122122e-07 0.00026268243202531865
v -0.003295401261104614 0.0009858304041810986 0.00026268243202531865
v -0.002881563241446839 0.0018920093351898486 0.00026268243202531865
v -0.002229188332799337 0.0026448898916343615 0.00026268243202531865
v -0.001391128270526343 0.0031834783438560725 0.00026268243202531865
v -0.0004352777353984622 0.0034641414106456607 0.00026268243202531865
v 0.0005609261119158688 0.0034641414106456607 0.00026268243202531865
v 0.0015167766470437496 0.0031834783438560725 0.00026268243202531865
v 0.0023548367093167437 0.0026448898916343615 0.00026268243202531865
v 0.0030072116179642454 0.0018920093351898486 0.00026268243202531865
v 0.0034210496376220205 0.0009858304041810986 0.00026268243202531865
v -0.0034371756739055574 -2.3353320490122122e-07 0.00036268233442271497
v -0.003295401261104614 -0.0009862974065624754 0.00036268233442271497
v -0.002881563241446839 -0.0018924763375712255 0.00036268233442271497
v -0.002229188332799337 -0.0026453571920389556 0.00036268233442271497
v -0.001391128270526343 -0.0031839456442606666 0.00036268233442271497
v -0.0004352777353984622 -0.003464608711050255 0.00036268233442271497
v 0.0005609261119158688 -0.003464608711050255 0.00036268233442271497
v 0.0015167766470437496 -0.0031839456442606666 0.00036268233442271497
v 0.0023548367093167437 -0.0026453571920389556 0.00036268233442271497
v 0.0030072116179642454 -0.0018924763375712255 0.00036268233442271497
v 0.0034210496376220205 -0.0009862974065624754 0.00036268233442271497
v 0.003562824050422964 -2.3353320490122122e-07 0.00036268233442271497
v -0.0034371756739055574 -2.3353320490122122e-07 0.00026268243202531865
v 0.003562824050422964 -2.3353320490122122e-07 0.00026268243202531865
v 0.0034210496376220205 -0.0009862974065624754 0.00026268243202531865
v 0.0030072116179642454 -0.0018924763375712255 0.00026268243202531865
v 0.0023548367093167437 -0.0026453571920389556 0.00026268243202531865
v 0.0015167766470437496 -0.0031839456442606666 0.00026268243202531865
v 0.0005609261119158688 -0.003464608711050255 0.00026268243202531865
v -0.0004352777353984622 -0.003464608711050255 0.00026268243202531865
v -0.001391128270526343 -0.0031839456442606666 0.00026268243202531865
v -0.002229188332799337 -0.0026453571920389556 0.00026268243202531865
v -0.002881563241446839 -0.0018924763375712255 0.00026268243202531865
v -0.003295401261104614 -0.0009862974065624754 0.00026268243202531865
v 0.015562823662992779 -2.3353320490122122e-07 0.00036268233442271497
v 0.015464487922240314 0.0009353691130421505 0.00036268233442271497
v 0.01517377819477517 0.0018300813027453124 0.00036268233442271497
v 0.01470340099848655 0.0026447998886227624 0.00036268233442271497
v 0.014073911590712253 0.00334391795075123 0.00036268233442271497
v 0.013312824666958491 0.003896880658785685 0.00036268233442271497
v 0.012453400810359396 0.004279520713995678 0.00036268233442271497
v 0.011533202867212823 0.004475114841570372 0.00036268233442271497
v 0.01059244609044985 0.004475114841570372 0.00036268233442271497
v 0.009672247551256842 0.004279520713995678 0.00036268233442271497
v 0.008812824290704182 0.003896880658785685 0.00036268233442271497
v 0.008051736770903985 0.00334391795075123 0.00036268233442271497
v 0.007422247959176121 0.0026447998886227624 0.00036268233442271497
v 0.006951869570794634 0.0018300813027453124 0.00036268233442271497
v 0.00666115984332949 0.0009353691130421505 0.00036268233442271497
v 0.006562824102577026 -2.3353320490122122e-07 0.00036268233442271497
v 0.015562823662992779 -2.3353320490122122e-07 0.00026268243202531865
v 0.006562824102577026 -2.3353320490122122e-07 0.00026268243202531865
v 0.00666115984332949 0.0009353691130421505 0.00026268243202531865
v 0.006951869570794634 0.0018300813027453124 0.00026268243202531865
v 0.007422247959176121 0.0026447998886227624 0.00026268243202531865
v 0.008051736770903985 0.00334391795075123 0.00026268243202531865
v 0.008812824290704182 0.003896880658785685 0.00026268243202531865
v 0.009672247551256842 0.004279520713995678 0.00026268243202531865
v 0.01059244609044985 0.004475114841570372 0.00026268243202531865
v 0.011533202867212823 0.004475114841570372 0.00026268243202531865
v 0.012453400810359396 0.004279520713995678 0.00026268243202531865
v 0.013312824666958491 0.003896880658785685 0.00026268243202531865
v 0.014073911590712253 0.00334391795075123 0.00026268243202531865
v 0.01470340099848655 0.0026447998886227624 0.00026268243202531865
v 0.01517377819477517 0.0018300813027453124 0.00026268243202531865
v 0.015464487922240314 0.0009353691130421505 0.00026268243202531865
v 0.006562824102577026 -2.3353320490122122e-07 0.00036268233442271497
v 0.00666115984332949 -0.0009358361154235274 0.00036268233442271497
v 0.006951869570794634 -0.0018305483051266893 0.00036268233442271497
v 0.007422247959176121 -0.0026452671890273565 0.00036268233442271497
v 0.008051736770903985 -0.003344385251155824 0.00036268233442271497
v 0.008812824290704182 -0.003897347959190279 0.00036268233442271497
v 0.009672247551256842 -0.004279988014400272 0.00036268233442271497
v 0.01059244609044985 -0.004475582141974966 0.00036268233442271497
v 0.011533202867212823 -0.004475582141974966 0.00036268233442271497
v 0.012453400810359396 -0.004279988014400272 0.00036268233442271497
v 0.013312824666958491 -0.003897347959190279 0.00036268233442271497
v 0.014073911590712253 -0.003344385251155824 0.00036268233442271497
v 0.01470340099848655 -0.0026452671890273565 0.00036268233442271497
v 0.01517377819477517 -0.0018305483051266893 0.00036268233442271497
v 0.015464487922240314 -0.0009358361154235274 0.00036268233442271497
v 0.015562823662992779 -2.3353320490122122e-07 0.00036268233442271497
v 0.006562824102577026 -2.3353320490122122e-07 0.00026268243202531865
v 0.015562823662992779 -2.3353320490122122e-07 0.00026268243202531865
v 0.015464487922240314 -0.0009358361154235274 0.00026268243202531865
v 0.01517377819477517 -0.0018305483051266893 0.00026268243202531865
v 0.01470340099848655 -0.0026452671890273565 0.00026268243202531865
v 0.014073911590712253 -0.003344385251155824 0.00026268243202531865
v 0.013312824666958491 -0.003897347959190279 0.00026268243202531865
v 0.012453400810359396 -0.004279988014400272 0.00026268243202531865
v 0.011533202867212823 -0.004475582141974966 0.00026268243202531865
v 0.01059244609044985 -0.004475582141974966 0.00026268243202531865
v 0.009672247551256842 -0.004279988014400272 0.00026268243202531865
v 0.008812824290704182 -0.003897347959190279 0.00026268243202531865
v 0.008051736770903985 -0.003344385251155824 0.00026268243202531865
v 0.007422247959176121 -0.0026452671890273565 0.00026268243202531865
v 0.006951869570794634 -0.0018305483051266893 0.00026268243202531865
v 0.00666115984332949 -0.0009358361154235274 0.00026268243202531865
v 0.03206282305577047 -2.3353320490122122e-07 0.00036268233442271497
v 0.03199157166499856 0.0009959703461236427 0.00036268233442271497
v 0.03177927423016858 0.0019718943095528856 0.00036268233442271497
v 0.03143024612746582 0.0029076712673677956 0.00036268233442271497
v 0.030951596998760163 0.003784252022558777 0.00036268233442271497
v 0.03035306862697596 0.004583791391913784 0.00036268233442271497
v 0.02964684658541872 0.00529001343347102 0.00036268233442271497
v 0.028847307514086932 0.005888541209208787 0.00036268233442271497
v 0.027970728249012037 0.006367190337914442 0.00036268233442271497
v 0.027034949652069432 0.006716217248524337 0.00036268233442271497
v 0.026059026135675015 0.0069285164714936185 0.00036268233442271497
v 0.02506282273539551 0.006999766074126224 0.00036268233442271497
v 0.024066619335116005 0.0069285164714936185 0.00036268233442271497
v 0.02309069581872159 0.006716217248524337 0.00036268233442271497
v 0.022154917221778984 0.006367190337914442 0.00036268233442271497
v 0.02127833795670409 0.005888541209208787 0.00036268233442271497
v 0.0204787988853723 0.00529001343347102 0.00036268233442271497
v 0.019772576843815063 0.004583791391913784 0.00036268233442271497
v 0.01917404966412373 0.003784252022558777 0.00036268233442271497
v 0.018695400535418075 0.0029076712673677956 0.00036268233442271497
v 0.01834637362480818 0.0019718943095528856 0.00036268233442271497
v 0.018134073805792465 0.0009959703461236427 0.00036268233442271497
v 0.018062823607113424 -2.3353320490122122e-07 0.00036268233442271497
v 0.03206282305577047 -2.3353320490122122e-07 0.00026268243202531865
v 0.018062823607113424 -2.3353320490122122e-07 0.00026268243202531865
v 0.018134073805792465 0.0009959703461236427 0.00026268243202531865
v 0.01834637362480818 0.0019718943095528856 0.00026268243202531865
v 0.018695400535418075 0.0029076712673677956 0.00026268243202531865
v 0.01917404966412373 0.003784252022558777 0.00026268243202531865
v 0.019772576843815063 0.004583791391913784 0.00026268243202531865
v 0.0204787988853723 0.00529001343347102 0.00026268243202531865
v 0.02127833795670409 0.005888541209208787 0.00026268243202531865
v 0.022154917221778984 0.006367190337914442 0.00026268243202531865
v 0.02309069581872159 0.006716217248524337 0.00026268243202531865
v 0.024066619335116005 0.0069285164714936185 0.00026268243202531865
v 0.02506282273539551 0.006999766074126224 0.00026268243202531865
v 0.026059026135675015 0.0069285164714936185 0.00026268243202531865
v 0.027034949652069432 0.006716217248524337 0.00026268243202531865
v 0.027970728249012037 0.006367190337914442 0.00026268243202531865
v 0.028847307514086932 0.005888541209208787 0.00026268243202531865
v 0.02964684658541872 0.00529001343347102 0.00026268243202531865
v 0.03035306862697596 0.004583791391913784 0.00026268243202531865
v 0.030951596998760163 0.003784252022558777 0.00026268243202531865
v 0.03143024612746582 0.0029076712673677956 0.00026268243202531865
v 0.03177927423016858 0.0019718943095528856 0.00026268243202531865
v 0.03199157166499856 0.0009959703461236427 0.00026268243202531865
v 0.018062823607113424 -2.3353320490122122e-07 0.00036268233442271497
v 0.018134073805792465 -0.0009964373485050195 0.00036268233442271497
v 0.01834637362480818 -0.0019723613119342624 0.00036268233442271497
v 0.018695400535418075 -0.0029081385677723896 0.00036268233442271497
v 0.01917404966412373 -0.003784719322963371 0.00036268233442271497
v 0.019772576843815063 -0.004584258692318378 0.00036268233442271497
v 0.0204787988853723 -0.005290480733875614 0.00036268233442271497
v 0.02127833795670409 -0.005889008509613381 0.00036268233442271497
v 0.022154917221778984 -0.006367657638319036 0.00036268233442271497
v 0.02309069581872159 -0.0067166845489289315 0.00036268233442271497
v 0.024066619335116005 -0.0069289837718982126 0.00036268233442271497
v 0.02506282273539551 -0.0070002333745308185 0.00036268233442271497
v 0.026059026135675015 -0.0069289837718982126 0.00036268233442271497
v 0.027034949652069432 -0.0067166845489289315 0.00036268233442271497
v 0.027970728249012037 -0.006367657638319036 0.00036268233442271497
v 0.028847307514086932 -0.005889008509613381 0.00036268233442271497
v 0.02964684658541872 -0.005290480733875614 0.00036268233442271497
v 0.03035306862697596 -0.004584258692318378 0.00036268233442271497
v 0.030951596998760163 -0.003784719322963371 0.00036268233442271497
v 0.03143024612746582 -0.0029081385677723896 0.00036268233442271497
v 0.03177927423016858 -0.0019723613119342624 0.00036268233442271497
v 0.03199157166499856 -0.0009964373485050195 0.00036268233442271497
v 0.03206282305577047 -2.3353320490122122e-07 0.00036268233442271497
v 0.018062823607113424 -2.3353320490122122e-07 0.00026268243202531865
v 0.03206282305577047 -2.3353320490122122e-07 0.00026268243202531865
v 0.03199157166499856 -0.0009964373485050195 0.00026268243202531865
v 0.03177927423016858 -0.0019723613119342624 0.00026268243202531865
v 0.03143024612746582 -0.0029081385677723896 0.00026268243202531865
v 0.030951596998760163 -0.003784719322963371 0.00026268243202531865
v 0.03035306862697596 -0.004584258692318378 0.00026268243202531865
v 0.02964684658541872 -0.005290480733875614 0.00026268243202531865
v 0.028847307514086932 -0.005889008509613381 0.00026268243202531865
v 0.027970728249012037 -0.006367657638319036 0.00026268243202531865
v 0.027034949652069432 -0.0067166845489289315 0.00026268243202531865
v 0.026059026135675015 -0.0069289837718982126 0.00026268243202531865
v 0.02506282273539551 -0.0070002333745308185 0.00026268243202531865
v 0.024066619335116005 -0.0069289837718982126 0.00026268243202531865
v 0.02309069581872159 -0.0067166845489289315 0.00026268243202531865
v 0.022154917221778984 -0.006367657638319036 0.00026268243202531865
v 0.02127833795670409 -0.005889008509613381 0.00026268243202531865
v 0.0204787988853723 -0.005290480733875614 0.00026268243202531865
v 0.019772576843815063 -0.004584258692318378 0.00026268243202531865
v 0.01917404966412373 -0.003784719322963371 0.00026268243202531865
v 0.018695400535418075 -0.0029081385677723896 0.00026268243202531865
v 0.01834637362480818 -0.0019723613119342624 0.00026268243202531865
v 0.018134073805792465 -0.0009964373485050195 0.00026268243202531865
v -0.009637175583008474 0.0006997664861433246 0.00036268233442271497
v -0.009637175583008474 -0.001200233447546509 0.00036268233442271497
v -0.009637175583008474 0.0006997664861433246 0.00026268243202531865
v -0.009637175583008474 -0.001200233447546509 0.00026268243202531865
v -0.007237175541285224 0.0006997664861433246 0.00036268233442271497
v -0.007588647434369157 0.0015482945394152128 0.00036268233442271497
v -0.00843717556214685 0.0018997664324991452 0.00036268233442271497
v -0.009285703689924542 0.0015482945394152128 0.00036268233442271497
v -0.009637175583008474 0.0006997664861433246 0.00036268233442271497
v -0.007237175541285224 0.0006997664861433246 0.00026268243202531865
v -0.007588647434369157 0.0015482945394152128 0.00026268243202531865
v -0.00843717556214685 0.0018997664324991452 0.00026268243202531865
v -0.009285703689924542 0.0015482945394152128 0.00026268243202531865
v -0.009637175583008474 0.0006997664861433246 0.00026268243202531865
v -0.007237175541285224 -0.001200233447546509 0.00036268233442271497
v -0.007237175541285224 0.0006997664861433246 0.00036268233442271497
v -0.007237175541285224 -0.001200233447546509 0.00026268243202531865
v -0.007237175541285224 0.0006997664861433246 0.00026268243202531865
v -0.009637175583008474 -0.001200233447546509 0.00036268233442271497
v -0.009285703689924542 -0.002048761649830006 0.00036268233442271497
v -0.00843717556214685 -0.0024002333939023295 0.00036268233442271497
v -0.007588647434369157 -0.002048761649830006 0.00036268233442271497
v -0.007237175541285224 -0.001200233447546509 0.00036268233442271497
v -0.009637175583008474 -0.001200233447546509 0.00026268243202531865
v -0.009285703689924542 -0.002048761649830006 0.00026268243202531865
v -0.00843717556214685 -0.0024002333939023295 0.00026268243202531865
v -0.007588647434369157 -0.002048761649830006 0.00026268243202531865
v -0.007237175541285224 -0.001200233447546509 0.00026268243202531865
usemtl front_cover
f 70 29 30
f 71 70 30
f 71 30 31
f 69 29 70
f 69 28 29
f 72 31 32
f 72 71 31
f 73 32 33
f 73 72 32
f 68 25 26
f 68 26 27
f 68 27 28
f 68 28 69
f 74 73 33
f 67 22 23
f 67 23 24
f 67 24 25
f 67 25 68
f 66 18 19
f 66 19 20
f 66 20 21
f 66 21 22
f 66 22 67
f 75 74 33
f 65 15 16
f 65 16 17
f 65 17 18
f 65 18 66
f 76 75 33
f 77 76 33
f 108 12 13
f 108 13 14
f 108 14 15
f 108 15 65
f 78 77 33
f 107 9 10
f 107 10 11
f 107 11 12
f 107 12 108
f 8 9 107
f 79 78 33
f 106 8 107
f 7 8 106
f 6 106 105
f 6 7 106
f 5 105 104
f 5 6 105
f 4 104 103
f 4 5 104
f 3 102 101
f 3 103 102
f 3 4 103
f 1 3 101
f 1 99 98
f 1 100 99
f 1 101 100
f 97 1 98
f 96 1 97
f 95 1 96
f 212 83 82
f 212 84 83
f 212 85 84
f 211 85 212
f 211 86 85
f 211 87 86
f 213 212 82
f 213 81 80
f 213 82 81
f 209 88 87
f 209 89 88
f 209 87 211
f 208 89 209
f 208 90 89
f 208 91 90
f 208 92 91
f 207 92 208
f 207 93 92
f 207 94 93
f 112 214 213
f 111 210 214
f 111 214 112
f 113 112 213
f 110 210 111
f 114 79 33
f 114 213 80
f 114 80 79
f 114 113 213
f 109 205 210
f 109 210 110
f 130 206 205
f 130 205 109
f 129 206 130
f 128 206 129
f 128 207 206
f 127 207 128
f 127 94 207
f 126 94 127
f 126 1 95
f 126 95 94
f 135 117 116
f 134 118 117
f 134 117 135
f 136 116 115
f 136 135 116
f 133 119 118
f 133 118 134
f 137 136 115
f 132 120 119
f 132 119 133
f 138 137 115
f 138 115 114
f 138 114 33
f 131 120 132
f 160 121 120
f 160 120 131
f 159 122 121
f 159 121 160
f 158 123 122
f 158 122 159
f 157 124 123
f 157 123 158
f 156 125 124
f 156 124 157
f 155 125 156
f 154 125 155
f 166 142 141
f 167 141 140
f 167 166 141
f 168 140 139
f 168 167 140
f 165 143 142
f 165 142 166
f 164 144 143
f 164 143 165
f 169 168 139
f 163 145 144
f 163 144 164
f 162 146 145
f 162 145 163
f 34 139 138
f 34 138 33
f 34 170 169
f 34 171 170
f 34 169 139
f 161 146 162
f 172 171 34
f 173 172 34
f 204 147 146
f 204 146 161
f 174 173 34
f 203 147 204
f 203 148 147
f 175 174 34
f 175 34 35
f 202 149 148
f 202 148 203
f 176 175 35
f 201 149 202
f 201 150 149
f 177 176 35
f 177 35 36
f 200 150 201
f 200 151 150
f 178 36 37
f 178 177 36
f 199 151 200
f 199 152 151
f 179 178 37
f 179 37 38
f 198 152 199
f 198 153 152
f 180 38 39
f 180 179 38
f 197 153 198
f 40 180 39
f 181 180 40
f 41 181 40
f 42 181 41
f 43 181 42
f 44 181 43
f 44 182 181
f 2 153 197
f 2 154 153
f 2 192 191
f 2 193 192
f 2 194 193
f 2 195 194
f 2 196 195
f 2 197 196
f 45 182 44
f 46 182 45
f 64 2 191
f 64 191 190
f 47 182 46
f 47 183 182
f 63 64 190
f 63 190 189
f 48 183 47
f 62 63 189
f 62 189 188
f 49 183 48
f 61 62 188
f 61 188 187
f 50 183 49
f 50 184 183
f 60 61 187
f 60 187 186
f 51 184 50
f 59 60 186
f 52 184 51
f 58 59 186
f 53 184 52
f 57 58 186
f 57 186 185
f 54 184 53
f 54 185 184
f 56 57 185
f 55 185 54
f 55 56 185
f 2 1 154
f 154 1 125
f 125 1 126
f 249 216 215
f 249 215 217
f 250 217 218
f 250 249 217
f 251 218 219
f 251 250 218
f 252 219 220
f 252 251 219
f 253 220 221
f 253 252 220
f 254 221 222
f 254 253 221
f 255 222 223
f 255 254 222
f 256 223 224
f 256 255 223
f 257 256 224
f 257 224 225
f 258 257 225
f 258 225 226
f 259 258 226
f 259 226 227
f 260 227 228
f 260 259 227
f 261 228 229
f 261 260 228
f 262 229 230
f 262 261 229
f 263 230 231
f 263 262 230
f 264 231 232
f 264 263 231
f 265 232 233
f 265 264 232
f 266 233 234
f 266 265 233
f 235 266 234
f 267 266 235
f 268 235 236
f 268 267 235
f 269 236 237
f 269 268 236
f 270 237 238
f 270 269 237
f 271 238 239
f 271 270 238
f 272 239 240
f 272 271 239
f 273 240 241
f 273 272 240
f 274 241 242
f 274 273 241
f 243 274 242
f 275 274 243
f 276 243 244
f 276 275 243
f 245 276 244
f 277 276 245
f 246 277 245
f 278 277 246
f 247 278 246
f 248 278 247
f 280 281 279
f 280 282 281
f 317 284 283
f 317 283 285
f 318 285 286
f 318 317 285
f 319 286 287
f 319 318 286
f 320 287 288
f 320 319 287
f 321 288 289
f 321 320 288
f 322 289 290
f 322 321 289
f 323 290 291
f 323 322 290
f 324 291 292
f 324 323 291
f 325 324 292
f 325 292 293
f 326 325 293
f 326 293 294
f 327 326 294
f 327 294 295
f 328 295 296
f 328 327 295
f 329 296 297
f 329 328 296
f 330 297 298
f 330 329 297
f 331 298 299
f 331 330 298
f 332 299 300
f 332 331 299
f 333 300 301
f 333 332 300
f 334 301 302
f 334 333 301
f 335 302 303
f 335 334 302
f 336 303 304
f 336 335 303
f 337 304 305
f 337 336 304
f 338 305 306
f 338 337 305
f 339 306 307
f 339 338 306
f 340 307 308
f 340 339 307
f 341 308 309
f 341 340 308
f 342 309 310
f 342 341 309
f 343 310 311
f 343 342 310
f 344 311 312
f 344 343 311
f 313 344 312
f 345 344 313
f 314 345 313
f 346 345 314
f 316 314 315
f 316 346 314
f 350 349 347
f 348 350 347
f 394 392 391
f 394 393 392
f 395 394 391
f 396 391 390
f 396 395 391
f 397 390 389
f 397 396 390
f 398 397 389
f 399 398 389
f 406 404 403
f 406 405 404
f 407 402 401
f 407 403 402
f 407 406 403
f 408 407 401
f 408 401 400
f 409 389 388
f 409 400 399
f 409 399 389
f 409 408 400
f 410 409 388
f 410 388 387
f 411 410 387
f 411 387 386
f 412 411 386
f 413 412 386
f 413 386 385
f 414 413 385
f 414 385 351
f 384 414 351
f 352 384 351
f 373 375 374
f 353 384 352
f 353 352 383
f 372 376 375
f 372 375 373
f 371 377 376
f 371 376 372
f 370 377 371
f 354 383 382
f 354 353 383
f 369 378 377
f 369 377 370
f 355 382 381
f 355 354 382
f 368 378 369
f 356 380 379
f 356 381 380
f 356 355 381
f 357 379 378
f 357 356 379
f 358 367 366
f 358 368 367
f 358 378 368
f 358 357 378
f 359 366 365
f 359 358 366
f 360 364 363
f 360 365 364
f 360 359 365
f 361 363 362
f 361 360 363
f 416 438 415
f 416 460 438
f 417 459 460
f 417 460 416
f 418 458 459
f 418 459 417
f 419 457 458
f 419 458 418
f 420 456 457
f 420 457 419
f 421 455 456
f 421 456 420
f 422 454 455
f 422 455 421
f 423 453 454
f 423 454 422
f 424 452 453
f 424 453 423
f 425 451 452
f 425 452 424
f 426 450 451
f 426 451 425
f 427 449 450
f 427 450 426
f 428 449 427
f 428 448 449
f 429 448 428
f 429 447 448
f 430 447 429
f 430 446 447
f 431 446 430
f 431 445 446
f 432 445 431
f 432 444 445
f 433 444 432
f 433 443 444
f 434 442 443
f 434 443 433
f 435 441 442
f 435 442 434
f 436 440 441
f 436 441 435
f 437 439 440
f 437 440 436
f 462 484 461
f 462 506 484
f 463 505 506
f 463 506 462
f 464 504 505
f 464 505 463
f 465 503 504
f 465 504 464
f 466 502 503
f 466 503 465
f 467 501 502
f 467 502 466
f 468 500 501
f 468 501 467
f 469 499 500
f 469 500 468
f 470 498 499
f 470 499 469
f 471 497 498
f 471 498 470
f 472 496 497
f 472 497 471
f 473 495 496
f 473 496 472
f 474 495 473
f 474 494 495
f 475 494 474
f 475 493 494
f 476 493 475
f 476 492 493
f 477 492 476
f 477 491 492
f 478 491 477
f 478 490 491
f 479 490 478
f 479 489 490
f 480 488 489
f 480 489 479
f 481 487 488
f 481 488 480
f 482 486 487
f 482 487 481
f 483 485 486
f 483 486 482
f 526 524 523
f 526 525 524
f 531 527 526
f 531 528 527
f 531 529 528
f 531 530 529
f 513 515 514
f 513 516 515
f 513 517 516
f 513 518 517
f 534 532 531
f 534 533 532
f 511 513 512
f 508 510 509
f 508 511 510
f 507 511 508
f 507 519 518
f 507 520 519
f 507 521 520
f 507 513 511
f 507 518 513
f 540 539 538
f 543 541 540
f 543 542 541
f 547 522 521
f 547 523 522
f 547 549 548
f 547 550 549
f 547 507 550
f 547 526 523
f 547 521 507
f 546 543 540
f 546 540 538
f 546 535 534
f 546 536 535
f 546 526 547
f 546 537 536
f 546 538 537
f 546 544 543
f 546 545 544
f 546 531 526
f 546 534 531
f 554 556 555
f 570 552 551
f 570 553 552
f 570 554 553
f 570 557 556
f 570 558 557
f 570 559 558
f 570 560 559
f 570 561 560
f 570 562 561
f 570 563 562
f 570 564 563
f 570 565 564
f 570 566 565
f 570 567 566
f 570 568 567
f 570 569 568
f 570 572 571
f 570 551 572
f 570 556 554
f 574 576 575
f 602 574 573
f 602 577 576
f 602 576 574
f 598 597 596
f 600 602 601
f 599 578 577
f 599 579 578
f 599 580 579
f 599 581 580
f 599 582 581
f 599 583 582
f 599 584 583
f 599 585 584
f 599 586 585
f 599 587 586
f 599 588 587
f 599 589 588
f 599 590 589
f 599 591 590
f 599 592 591
f 599 593 592
f 599 594 593
f 599 595 594
f 599 596 595
f 599 598 596
f 599 602 600
f 599 577 602
f 622 620 619
f 622 621 620
f 627 623 622
f 627 624 623
f 627 625 624
f 627 626 625
f 609 611 610
f 609 612 611
f 609 613 612
f 609 614 613
f 630 628 627
f 630 629 628
f 607 609 608
f 604 606 605
f 604 607 606
f 603 607 604
f 603 615 614
f 603 616 615
f 603 617 616
f 603 609 607
f 603 614 609
f 636 635 634
f 639 637 636
f 639 638 637
f 643 618 617
f 643 619 618
f 643 645 644
f 643 646 645
f 643 603 646
f 643 622 619
f 643 617 603
f 642 639 636
f 642 636 634
f 642 631 630
f 642 632 631
f 642 622 643
f 642 633 632
f 642 634 633
f 642 640 639
f 642 641 640
f 642 627 622
f 642 630 627
f 651 647 648
f 651 648 649
f 651 649 650
f 652 656 647
f 652 647 651
f 653 654 655
f 653 655 656
f 653 656 652
f 658 669 657
f 658 680 669
f 659 679 680
f 659 680 658
f 660 678 679
f 660 679 659
f 661 677 678
f 661 678 660
f 662 676 677
f 662 677 661
f 663 675 676
f 663 676 662
f 664 674 675
f 664 675 663
f 665 673 674
f 665 674 664
f 666 672 673
f 666 673 665
f 667 671 672
f 667 672 666
f 668 670 671
f 668 671 667
f 682 693 681
f 682 704 693
f 683 703 704
f 683 704 682
f 684 702 703
f 684 703 683
f 685 701 702
f 685 702 684
f 686 700 701
f 686 701 685
f 687 699 700
f 687 700 686
f 688 698 699
f 688 699 687
f 689 697 698
f 689 698 688
f 690 696 697
f 690 697 689
f 691 695 696
f 691 696 690
f 692 694 695
f 692 695 691
f 706 721 705
f 706 736 721
f 707 735 736
f 707 736 706
f 708 734 735
f 708 735 707
f 709 733 734
f 709 734 708
f 710 732 733
f 710 733 709
f 711 731 732
f 711 732 710
f 712 730 731
f 712 731 711
f 713 729 730
f 713 730 712
f 714 728 729
f 714 729 713
f 715 727 728
f 715 728 714
f 716 726 727
f 716 727 715
f 717 725 726
f 717 726 716
f 718 724 725
f 718 725 717
f 719 723 724
f 719 724 718
f 720 722 723
f 720 723 719
f 738 753 737
f 738 768 753
f 739 767 768
f 739 768 738
f 740 766 767
f 740 767 739
f 741 765 766
f 741 766 740
f 742 764 765
f 742 765 741
f 743 763 764
f 743 764 742
f 744 762 763
f 744 763 743
f 745 761 762
f 745 762 744
f 746 760 761
f 746 761 745
f 747 759 760
f 747 760 746
f 748 758 759
f 748 759 747
f 749 757 758
f 749 758 748
f 750 756 757
f 750 757 749
f 751 755 756
f 751 756 750
f 752 754 755
f 752 755 751
f 770 792 769
f 770 814 792
f 771 813 814
f 771 814 770
f 772 812 813
f 772 813 771
f 773 811 812
f 773 812 772
f 774 810 811
f 774 811 773
f 775 809 810
f 775 810 774
f 776 808 809
f 776 809 775
f 777 807 808
f 777 808 776
f 778 806 807
f 778 807 777
f 779 805 806
f 779 806 778
f 780 804 805
f 780 805 779
f 781 803 804
f 781 804 780
f 782 803 781
f 782 802 803
f 783 802 782
f 783 801 802
f 784 801 783
f 784 800 801
f 785 800 784
f 785 799 800
f 786 799 785
f 786 798 799
f 787 798 786
f 787 797 798
f 788 796 797
f 788 797 787
f 789 795 796
f 789 796 788
f 790 794 795
f 790 795 789
f 791 793 794
f 791 794 790
f 816 838 815
f 816 860 838
f 817 859 860
f 817 860 816
f 818 858 859
f 818 859 817
f 819 857 858
f 819 858 818
f 820 856 857
f 820 857 819
f 821 855 856
f 821 856 820
f 822 854 855
f 822 855 821
f 823 853 854
f 823 854 822
f 824 852 853
f 824 853 823
f 825 851 852
f 825 852 824
f 826 850 851
f 826 851 825
f 827 849 850
f 827 850 826
f 828 849 827
f 828 848 849
f 829 848 828
f 829 847 848
f 830 847 829
f 830 846 847
f 831 846 830
f 831 845 846
f 832 845 831
f 832 844 845
f 833 844 832
f 833 843 844
f 834 842 843
f 834 843 833
f 835 841 842
f 835 842 834
f 836 840 841
f 836 841 835
f 837 839 840
f 837 840 836
f 862 863 861
f 862 864 863
f 866 870 865
f 866 871 870
f 867 872 871
f 867 871 866
f 868 873 872
f 868 872 867
f 869 874 873
f 869 873 868
f 876 877 875
f 876 878 877
f 880 884 879
f 880 885 884
f 881 886 885
f 881 885 880
f 882 887 886
f 882 886 881
f 883 888 887
f 883 887 882
