mtllib Gemini2_hand_Orbbec_Gemini2_front_cover_solid_solid.mtl
v -0.026937336319595523 0.009352911501685268 0.00036268233442271497
v 0.027062992444716577 0.009352912097731703 0.00036268233442271497
v -0.030139226239787962 0.00930954435520892 0.00036268233442271497
v -0.032009882211464315 0.009177876505750193 0.00036268233442271497
v -0.03367989941656816 0.008931889930399728 0.00036268233442271497
v -0.035057958772973165 0.008595081375649238 0.00036268233442271497
v -0.03624180951174031 0.008172330673657413 0.00036268233442271497
v -0.03727530157695784 0.007667155690480265 0.00036268233442271497
v -0.03818098936570462 0.007083247145639793 0.00036268233442271497
v -0.0389804330696069 0.006417931770877572 0.00036268233442271497
v -0.03966998488448596 0.005681621305310247 0.00036268233442271497
v -0.04026832967396836 0.00486076195104207 0.00036268233442271497
v -0.04076430229624432 0.003969003767467949 0.00036268233442271497
v -0.04115708259142008 0.003007367782130066 0.00036268233442271497
v -0.041440023449658844 0.001986559883060457 0.00036268233442271497
v -0.041605671906344496 0.0009240661354944224 0.00036268233442271497
v -0.04164931681045929 -0.00016274960347824677 0.00036268233442271497
v -0.04156827356886254 -0.0012491384614451567 0.00036268233442271497
v -0.04136371520093722 -0.002312214620883435 0.00036268233442271497
v -0.04104102042970763 -0.003327679261691585 0.00036268233442271497
v -0.04060632614926267 -0.004282191896091581 0.00036268233442271497
v -0.040070103703362434 -0.005157270912291012 0.00036268233442271497
v -0.039436108184543836 -0.005952592955099201 0.00036268233442271497
v -0.03871102246542972 -0.006661681383959617 0.00036268233442271497
v -0.03789814387489536 -0.0072827772658442536 0.00036268233442271497
v -0.036985630162381475 -0.007824525062191667 0.00036268233442271497
v -0.03598093190831845 -0.00827860158059146 0.00036268233442271497
v -0.03494447868441467 -0.008628974364050301 0.00036268233442271497
v -0.03368445082714148 -0.008931463161152675 0.00036268233442271497
v -0.032053066967731726 -0.009173747692098888 0.00036268233442271497
v -0.03085369517981199 -0.009273682625434931 0.00036268233442271497
v -0.029528686340257102 -0.009330426842039219 0.00036268233442271497
v -0.026937341087967 -0.009353378802089862 0.00036268233442271497
v 0.027103676190145115 -0.009353379398136297 0.00036268233442271497
v 0.03030134610158178 -0.009308504254180838 0.00036268233442271497
v 0.03216949867823352 -0.00917473534104074 0.00036268233442271497
v 0.033832551676797475 -0.008927064934513007 0.00036268233442271497
v 0.03520649354443343 -0.008588673876479103 0.00036268233442271497
v 0.03638747372357235 -0.008164366897246977 0.00036268233442271497
v 0.03741831219006379 -0.007657795377273957 0.00036268233442271497
v 0.038322204686950065 -0.007072253665203143 0.00036268233442271497
v 0.039119724352962 -0.006405497646208902 0.00036268233442271497
v 0.03980764538479646 -0.005667569510618531 0.00036268233442271497
v 0.04040411382010327 -0.0048453419317601165 0.00036268233442271497
v 0.04089811710495987 -0.0039524014900833015 0.00036268233442271497
v 0.041288990051545446 -0.002989433638987682 0.00036268233442271497
v 0.041569823289592064 -0.001967703507072399 0.00036268233442271497
v 0.04173325445354163 -0.0009045872635114055 0.00036268233442271497
v 0.04177460100260526 0.00018241885641771122 0.00036268233442271497
v 0.041691240332471444 0.001268612267033481 0.00036268233442271497
v 0.041484436061581184 0.0023310437277471174 0.00036268233442271497
v 0.04115963367015944 0.0033454509821805867 0.00036268233442271497
v 0.040722970052295124 0.004298622810126329 0.00036268233442271497
v 0.04018500715080635 0.005172062996654292 0.00036268233442271497
v 0.03954919965082708 0.005965967044994969 0.00036268233442271497
v 0.03882252606401164 0.00667340442523201 0.00036268233442271497
v 0.03800781165045923 0.0072930829086955695 0.00036268233442271497
v 0.03709359324514287 0.007833218399437847 0.00036268233442271497
v 0.0360865537206854 0.00828592281894558 0.00036268233442271497
v 0.03505171459052606 0.00863382200970153 0.00036268233442271497
v 0.033794123371076824 0.008934111395460853 0.00036268233442271497
v 0.03216639208421727 0.009174600038500125 0.00036268233442271497
v 0.030969836019653783 0.009273800046582514 0.00036268233442271497
v 0.0296480505992163 0.009330126434636266 0.00036268233442271497
v -0.03193717646739239 -2.3353320490122117e-07 0.00036268233442271497
v -0.031865925076620484 -0.0009964373485050193 0.00036268233442271497
v -0.031653627641790506 -0.001972361311934262 0.00036268233442271497
v -0.03130459953908774 -0.002908138567772389 0.00036268233442271497
v -0.030825950410382084 -0.00378471932296337 0.00036268233442271497
v -0.030227422038597882 -0.004584258692318377 0.00036268233442271497
v -0.029521199997040646 -0.005290480733875613 0.00036268233442271497
v -0.028721660925708856 -0.00588900850961338 0.00036268233442271497
v -0.027845081660633958 -0.006367657638319035 0.00036268233442271497
v -0.026909303063691353 -0.006716684548928931 0.00036268233442271497
v -0.025933379547296936 -0.006928983771898212 0.00036268233442271497
v -0.024937176147017428 -0.007000233374530818 0.00036268233442271497
v -0.023940972746737923 -0.006928983771898212 0.00036268233442271497
v -0.022965049230343506 -0.006716684548928931 0.00036268233442271497
v -0.0220292706334009 -0.006367657638319035 0.00036268233442271497
v -0.021152691368326003 -0.00588900850961338 0.00036268233442271497
v -0.020353152296994213 -0.005290480733875613 0.00036268233442271497
v -0.01964692787125124 -0.004584258692318377 0.00036268233442271497
v -0.019048400691559907 -0.00378471932296337 0.00036268233442271497
v -0.01856975156285425 -0.002908138567772389 0.00036268233442271497
v -0.018220724652244353 -0.001972361311934262 0.00036268233442271497
v -0.018008424833228637 -0.0009964373485050193 0.00036268233442271497
v -0.017937174634549597 -2.3353320490122117e-07 0.00036268233442271497
v -0.018008424833228637 0.0009959703461236424 0.00036268233442271497
v -0.018220724652244353 0.001971894309552885 0.00036268233442271497
v -0.01856975156285425 0.002907671267367795 0.00036268233442271497
v -0.019048400691559907 0.003784252022558776 0.00036268233442271497
v -0.01964692787125124 0.004583791391913783 0.00036268233442271497
v -0.020353152296994213 0.005290013433471019 0.00036268233442271497
v -0.021152691368326003 0.005888541209208786 0.00036268233442271497
v -0.0220292706334009 0.006367190337914441 0.00036268233442271497
v -0.022965049230343506 0.0067162172485243365 0.00036268233442271497
v -0.023940972746737923 0.006928516471493618 0.00036268233442271497
v -0.024937176147017428 0.0069997660741262235 0.00036268233442271497
v -0.025933379547296936 0.006928516471493618 0.00036268233442271497
v -0.026909303063691353 0.0067162172485243365 0.00036268233442271497
v -0.027845081660633958 0.006367190337914441 0.00036268233442271497
v -0.028721660925708856 0.005888541209208786 0.00036268233442271497
v -0.029521199997040646 0.005290013433471019 0.00036268233442271497
v -0.030227422038597882 0.004583791391913783 0.00036268233442271497
v -0.030825950410382084 0.003784252022558776 0.00036268233442271497
v -0.03130459953908774 0.002907671267367795 0.00036268233442271497
v -0.031653627641790506 0.001971894309552885 0.00036268233442271497
v -0.031865925076620484 0.0009959703461236424 0.00036268233442271497
v -0.0034371756739055605 -2.3353320490122117e-07 0.00036268233442271497
v -0.003295401261104617 -0.0009862974065624752 0.00036268233442271497
v -0.0028815632414468414 -0.001892476337571225 0.00036268233442271497
v -0.002229188332799339 -0.002645357192038955 0.00036268233442271497
v -0.0013911282705263443 -0.003183945644260666 0.00036268233442271497
v -0.0004352777353984626 -0.0034646087110502544 0.00036268233442271497
v 0.0005609261119158693 -0.0034646087110502544 0.00036268233442271497
v 0.0015167766470437509 -0.003183945644260666 0.00036268233442271497
v 0.002354836709316746 -0.002645357192038955 0.00036268233442271497
v 0.003007211617964248 -0.001892476337571225 0.00036268233442271497
v 0.0034210496376220235 -0.0009862974065624752 0.00036268233442271497
v 0.0035628240504229675 -2.3353320490122117e-07 0.00036268233442271497
v 0.0034210496376220235 0.0009858304041810984 0.00036268233442271497
v 0.003007211617964248 0.0018920093351898482 0.00036268233442271497
v 0.002354836709316746 0.002644889891634361 0.00036268233442271497
v 0.0015167766470437509 0.003183478343856072 0.00036268233442271497
v 0.0005609261119158693 0.0034641414106456603 0.00036268233442271497
v -0.0004352777353984626 0.0034641414106456603 0.00036268233442271497
v -0.0013911282705263443 0.003183478343856072 0.00036268233442271497
v -0.002229188332799339 0.002644889891634361 0.00036268233442271497
v -0.0028815632414468414 0.0018920093351898482 0.00036268233442271497
v -0.003295401261104617 0.0009858304041810984 0.00036268233442271497
v 0.006562824102577032 -2.3353320490122117e-07 0.00036268233442271497
v 0.006661159843329496 -0.0009358361154235273 0.00036268233442271497
v 0.00695186957079464 -0.001830548305126689 0.00036268233442271497
v 0.007422247959176128 -0.002645267189027356 0.00036268233442271497
v 0.008051736770903992 -0.0033443852511558236 0.00036268233442271497
v 0.008812824290704189 -0.003897347959190278 0.00036268233442271497
v 0.009672247551256851 -0.004279988014400271 0.00036268233442271497
v 0.010592446090449858 -0.004475582141974965 0.00036268233442271497
v 0.011533202867212834 -0.004475582141974965 0.00036268233442271497
v 0.012453400810359406 -0.004279988014400271 0.00036268233442271497
v 0.013312824666958503 -0.003897347959190278 0.00036268233442271497
v 0.014073911590712265 -0.0033443852511558236 0.00036268233442271497
v 0.014703400998486564 -0.002645267189027356 0.00036268233442271497
v 0.015173778194775183 -0.001830548305126689 0.00036268233442271497
v 0.015464487922240326 -0.0009358361154235273 0.00036268233442271497
v 0.01556282366299279 -2.3353320490122117e-07 0.00036268233442271497
v 0.015464487922240326 0.0009353691130421504 0.00036268233442271497
v 0.015173778194775183 0.0018300813027453122 0.00036268233442271497
v 0.014703400998486564 0.002644799888622762 0.00036268233442271497
v 0.014073911590712265 0.0033439179507512296 0.00036268233442271497
v 0.013312824666958503 0.003896880658785684 0.00036268233442271497
v 0.012453400810359406 0.004279520713995677 0.00036268233442271497
v 0.011533202867212834 0.004475114841570371 0.00036268233442271497
v 0.010592446090449858 0.004475114841570371 0.00036268233442271497
v 0.009672247551256851 0.004279520713995677 0.00036268233442271497
v 0.008812824290704189 0.003896880658785684 0.00036268233442271497
v 0.008051736770903992 0.0033439179507512296 0.00036268233442271497
v 0.007422247959176128 0.002644799888622762 0.00036268233442271497
v 0.00695186957079464 0.0018300813027453122 0.00036268233442271497
v 0.006661159843329496 0.0009353691130421504 0.00036268233442271497
v 0.018062823607113438 -2.3353320490122117e-07 0.00036268233442271497
v 0.01813407380579248 -0.0009964373485050193 0.00036268233442271497
v 0.018346373624808197 -0.001972361311934262 0.00036268233442271497
v 0.018695400535418093 -0.002908138567772389 0.00036268233442271497
v 0.019174049664123748 -0.00378471932296337 0.00036268233442271497
v 0.01977257684381508 -0.004584258692318377 0.00036268233442271497
v 0.020478798885372317 -0.005290480733875613 0.00036268233442271497
v 0.021278337956704106 -0.00588900850961338 0.00036268233442271497
v 0.022154917221779005 -0.006367657638319035 0.00036268233442271497
v 0.02309069581872161 -0.006716684548928931 0.00036268233442271497
v 0.024066619335116026 -0.006928983771898212 0.00036268233442271497
v 0.025062822735395535 -0.007000233374530818 0.00036268233442271497
v 0.02605902613567504 -0.006928983771898212 0.00036268233442271497
v 0.027034949652069457 -0.006716684548928931 0.00036268233442271497
v 0.02797072824901206 -0.006367657638319035 0.00036268233442271497
v 0.02884730751408696 -0.00588900850961338 0.00036268233442271497
v 0.02964684658541875 -0.005290480733875613 0.00036268233442271497
v 0.030353068626975985 -0.004584258692318377 0.00036268233442271497
v 0.030951596998760187 -0.00378471932296337 0.00036268233442271497
v 0.031430246127465845 -0.002908138567772389 0.00036268233442271497
v 0.03177927423016861 -0.001972361311934262 0.00036268233442271497
v 0.03199157166499859 -0.0009964373485050193 0.00036268233442271497
v 0.0320628230557705 -2.3353320490122117e-07 0.00036268233442271497
v 0.03199157166499859 0.0009959703461236424 0.00036268233442271497
v 0.03177927423016861 0.001971894309552885 0.00036268233442271497
v 0.031430246127465845 0.002907671267367795 0.00036268233442271497
v 0.030951596998760187 0.003784252022558776 0.00036268233442271497
v 0.030353068626975985 0.004583791391913783 0.00036268233442271497
v 0.02964684658541875 0.005290013433471019 0.00036268233442271497
v 0.02884730751408696 0.005888541209208786 0.00036268233442271497
v 0.02797072824901206 0.006367190337914441 0.00036268233442271497
v 0.027034949652069457 0.0067162172485243365 0.00036268233442271497
v 0.02605902613567504 0.006928516471493618 0.00036268233442271497
v 0.025062822735395535 0.0069997660741262235 0.00036268233442271497
v 0.024066619335116026 0.006928516471493618 0.00036268233442271497
v 0.02309069581872161 0.0067162172485243365 0.00036268233442271497
v 0.022154917221779005 0.006367190337914441 0.00036268233442271497
v 0.021278337956704106 0.005888541209208786 0.00036268233442271497
v 0.020478798885372317 0.005290013433471019 0.00036268233442271497
v 0.01977257684381508 0.004583791391913783 0.00036268233442271497
v 0.019174049664123748 0.003784252022558776 0.00036268233442271497
v 0.018695400535418093 0.002907671267367795 0.00036268233442271497
v 0.018346373624808197 0.001971894309552885 0.00036268233442271497
v 0.01813407380579248 0.0009959703461236424 0.00036268233442271497
v -0.007237175541285231 0.0006997664861433245 0.00036268233442271497
v -0.0075886474343691635 0.0015482945394152126 0.00036268233442271497
v -0.008437175562146857 0.0018997664324991448 0.00036268233442271497
v -0.00928570368992455 0.0015482945394152126 0.00036268233442271497
v -0.009637175583008483 0.0006997664861433245 0.00036268233442271497
v -0.007237175541285231 -0.0012002334475465087 0.00036268233442271497
v -0.009637175583008483 -0.0012002334475465087 0.00036268233442271497
v -0.00928570368992455 -0.0020487616498300054 0.00036268233442271497
v -0.008437175562146857 -0.002400233393902329 0.00036268233442271497
v -0.0075886474343691635 -0.0020487616498300054 0.00036268233442271497
v 0.027103676190145115 -0.009353380590229166 -0.0003373181744519284
v 0.027103676190145115 -0.009353380590229166 0.00036268233442271497
v 0.03030134610158178 -0.009308504254180838 -0.0003373181744519284
v 0.03216949867823352 -0.00917473534104074 -0.0003373181744519284
v 0.033832551676797475 -0.008927064934513007 -0.0003373181744519284
v 0.03520649354443343 -0.008588673876479103 -0.0003373181744519284
v 0.03638747372357235 -0.008164366897246977 -0.0003373181744519284
v 0.03741831219006379 -0.007657795377273957 -0.0003373181744519284
v 0.038322204686950065 -0.007072253665203143 -0.0003373181744519284
v 0.039119724352962 -0.006405497646208902 -0.0003373181744519284
v 0.03980764538479646 -0.005667569510618531 -0.0003373181744519284
v 0.04040411382010327 -0.0048453419317601165 -0.0003373181744519284
v 0.04089811710495987 -0.0039524014900833015 -0.0003373181744519284
v 0.041288990051545446 -0.002989433638987682 -0.0003373181744519284
v 0.041569823289592064 -0.001967703507072399 -0.0003373181744519284
v 0.04173325445354163 -0.0009045872635114055 -0.0003373181744519284
v 0.04177460100260526 0.00018241885641771122 -0.0003373181744519284
v 0.041691240332471444 0.001268612267033481 -0.0003373181744519284
v 0.041484436061581184 0.0023310437277471174 -0.0003373181744519284
v 0.04115963367015944 0.0033454509821805867 -0.0003373181744519284
v 0.040722970052295124 0.004298622810126329 -0.0003373181744519284
v 0.04018500715080635 0.005172062996654292 -0.0003373181744519284
v 0.03954919965082708 0.005965967044994969 -0.0003373181744519284
v 0.03882252606401164 0.00667340442523201 -0.0003373181744519284
v 0.03800781165045923 0.0072930829086955695 -0.0003373181744519284
v 0.03709359324514287 0.007833218399437847 -0.0003373181744519284
v 0.0360865537206854 0.00828592281894558 -0.0003373181744519284
v 0.03505171459052606 0.00863382200970153 -0.0003373181744519284
v 0.033794123371076824 0.008934111395460853 -0.0003373181744519284
v 0.03216639208421727 0.009174600038500125 -0.0003373181744519284
v 0.030969836019653783 0.009273800046582514 -0.0003373181744519284
v 0.0296480505992163 0.009330126434636266 -0.0003373181744519284
v 0.027062992444716577 0.009352912693778137 -0.0003373181744519284
v 0.027062992444716577 0.009352912693778137 0.00036268233442271497
v 0.03030134610158178 -0.009308504254180838 0.00036268233442271497
v 0.03216949867823352 -0.00917473534104074 0.00036268233442271497
v 0.033832551676797475 -0.008927064934513007 0.00036268233442271497
v 0.03520649354443343 -0.008588673876479103 0.00036268233442271497
v 0.03638747372357235 -0.008164366897246977 0.00036268233442271497
v 0.03741831219006379 -0.007657795377273957 0.00036268233442271497
v 0.038322204686950065 -0.007072253665203143 0.00036268233442271497
v 0.039119724352962 -0.006405497646208902 0.00036268233442271497
v 0.03980764538479646 -0.005667569510618531 0.00036268233442271497
v 0.04040411382010327 -0.0048453419317601165 0.00036268233442271497
v 0.04089811710495987 -0.0039524014900833015 0.00036268233442271497
v 0.041288990051545446 -0.002989433638987682 0.00036268233442271497
v 0.041569823289592064 -0.001967703507072399 0.00036268233442271497
v 0.04173325445354163 -0.0009045872635114055 0.00036268233442271497
v 0.04177460100260526 0.00018241885641771122 0.00036268233442271497
v 0.041691240332471444 0.001268612267033481 0.00036268233442271497
v 0.041484436061581184 0.0023310437277471174 0.00036268233442271497
v 0.04115963367015944 0.0033454509821805867 0.00036268233442271497
v 0.040722970052295124 0.004298622810126329 0.00036268233442271497
v 0.04018500715080635 0.005172062996654292 0.00036268233442271497
v 0.03954919965082708 0.005965967044994969 0.00036268233442271497
v 0.03882252606401164 0.00667340442523201 0.00036268233442271497
v 0.03800781165045923 0.0072930829086955695 0.00036268233442271497
v 0.03709359324514287 0.007833218399437847 0.00036268233442271497
v 0.0360865537206854 0.00828592281894558 0.00036268233442271497
v 0.03505171459052606 0.00863382200970153 0.00036268233442271497
v 0.033794123371076824 0.008934111395460853 0.00036268233442271497
v 0.03216639208421727 0.009174600038500125 0.00036268233442271497
v 0.030969836019653783 0.009273800046582514 0.00036268233442271497
v 0.0296480505992163 0.009330126434636266 0.00036268233442271497
v -0.026937336319595523 0.009352910905638834 0.00036268233442271497
v 0.027062992444716577 0.009352910905638834 0.00036268233442271497
v -0.026937336319595523 0.009352910905638834 -0.0003373181744519284
v 0.027062992444716577 0.009352910905638834 -0.0003373181744519284
v -0.026937336319595523 0.009352912693778137 -0.0003373181744519284
v -0.026937336319595523 0.009352912693778137 0.00036268233442271497
v -0.030139226239787962 0.00930954435520892 -0.0003373181744519284
v -0.032009882211464315 0.009177876505750193 -0.0003373181744519284
v -0.03367989941656816 0.008931889930399728 -0.0003373181744519284
v -0.035057958772973165 0.008595081375649238 -0.0003373181744519284
v -0.03624180951174031 0.008172330077610979 -0.0003373181744519284
v -0.03727530157695784 0.007667155690480265 -0.0003373181744519284
v -0.03818098936570462 0.007083246549593358 -0.0003373181744519284
v -0.0389804330696069 0.006417931770877572 -0.0003373181744519284
v -0.03966998488448596 0.005681621305310247 -0.0003373181744519284
v -0.04026832967396836 0.00486076195104207 -0.0003373181744519284
v -0.04076430229624432 0.003969003767467949 -0.0003373181744519284
v -0.04115708259142008 0.0030073674841068487 -0.0003373181744519284
v -0.041440023449658844 0.001986559883060457 -0.0003373181744519284
v -0.041605671906344496 0.0009240660609886181 -0.0003373181744519284
v -0.04164931681045929 -0.00016274964073114892 -0.0003373181744519284
v -0.04156827356886254 -0.001249138535950961 -0.0003373181744519284
v -0.04136371520093722 -0.002312214620883435 -0.0003373181744519284
v -0.04104102042970763 -0.003327679261691585 -0.0003373181744519284
v -0.04060632614926267 -0.004282191896091581 -0.0003373181744519284
v -0.040070103703362434 -0.005157270912291012 -0.0003373181744519284
v -0.039436108184543836 -0.005952593551145635 -0.0003373181744519284
v -0.03871102246542972 -0.006661681383959617 -0.0003373181744519284
v -0.03789814387489536 -0.0072827772658442536 -0.0003373181744519284
v -0.036985630162381475 -0.007824525062191667 -0.0003373181744519284
v -0.03598093190831845 -0.00827860158059146 -0.0003373181744519284
v -0.03494447868441467 -0.008628974364050301 -0.0003373181744519284
v -0.03368445082714148 -0.008931463161152675 -0.0003373181744519284
v -0.032053066967731726 -0.009173747692098888 -0.0003373181744519284
v -0.030853697563997726 -0.009273682625434931 -0.0003373181744519284
v -0.029528686340257102 -0.009330426842039219 -0.0003373181744519284
v -0.02693733870378126 -0.009353379994182731 -0.0003373181744519284
v -0.026937341087967 -0.009353379994182731 0.00036268233442271497
v -0.030139226239787962 0.00930954435520892 0.00036268233442271497
v -0.032009882211464315 0.009177876505750193 0.00036268233442271497
v -0.03367989941656816 0.008931889930399728 0.00036268233442271497
v -0.035057958772973165 0.008595081375649238 0.00036268233442271497
v -0.03624180951174031 0.008172330077610979 0.00036268233442271497
v -0.03727530157695784 0.007667155690480265 0.00036268233442271497
v -0.03818098936570462 0.007083247145639793 0.00036268233442271497
v -0.0389804330696069 0.006417931770877572 0.00036268233442271497
v -0.03966998488448596 0.005681621305310247 0.00036268233442271497
v -0.04026832967396836 0.00486076195104207 0.00036268233442271497
v -0.04076430229624432 0.003969003767467949 0.00036268233442271497
v -0.04115708259142008 0.003007367782130066 0.00036268233442271497
v -0.041440023449658844 0.001986559883060457 0.00036268233442271497
v -0.041605671906344496 0.0009240661354944224 0.00036268233442271497
v -0.04164931681045929 -0.00016274960347824677 0.00036268233442271497
v -0.04156827356886254 -0.0012491384614451567 0.00036268233442271497
v -0.04136371520093722 -0.002312214620883435 0.00036268233442271497
v -0.04104102042970763 -0.003327679261691585 0.00036268233442271497
v -0.04060632614926267 -0.004282191896091581 0.00036268233442271497
v -0.040070103703362434 -0.005157270912291012 0.00036268233442271497
v -0.039436108184543836 -0.005952592955099201 0.00036268233442271497
v -0.03871102246542972 -0.006661681383959617 0.00036268233442271497
v -0.03789814387489536 -0.0072827772658442536 0.00036268233442271497
v -0.036985630162381475 -0.007824525062191667 0.00036268233442271497
v -0.03598093190831845 -0.00827860158059146 0.00036268233442271497
v -0.03494447868441467 -0.008628974364050301 0.00036268233442271497
v -0.03368445082714148 -0.008931463161152675 0.00036268233442271497
v -0.032053066967731726 -0.009173747692098888 0.00036268233442271497
v -0.03085369517981199 -0.009273682625434931 0.00036268233442271497
v -0.029528686340257102 -0.009330426842039219 0.00036268233442271497
v 0.027103676190145115 -0.009353378206043428 0.00036268233442271497
v -0.026937341087967 -0.009353378206043428 0.00036268233442271497
v 0.027103676190145115 -0.009353378206043428 -0.0003373181744519284
v -0.02693733870378126 -0.009353378206043428 -0.0003373181744519284
v 0.027103676190145115 -0.009353379398136297 -0.0003373181744519284
v -0.02693733870378126 -0.009353379398136297 -0.0003373181744519284
v -0.026937336319595523 0.009352911501685268 -0.0003373181744519284
v -0.030139226239787962 0.00930954435520892 -0.0003373181744519284
v -0.032009882211464315 0.009177876505750193 -0.0003373181744519284
v -0.03367989941656816 0.008931889930399728 -0.0003373181744519284
v -0.035057958772973165 0.008595081375649238 -0.0003373181744519284
v -0.03624180951174031 0.008172330077610979 -0.0003373181744519284
v -0.03727530157695784 0.007667155690480265 -0.0003373181744519284
v -0.03818098936570462 0.007083246549593358 -0.0003373181744519284
v -0.0389804330696069 0.006417931770877572 -0.0003373181744519284
v -0.03966998488448596 0.005681621305310247 -0.0003373181744519284
v -0.04026832967396836 0.00486076195104207 -0.0003373181744519284
v -0.04076430229624432 0.003969003767467949 -0.0003373181744519284
v -0.04115708259142008 0.0030073674841068487 -0.0003373181744519284
v -0.041440023449658844 0.001986559883060457 -0.0003373181744519284
v -0.041605671906344496 0.0009240660609886181 -0.0003373181744519284
v -0.04164931681045929 -0.00016274964073114892 -0.0003373181744519284
v -0.04156827356886254 -0.001249138535950961 -0.0003373181744519284
v -0.04136371520093722 -0.002312214620883435 -0.0003373181744519284
v -0.04104102042970763 -0.003327679261691585 -0.0003373181744519284
v -0.04060632614926267 -0.004282191896091581 -0.0003373181744519284
v -0.040070103703362434 -0.005157270912291012 -0.0003373181744519284
v -0.039436108184543836 -0.005952593551145635 -0.0003373181744519284
v -0.03871102246542972 -0.006661681383959617 -0.0003373181744519284
v -0.03789814387489536 -0.0072827772658442536 -0.0003373181744519284
v -0.036985630162381475 -0.007824525062191667 -0.0003373181744519284
v -0.03598093190831845 -0.00827860158059146 -0.0003373181744519284
v -0.03494447868441467 -0.008628974364050301 -0.0003373181744519284
v -0.03368445082714148 -0.008931463161152675 -0.0003373181744519284
v -0.032053066967731726 -0.009173747692098888 -0.0003373181744519284
v -0.030853697563997726 -0.009273682625434931 -0.0003373181744519284
v -0.029528686340257102 -0.009330426842039219 -0.0003373181744519284
v 0.027062992444716577 0.009352912097731703 -0.0003373181744519284
v 0.03030134610158178 -0.009308504254180838 -0.0003373181744519284
v 0.03216949867823352 -0.00917473534104074 -0.0003373181744519284
v 0.033832551676797475 -0.008927064934513007 -0.0003373181744519284
v 0.03520649354443343 -0.008588673876479103 -0.0003373181744519284
v 0.03638747372357235 -0.008164366897246977 -0.0003373181744519284
v 0.03741831219006379 -0.007657795377273957 -0.0003373181744519284
v 0.038322204686950065 -0.007072253665203143 -0.0003373181744519284
v 0.039119724352962 -0.006405497646208902 -0.0003373181744519284
v 0.03980764538479646 -0.005667569510618531 -0.0003373181744519284
v 0.04040411382010327 -0.0048453419317601165 -0.0003373181744519284
v 0.04089811710495987 -0.0039524014900833015 -0.0003373181744519284
v 0.041288990051545446 -0.002989433638987682 -0.0003373181744519284
v 0.041569823289592064 -0.001967703507072399 -0.0003373181744519284
v 0.04173325445354163 -0.0009045872635114055 -0.0003373181744519284
v 0.04177460100260526 0.00018241885641771122 -0.0003373181744519284
v 0.041691240332471444 0.001268612267033481 -0.0003373181744519284
v 0.041484436061581184 0.0023310437277471174 -0.0003373181744519284
v 0.04115963367015944 0.0033454509821805867 -0.0003373181744519284
v 0.040722970052295124 0.004298622810126329 -0.0003373181744519284
v 0.04018500715080635 0.005172062996654292 -0.0003373181744519284
v 0.03954919965082708 0.005965967044994969 -0.0003373181744519284
v 0.03882252606401164 0.00667340442523201 -0.0003373181744519284
v 0.03800781165045923 0.0072930829086955695 -0.0003373181744519284
v 0.03709359324514287 0.007833218399437847 -0.0003373181744519284
v 0.0360865537206854 0.00828592281894558 -0.0003373181744519284
v 0.03505171459052606 0.00863382200970153 -0.0003373181744519284
v 0.033794123371076824 0.008934111395460853 -0.0003373181744519284
v 0.03216639208421727 0.009174600038500125 -0.0003373181744519284
v 0.030969836019653783 0.009273800046582514 -0.0003373181744519284
v 0.0296480505992163 0.009330126434636266 -0.0003373181744519284
v -0.017937174634549597 -2.3353320490122117e-07 0.00036268233442271497
v -0.018008424833228637 0.0009959703461236424 0.00036268233442271497
v -0.018220724652244353 0.001971894309552885 0.00036268233442271497
v -0.01856975156285425 0.002907671267367795 0.00036268233442271497
v -0.019048400691559907 0.003784252022558776 0.00036268233442271497
v -0.01964692787125124 0.004583791391913783 0.00036268233442271497
v -0.020353152296994213 0.005290013433471019 0.00036268233442271497
v -0.021152691368326003 0.005888541209208786 0.00036268233442271497
v -0.0220292706334009 0.006367190337914441 0.00036268233442271497
v -0.022965049230343506 0.0067162172485243365 0.00036268233442271497
v -0.023940972746737923 0.006928516471493618 0.00036268233442271497
v -0.024937176147017428 0.0069997660741262235 0.00036268233442271497
v -0.025933379547296936 0.006928516471493618 0.00036268233442271497
v -0.026909303063691353 0.0067162172485243365 0.00036268233442271497
v -0.027845081660633958 0.006367190337914441 0.00036268233442271497
v -0.028721660925708856 0.005888541209208786 0.00036268233442271497
v -0.029521199997040646 0.005290013433471019 0.00036268233442271497
v -0.030227422038597882 0.004583791391913783 0.00036268233442271497
v -0.030825950410382084 0.003784252022558776 0.00036268233442271497
v -0.03130459953908774 0.002907671267367795 0.00036268233442271497
v -0.031653627641790506 0.001971894309552885 0.00036268233442271497
v -0.031865925076620484 0.0009959703461236424 0.00036268233442271497
v -0.03193717646739239 -2.3353320490122117e-07 0.00036268233442271497
v -0.017937174634549597 -2.3353320490122117e-07 0.00026268243202531865
v -0.03193717646739239 -2.3353320490122117e-07 0.00026268243202531865
v -0.031865925076620484 0.0009959703461236424 0.00026268243202531865
v -0.031653627641790506 0.001971894309552885 0.00026268243202531865
v -0.03130459953908774 0.002907671267367795 0.00026268243202531865
v -0.030825950410382084 0.003784252022558776 0.00026268243202531865
v -0.030227422038597882 0.004583791391913783 0.00026268243202531865
v -0.029521199997040646 0.005290013433471019 0.00026268243202531865
v -0.028721660925708856 0.005888541209208786 0.00026268243202531865
v -0.027845081660633958 0.006367190337914441 0.00026268243202531865
v -0.026909303063691353 0.0067162172485243365 0.00026268243202531865
v -0.025933379547296936 0.006928516471493618 0.00026268243202531865
v -0.024937176147017428 0.0069997660741262235 0.00026268243202531865
v -0.023940972746737923 0.006928516471493618 0.00026268243202531865
v -0.022965049230343506 0.0067162172485243365 0.00026268243202531865
v -0.0220292706334009 0.006367190337914441 0.00026268243202531865
v -0.021152691368326003 0.005888541209208786 0.00026268243202531865
v -0.020353152296994213 0.005290013433471019 0.00026268243202531865
v -0.01964692787125124 0.004583791391913783 0.00026268243202531865
v -0.019048400691559907 0.003784252022558776 0.00026268243202531865
v -0.01856975156285425 0.002907671267367795 0.00026268243202531865
v -0.018220724652244353 0.001971894309552885 0.00026268243202531865
v -0.018008424833228637 0.0009959703461236424 0.00026268243202531865
v -0.03193717646739239 -2.3353320490122117e-07 0.00036268233442271497
v -0.031865925076620484 -0.0009964373485050193 0.00036268233442271497
v -0.031653627641790506 -0.001972361311934262 0.00036268233442271497
v -0.03130459953908774 -0.002908138567772389 0.00036268233442271497
v -0.030825950410382084 -0.00378471932296337 0.00036268233442271497
v -0.030227422038597882 -0.004584258692318377 0.00036268233442271497
v -0.029521199997040646 -0.005290480733875613 0.00036268233442271497
v -0.028721660925708856 -0.00588900850961338 0.00036268233442271497
v -0.027845081660633958 -0.006367657638319035 0.00036268233442271497
v -0.026909303063691353 -0.006716684548928931 0.00036268233442271497
v -0.025933379547296936 -0.006928983771898212 0.00036268233442271497
v -0.024937176147017428 -0.007000233374530818 0.00036268233442271497
v -0.023940972746737923 -0.006928983771898212 0.00036268233442271497
v -0.022965049230343506 -0.006716684548928931 0.00036268233442271497
v -0.0220292706334009 -0.006367657638319035 0.00036268233442271497
v -0.021152691368326003 -0.00588900850961338 0.00036268233442271497
v -0.020353152296994213 -0.005290480733875613 0.00036268233442271497
v -0.01964692787125124 -0.004584258692318377 0.00036268233442271497
v -0.019048400691559907 -0.00378471932296337 0.00036268233442271497
v -0.01856975156285425 -0.002908138567772389 0.00036268233442271497
v -0.018220724652244353 -0.001972361311934262 0.00036268233442271497
v -0.018008424833228637 -0.0009964373485050193 0.00036268233442271497
v -0.017937174634549597 -2.3353320490122117e-07 0.00036268233442271497
v -0.03193717646739239 -2.3353320490122117e-07 0.00026268243202531865
v -0.017937174634549597 -2.3353320490122117e-07 0.00026268243202531865
v -0.018008424833228637 -0.0009964373485050193 0.00026268243202531865
v -0.018220724652244353 -0.001972361311934262 0.00026268243202531865
v -0.01856975156285425 -0.002908138567772389 0.00026268243202531865
v -0.019048400691559907 -0.00378471932296337 0.00026268243202531865
v -0.01964692787125124 -0.004584258692318377 0.00026268243202531865
v -0.020353152296994213 -0.005290480733875613 0.00026268243202531865
v -0.021152691368326003 -0.00588900850961338 0.00026268243202531865
v -0.0220292706334009 -0.006367657638319035 0.00026268243202531865
v -0.022965049230343506 -0.006716684548928931 0.00026268243202531865
v -0.023940972746737923 -0.006928983771898212 0.00026268243202531865
v -0.024937176147017428 -0.007000233374530818 0.00026268243202531865
v -0.025933379547296936 -0.006928983771898212 0.00026268243202531865
v -0.026909303063691353 -0.006716684548928931 0.00026268243202531865
v -0.027845081660633958 -0.006367657638319035 0.00026268243202531865
v -0.028721660925708856 -0.00588900850961338 0.00026268243202531865
v -0.029521199997040646 -0.005290480733875613 0.00026268243202531865
v -0.030227422038597882 -0.004584258692318377 0.00026268243202531865
v -0.030825950410382084 -0.00378471932296337 0.00026268243202531865
v -0.03130459953908774 -0.002908138567772389 0.00026268243202531865
v -0.031653627641790506 -0.001972361311934262 0.00026268243202531865
v -0.031865925076620484 -0.0009964373485050193 0.00026268243202531865
v -0.017937174634549597 -2.3353320490122117e-07 0.00026268243202531865
v -0.018008424833228637 -0.0009964373485050193 0.00026268243202531865
v -0.018220724652244353 -0.001972361311934262 0.00026268243202531865
v -0.01856975156285425 -0.002908138567772389 0.00026268243202531865
v -0.019048400691559907 -0.00378471932296337 0.00026268243202531865
v -0.01964692787125124 -0.004584258692318377 0.00026268243202531865
v -0.020353152296994213 -0.005290480733875613 0.00026268243202531865
v -0.021152691368326003 -0.00588900850961338 0.00026268243202531865
v -0.0220292706334009 -0.006367657638319035 0.00026268243202531865
v -0.022965049230343506 -0.006716684548928931 0.00026268243202531865
v -0.023940972746737923 -0.006928983771898212 0.00026268243202531865
v -0.024937176147017428 -0.007000233374530818 0.00026268243202531865
v -0.025933379547296936 -0.006928983771898212 0.00026268243202531865
v -0.026909303063691353 -0.006716684548928931 0.00026268243202531865
v -0.027845081660633958 -0.006367657638319035 0.00026268243202531865
v -0.028721660925708856 -0.00588900850961338 0.00026268243202531865
v -0.029521199997040646 -0.005290480733875613 0.00026268243202531865
v -0.030227422038597882 -0.004584258692318377 0.00026268243202531865
v -0.030825950410382084 -0.00378471932296337 0.00026268243202531865
v -0.03130459953908774 -0.002908138567772389 0.00026268243202531865
v -0.031653627641790506 -0.001972361311934262 0.00026268243202531865
v -0.031865925076620484 -0.0009964373485050193 0.00026268243202531865
v -0.03193717646739239 -2.3353320490122117e-07 0.00026268243202531865
v -0.031865925076620484 0.0009959703461236424 0.00026268243202531865
v -0.031653627641790506 0.001971894309552885 0.00026268243202531865
v -0.03130459953908774 0.002907671267367795 0.00026268243202531865
v -0.030825950410382084 0.003784252022558776 0.00026268243202531865
v -0.030227422038597882 0.004583791391913783 0.00026268243202531865
v -0.029521199997040646 0.005290013433471019 0.00026268243202531865
v -0.028721660925708856 0.005888541209208786 0.00026268243202531865
v -0.027845081660633958 0.006367190337914441 0.00026268243202531865
v -0.026909303063691353 0.0067162172485243365 0.00026268243202531865
v -0.025933379547296936 0.006928516471493618 0.00026268243202531865
v -0.024937176147017428 0.0069997660741262235 0.00026268243202531865
v -0.023940972746737923 0.006928516471493618 0.00026268243202531865
v -0.022965049230343506 0.0067162172485243365 0.00026268243202531865
v -0.0220292706334009 0.006367190337914441 0.00026268243202531865
v -0.021152691368326003 0.005888541209208786 0.00026268243202531865
v -0.020353152296994213 0.005290013433471019 0.00026268243202531865
v -0.01964692787125124 0.004583791391913783 0.00026268243202531865
v -0.019048400691559907 0.003784252022558776 0.00026268243202531865
v -0.01856975156285425 0.002907671267367795 0.00026268243202531865
v -0.018220724652244353 0.001971894309552885 0.00026268243202531865
v -0.018008424833228637 0.0009959703461236424 0.00026268243202531865
v 0.0035628240504229675 -2.3353320490122117e-07 0.00026268243202531865
v 0.0034210496376220235 -0.0009862974065624752 0.00026268243202531865
v 0.003007211617964248 -0.001892476337571225 0.00026268243202531865
v 0.002354836709316746 -0.002645357192038955 0.00026268243202531865
v 0.0015167766470437509 -0.003183945644260666 0.00026268243202531865
v 0.0005609261119158693 -0.0034646087110502544 0.00026268243202531865
v -0.0004352777353984626 -0.0034646087110502544 0.00026268243202531865
v -0.0013911282705263443 -0.003183945644260666 0.00026268243202531865
v -0.002229188332799339 -0.002645357192038955 0.00026268243202531865
v -0.0028815632414468414 -0.001892476337571225 0.00026268243202531865
v -0.003295401261104617 -0.0009862974065624752 0.00026268243202531865
v -0.0034371756739055605 -2.3353320490122117e-07 0.00026268243202531865
v -0.003295401261104617 0.0009858304041810984 0.00026268243202531865
v -0.0028815632414468414 0.0018920093351898482 0.00026268243202531865
v -0.002229188332799339 0.002644889891634361 0.00026268243202531865
v -0.0013911282705263443 0.003183478343856072 0.00026268243202531865
v -0.0004352777353984626 0.0034641414106456603 0.00026268243202531865
v 0.0005609261119158693 0.0034641414106456603 0.00026268243202531865
v 0.0015167766470437509 0.003183478343856072 0.00026268243202531865
v 0.002354836709316746 0.002644889891634361 0.00026268243202531865
v 0.003007211617964248 0.0018920093351898482 0.00026268243202531865
v 0.0034210496376220235 0.0009858304041810984 0.00026268243202531865
v 0.01556282366299279 -2.3353320490122117e-07 0.00026268243202531865
v 0.015464487922240326 -0.0009358361154235273 0.00026268243202531865
v 0.015173778194775183 -0.001830548305126689 0.00026268243202531865
v 0.014703400998486564 -0.002645267189027356 0.00026268243202531865
v 0.014073911590712265 -0.0033443852511558236 0.00026268243202531865
v 0.013312824666958503 -0.003897347959190278 0.00026268243202531865
v 0.012453400810359406 -0.004279988014400271 0.00026268243202531865
v 0.011533202867212834 -0.004475582141974965 0.00026268243202531865
v 0.010592446090449858 -0.004475582141974965 0.00026268243202531865
v 0.009672247551256851 -0.004279988014400271 0.00026268243202531865
v 0.008812824290704189 -0.003897347959190278 0.00026268243202531865
v 0.008051736770903992 -0.0033443852511558236 0.00026268243202531865
v 0.007422247959176128 -0.002645267189027356 0.00026268243202531865
v 0.00695186957079464 -0.001830548305126689 0.00026268243202531865
v 0.006661159843329496 -0.0009358361154235273 0.00026268243202531865
v 0.006562824102577032 -2.3353320490122117e-07 0.00026268243202531865
v 0.006661159843329496 0.0009353691130421504 0.00026268243202531865
v 0.00695186957079464 0.0018300813027453122 0.00026268243202531865
v 0.007422247959176128 0.002644799888622762 0.00026268243202531865
v 0.008051736770903992 0.0033439179507512296 0.00026268243202531865
v 0.008812824290704189 0.003896880658785684 0.00026268243202531865
v 0.009672247551256851 0.004279520713995677 0.00026268243202531865
v 0.010592446090449858 0.004475114841570371 0.00026268243202531865
v 0.011533202867212834 0.004475114841570371 0.00026268243202531865
v 0.012453400810359406 0.004279520713995677 0.00026268243202531865
v 0.013312824666958503 0.003896880658785684 0.00026268243202531865
v 0.014073911590712265 0.0033439179507512296 0.00026268243202531865
v 0.014703400998486564 0.002644799888622762 0.00026268243202531865
v 0.015173778194775183 0.0018300813027453122 0.00026268243202531865
v 0.015464487922240326 0.0009353691130421504 0.00026268243202531865
v 0.0320628230557705 -2.3353320490122117e-07 0.00026268243202531865
v 0.03199157166499859 -0.0009964373485050193 0.00026268243202531865
v 0.03177927423016861 -0.001972361311934262 0.00026268243202531865
v 0.031430246127465845 -0.002908138567772389 0.00026268243202531865
v 0.030951596998760187 -0.00378471932296337 0.00026268243202531865
v 0.030353068626975985 -0.004584258692318377 0.00026268243202531865
v 0.02964684658541875 -0.005290480733875613 0.00026268243202531865
v 0.02884730751408696 -0.00588900850961338 0.00026268243202531865
v 0.02797072824901206 -0.006367657638319035 0.00026268243202531865
v 0.027034949652069457 -0.006716684548928931 0.00026268243202531865
v 0.02605902613567504 -0.006928983771898212 0.00026268243202531865
v 0.025062822735395535 -0.007000233374530818 0.00026268243202531865
v 0.024066619335116026 -0.006928983771898212 0.00026268243202531865
v 0.02309069581872161 -0.006716684548928931 0.00026268243202531865
v 0.022154917221779005 -0.006367657638319035 0.00026268243202531865
v 0.021278337956704106 -0.00588900850961338 0.00026268243202531865
v 0.020478798885372317 -0.005290480733875613 0.00026268243202531865
v 0.01977257684381508 -0.004584258692318377 0.00026268243202531865
v 0.019174049664123748 -0.00378471932296337 0.00026268243202531865
v 0.018695400535418093 -0.002908138567772389 0.00026268243202531865
v 0.018346373624808197 -0.001972361311934262 0.00026268243202531865
v 0.01813407380579248 -0.0009964373485050193 0.00026268243202531865
v 0.018062823607113438 -2.3353320490122117e-07 0.00026268243202531865
v 0.01813407380579248 0.0009959703461236424 0.00026268243202531865
v 0.018346373624808197 0.001971894309552885 0.00026268243202531865
v 0.018695400535418093 0.002907671267367795 0.00026268243202531865
v 0.019174049664123748 0.003784252022558776 0.00026268243202531865
v 0.01977257684381508 0.004583791391913783 0.00026268243202531865
v 0.020478798885372317 0.005290013433471019 0.00026268243202531865
v 0.021278337956704106 0.005888541209208786 0.00026268243202531865
v 0.022154917221779005 0.006367190337914441 0.00026268243202531865
v 0.02309069581872161 0.0067162172485243365 0.00026268243202531865
v 0.024066619335116026 0.006928516471493618 0.00026268243202531865
v 0.025062822735395535 0.0069997660741262235 0.00026268243202531865
v 0.02605902613567504 0.006928516471493618 0.00026268243202531865
v 0.027034949652069457 0.0067162172485243365 0.00026268243202531865
v 0.02797072824901206 0.006367190337914441 0.00026268243202531865
v 0.02884730751408696 0.005888541209208786 0.00026268243202531865
v 0.02964684658541875 0.005290013433471019 0.00026268243202531865
v 0.030353068626975985 0.004583791391913783 0.00026268243202531865
v 0.030951596998760187 0.003784252022558776 0.00026268243202531865
v 0.031430246127465845 0.002907671267367795 0.00026268243202531865
v 0.03177927423016861 0.001971894309552885 0.00026268243202531865
v 0.03199157166499859 0.0009959703461236424 0.00026268243202531865
v -0.009637175583008483 -0.0012002334475465087 0.00026268243202531865
v -0.00928570368992455 -0.0020487616498300054 0.00026268243202531865
v -0.008437175562146857 -0.002400233393902329 0.00026268243202531865
v -0.0075886474343691635 -0.0020487616498300054 0.00026268243202531865
v -0.007237175541285231 -0.0012002334475465087 0.00026268243202531865
v -0.007237175541285231 0.0006997664861433245 0.00026268243202531865
v -0.0075886474343691635 0.0015482945394152126 0.00026268243202531865
v -0.008437175562146857 0.0018997664324991448 0.00026268243202531865
v -0.00928570368992455 0.0015482945394152126 0.00026268243202531865
v -0.009637175583008483 0.0006997664861433245 0.00026268243202531865
v 0.0035628240504229675 -2.3353320490122117e-07 0.00036268233442271497
v 0.0034210496376220235 0.0009858304041810984 0.00036268233442271497
v 0.003007211617964248 0.0018920093351898482 0.00036268233442271497
v 0.002354836709316746 0.002644889891634361 0.00036268233442271497
v 0.0015167766470437509 0.003183478343856072 0.00036268233442271497
v 0.0005609261119158693 0.0034641414106456603 0.00036268233442271497
v -0.0004352777353984626 0.0034641414106456603 0.00036268233442271497
v -0.0013911282705263443 0.003183478343856072 0.00036268233442271497
v -0.002229188332799339 0.002644889891634361 0.00036268233442271497
v -0.0028815632414468414 0.0018920093351898482 0.00036268233442271497
v -0.003295401261104617 0.0009858304041810984 0.00036268233442271497
v -0.0034371756739055605 -2.3353320490122117e-07 0.00036268233442271497
v 0.0035628240504229675 -2.3353320490122117e-07 0.00026268243202531865
v -0.0034371756739055605 -2.3353320490122117e-07 0.00026268243202531865
v -0.003295401261104617 0.0009858304041810984 0.00026268243202531865
v -0.0028815632414468414 0.0018920093351898482 0.00026268243202531865
v -0.002229188332799339 0.002644889891634361 0.00026268243202531865
v -0.0013911282705263443 0.003183478343856072 0.00026268243202531865
v -0.0004352777353984626 0.0034641414106456603 0.00026268243202531865
v 0.0005609261119158693 0.0034641414106456603 0.00026268243202531865
v 0.0015167766470437509 0.003183478343856072 0.00026268243202531865
v 0.002354836709316746 0.002644889891634361 0.00026268243202531865
v 0.003007211617964248 0.0018920093351898482 0.00026268243202531865
v 0.0034210496376220235 0.0009858304041810984 0.00026268243202531865
v -0.0034371756739055605 -2.3353320490122117e-07 0.00036268233442271497
v -0.003295401261104617 -0.0009862974065624752 0.00036268233442271497
v -0.0028815632414468414 -0.001892476337571225 0.00036268233442271497
v -0.002229188332799339 -0.002645357192038955 0.00036268233442271497
v -0.0013911282705263443 -0.003183945644260666 0.00036268233442271497
v -0.0004352777353984626 -0.0034646087110502544 0.00036268233442271497
v 0.0005609261119158693 -0.0034646087110502544 0.00036268233442271497
v 0.0015167766470437509 -0.003183945644260666 0.00036268233442271497
v 0.002354836709316746 -0.002645357192038955 0.00036268233442271497
v 0.003007211617964248 -0.001892476337571225 0.00036268233442271497
v 0.0034210496376220235 -0.0009862974065624752 0.00036268233442271497
v 0.0035628240504229675 -2.3353320490122117e-07 0.00036268233442271497
v -0.0034371756739055605 -2.3353320490122117e-07 0.00026268243202531865
v 0.0035628240504229675 -2.3353320490122117e-07 0.00026268243202531865
v 0.0034210496376220235 -0.0009862974065624752 0.00026268243202531865
v 0.003007211617964248 -0.001892476337571225 0.00026268243202531865
v 0.002354836709316746 -0.002645357192038955 0.00026268243202531865
v 0.0015167766470437509 -0.003183945644260666 0.00026268243202531865
v 0.0005609261119158693 -0.0034646087110502544 0.00026268243202531865
v -0.0004352777353984626 -0.0034646087110502544 0.00026268243202531865
v -0.0013911282705263443 -0.003183945644260666 0.00026268243202531865
v -0.002229188332799339 -0.002645357192038955 0.00026268243202531865
v -0.0028815632414468414 -0.001892476337571225 0.00026268243202531865
v -0.003295401261104617 -0.0009862974065624752 0.00026268243202531865
v 0.01556282366299279 -2.3353320490122117e-07 0.00036268233442271497
v 0.015464487922240326 0.0009353691130421504 0.00036268233442271497
v 0.015173778194775183 0.0018300813027453122 0.00036268233442271497
v 0.014703400998486564 0.002644799888622762 0.00036268233442271497
v 0.014073911590712265 0.0033439179507512296 0.00036268233442271497
v 0.013312824666958503 0.003896880658785684 0.00036268233442271497
v 0.012453400810359406 0.004279520713995677 0.00036268233442271497
v 0.011533202867212834 0.004475114841570371 0.00036268233442271497
v 0.010592446090449858 0.004475114841570371 0.00036268233442271497
v 0.009672247551256851 0.004279520713995677 0.00036268233442271497
v 0.008812824290704189 0.003896880658785684 0.00036268233442271497
v 0.008051736770903992 0.0033439179507512296 0.00036268233442271497
v 0.007422247959176128 0.002644799888622762 0.00036268233442271497
v 0.00695186957079464 0.0018300813027453122 0.00036268233442271497
v 0.006661159843329496 0.0009353691130421504 0.00036268233442271497
v 0.006562824102577032 -2.3353320490122117e-07 0.00036268233442271497
v 0.01556282366299279 -2.3353320490122117e-07 0.00026268243202531865
v 0.006562824102577032 -2.3353320490122117e-07 0.00026268243202531865
v 0.006661159843329496 0.0009353691130421504 0.00026268243202531865
v 0.00695186957079464 0.0018300813027453122 0.00026268243202531865
v 0.007422247959176128 0.002644799888622762 0.00026268243202531865
v 0.008051736770903992 0.0033439179507512296 0.00026268243202531865
v 0.008812824290704189 0.003896880658785684 0.00026268243202531865
v 0.009672247551256851 0.004279520713995677 0.00026268243202531865
v 0.010592446090449858 0.004475114841570371 0.00026268243202531865
v 0.011533202867212834 0.004475114841570371 0.00026268243202531865
v 0.012453400810359406 0.004279520713995677 0.00026268243202531865
v 0.013312824666958503 0.003896880658785684 0.00026268243202531865
v 0.014073911590712265 0.0033439179507512296 0.00026268243202531865
v 0.014703400998486564 0.002644799888622762 0.00026268243202531865
v 0.015173778194775183 0.0018300813027453122 0.00026268243202531865
v 0.015464487922240326 0.0009353691130421504 0.00026268243202531865
v 0.006562824102577032 -2.3353320490122117e-07 0.00036268233442271497
v 0.006661159843329496 -0.0009358361154235273 0.00036268233442271497
v 0.00695186957079464 -0.001830548305126689 0.00036268233442271497
v 0.007422247959176128 -0.002645267189027356 0.00036268233442271497
v 0.008051736770903992 -0.0033443852511558236 0.00036268233442271497
v 0.008812824290704189 -0.003897347959190278 0.00036268233442271497
v 0.009672247551256851 -0.004279988014400271 0.00036268233442271497
v 0.010592446090449858 -0.004475582141974965 0.00036268233442271497
v 0.011533202867212834 -0.004475582141974965 0.00036268233442271497
v 0.012453400810359406 -0.004279988014400271 0.00036268233442271497
v 0.013312824666958503 -0.003897347959190278 0.00036268233442271497
v 0.014073911590712265 -0.0033443852511558236 0.00036268233442271497
v 0.014703400998486564 -0.002645267189027356 0.00036268233442271497
v 0.015173778194775183 -0.001830548305126689 0.00036268233442271497
v 0.015464487922240326 -0.0009358361154235273 0.00036268233442271497
v 0.01556282366299279 -2.3353320490122117e-07 0.00036268233442271497
v 0.006562824102577032 -2.3353320490122117e-07 0.00026268243202531865
v 0.01556282366299279 -2.3353320490122117e-07 0.00026268243202531865
v 0.015464487922240326 -0.0009358361154235273 0.00026268243202531865
v 0.015173778194775183 -0.001830548305126689 0.00026268243202531865
v 0.014703400998486564 -0.002645267189027356 0.00026268243202531865
v 0.014073911590712265 -0.0033443852511558236 0.00026268243202531865
v 0.013312824666958503 -0.003897347959190278 0.00026268243202531865
v 0.012453400810359406 -0.004279988014400271 0.00026268243202531865
v 0.011533202867212834 -0.004475582141974965 0.00026268243202531865
v 0.010592446090449858 -0.004475582141974965 0.00026268243202531865
v 0.009672247551256851 -0.004279988014400271 0.00026268243202531865
v 0.008812824290704189 -0.003897347959190278 0.00026268243202531865
v 0.008051736770903992 -0.0033443852511558236 0.00026268243202531865
v 0.007422247959176128 -0.002645267189027356 0.00026268243202531865
v 0.00695186957079464 -0.001830548305126689 0.00026268243202531865
v 0.006661159843329496 -0.0009358361154235273 0.00026268243202531865
v 0.0320628230557705 -2.3353320490122117e-07 0.00036268233442271497
v 0.03199157166499859 0.0009959703461236424 0.00036268233442271497
v 0.03177927423016861 0.001971894309552885 0.00036268233442271497
v 0.031430246127465845 0.002907671267367795 0.00036268233442271497
v 0.030951596998760187 0.003784252022558776 0.00036268233442271497
v 0.030353068626975985 0.004583791391913783 0.00036268233442271497
v 0.02964684658541875 0.005290013433471019 0.00036268233442271497
v 0.02884730751408696 0.005888541209208786 0.00036268233442271497
v 0.02797072824901206 0.006367190337914441 0.00036268233442271497
v 0.027034949652069457 0.0067162172485243365 0.00036268233442271497
v 0.02605902613567504 0.006928516471493618 0.00036268233442271497
v 0.025062822735395535 0.0069997660741262235 0.00036268233442271497
v 0.024066619335116026 0.006928516471493618 0.00036268233442271497
v 0.02309069581872161 0.0067162172485243365 0.00036268233442271497
v 0.022154917221779005 0.006367190337914441 0.00036268233442271497
v 0.021278337956704106 0.005888541209208786 0.00036268233442271497
v 0.020478798885372317 0.005290013433471019 0.00036268233442271497
v 0.01977257684381508 0.004583791391913783 0.00036268233442271497
v 0.019174049664123748 0.003784252022558776 0.00036268233442271497
v 0.018695400535418093 0.002907671267367795 0.00036268233442271497
v 0.018346373624808197 0.001971894309552885 0.00036268233442271497
v 0.01813407380579248 0.0009959703461236424 0.00036268233442271497
v 0.018062823607113438 -2.3353320490122117e-07 0.00036268233442271497
v 0.0320628230557705 -2.3353320490122117e-07 0.00026268243202531865
v 0.018062823607113438 -2.3353320490122117e-07 0.00026268243202531865
v 0.01813407380579248 0.0009959703461236424 0.00026268243202531865
v 0.018346373624808197 0.001971894309552885 0.00026268243202531865
v 0.018695400535418093 0.002907671267367795 0.00026268243202531865
v 0.019174049664123748 0.003784252022558776 0.00026268243202531865
v 0.01977257684381508 0.004583791391913783 0.00026268243202531865
v 0.020478798885372317 0.005290013433471019 0.00026268243202531865
v 0.021278337956704106 0.005888541209208786 0.00026268243202531865
v 0.022154917221779005 0.006367190337914441 0.00026268243202531865
v 0.02309069581872161 0.0067162172485243365 0.00026268243202531865
v 0.024066619335116026 0.006928516471493618 0.00026268243202531865
v 0.025062822735395535 0.0069997660741262235 0.00026268243202531865
v 0.02605902613567504 0.006928516471493618 0.00026268243202531865
v 0.027034949652069457 0.0067162172485243365 0.00026268243202531865
v 0.02797072824901206 0.006367190337914441 0.00026268243202531865
v 0.02884730751408696 0.005888541209208786 0.00026268243202531865
v 0.02964684658541875 0.005290013433471019 0.00026268243202531865
v 0.030353068626975985 0.004583791391913783 0.00026268243202531865
v 0.030951596998760187 0.003784252022558776 0.00026268243202531865
v 0.031430246127465845 0.002907671267367795 0.00026268243202531865
v 0.03177927423016861 0.001971894309552885 0.00026268243202531865
v 0.03199157166499859 0.0009959703461236424 0.00026268243202531865
v 0.018062823607113438 -2.3353320490122117e-07 0.00036268233442271497
v 0.01813407380579248 -0.0009964373485050193 0.00036268233442271497
v 0.018346373624808197 -0.001972361311934262 0.00036268233442271497
v 0.018695400535418093 -0.002908138567772389 0.00036268233442271497
v 0.019174049664123748 -0.00378471932296337 0.00036268233442271497
v 0.01977257684381508 -0.004584258692318377 0.00036268233442271497
v 0.020478798885372317 -0.005290480733875613 0.00036268233442271497
v 0.021278337956704106 -0.00588900850961338 0.00036268233442271497
v 0.022154917221779005 -0.006367657638319035 0.00036268233442271497
v 0.02309069581872161 -0.006716684548928931 0.00036268233442271497
v 0.024066619335116026 -0.006928983771898212 0.00036268233442271497
v 0.025062822735395535 -0.007000233374530818 0.00036268233442271497
v 0.02605902613567504 -0.006928983771898212 0.00036268233442271497
v 0.027034949652069457 -0.006716684548928931 0.00036268233442271497
v 0.02797072824901206 -0.006367657638319035 0.00036268233442271497
v 0.02884730751408696 -0.00588900850961338 0.00036268233442271497
v 0.02964684658541875 -0.005290480733875613 0.00036268233442271497
v 0.030353068626975985 -0.004584258692318377 0.00036268233442271497
v 0.030951596998760187 -0.00378471932296337 0.00036268233442271497
v 0.031430246127465845 -0.002908138567772389 0.00036268233442271497
v 0.03177927423016861 -0.001972361311934262 0.00036268233442271497
v 0.03199157166499859 -0.0009964373485050193 0.00036268233442271497
v 0.0320628230557705 -2.3353320490122117e-07 0.00036268233442271497
v 0.018062823607113438 -2.3353320490122117e-07 0.00026268243202531865
v 0.0320628230557705 -2.3353320490122117e-07 0.00026268243202531865
v 0.03199157166499859 -0.0009964373485050193 0.00026268243202531865
v 0.03177927423016861 -0.001972361311934262 0.00026268243202531865
v 0.031430246127465845 -0.002908138567772389 0.00026268243202531865
v 0.030951596998760187 -0.00378471932296337 0.00026268243202531865
v 0.030353068626975985 -0.004584258692318377 0.00026268243202531865
v 0.02964684658541875 -0.005290480733875613 0.00026268243202531865
v 0.02884730751408696 -0.00588900850961338 0.00026268243202531865
v 0.02797072824901206 -0.006367657638319035 0.00026268243202531865
v 0.027034949652069457 -0.006716684548928931 0.00026268243202531865
v 0.02605902613567504 -0.006928983771898212 0.00026268243202531865
v 0.025062822735395535 -0.007000233374530818 0.00026268243202531865
v 0.024066619335116026 -0.006928983771898212 0.00026268243202531865
v 0.02309069581872161 -0.006716684548928931 0.00026268243202531865
v 0.022154917221779005 -0.006367657638319035 0.00026268243202531865
v 0.021278337956704106 -0.00588900850961338 0.00026268243202531865
v 0.020478798885372317 -0.005290480733875613 0.00026268243202531865
v 0.01977257684381508 -0.004584258692318377 0.00026268243202531865
v 0.019174049664123748 -0.00378471932296337 0.00026268243202531865
v 0.018695400535418093 -0.002908138567772389 0.00026268243202531865
v 0.018346373624808197 -0.001972361311934262 0.00026268243202531865
v 0.01813407380579248 -0.0009964373485050193 0.00026268243202531865
v -0.009637175583008483 0.0006997664861433245 0.00036268233442271497
v -0.009637175583008483 -0.0012002334475465087 0.00036268233442271497
v -0.009637175583008483 0.0006997664861433245 0.00026268243202531865
v -0.009637175583008483 -0.0012002334475465087 0.00026268243202531865
v -0.007237175541285231 0.0006997664861433245 0.00036268233442271497
v -0.0075886474343691635 0.0015482945394152126 0.00036268233442271497
v -0.008437175562146857 0.0018997664324991448 0.00036268233442271497
v -0.00928570368992455 0.0015482945394152126 0.00036268233442271497
v -0.009637175583008483 0.0006997664861433245 0.00036268233442271497
v -0.007237175541285231 0.0006997664861433245 0.00026268243202531865
v -0.0075886474343691635 0.0015482945394152126 0.00026268243202531865
v -0.008437175562146857 0.0018997664324991448 0.00026268243202531865
v -0.00928570368992455 0.0015482945394152126 0.00026268243202531865
v -0.009637175583008483 0.0006997664861433245 0.00026268243202531865
v -0.007237175541285231 -0.0012002334475465087 0.00036268233442271497
v -0.007237175541285231 0.0006997664861433245 0.00036268233442271497
v -0.007237175541285231 -0.0012002334475465087 0.00026268243202531865
v -0.007237175541285231 0.0006997664861433245 0.00026268243202531865
v -0.009637175583008483 -0.0012002334475465087 0.00036268233442271497
v -0.00928570368992455 -0.0020487616498300054 0.00036268233442271497
v -0.008437175562146857 -0.002400233393902329 0.00036268233442271497
v -0.0075886474343691635 -0.0020487616498300054 0.00036268233442271497
v -0.007237175541285231 -0.0012002334475465087 0.00036268233442271497
v -0.009637175583008483 -0.0012002334475465087 0.00026268243202531865
v -0.00928570368992455 -0.0020487616498300054 0.00026268243202531865
v -0.008437175562146857 -0.002400233393902329 0.00026268243202531865
v -0.0075886474343691635 -0.0020487616498300054 0.00026268243202531865
v -0.007237175541285231 -0.0012002334475465087 0.00026268243202531865
usemtl front_cover
f 70 29 30
f 71 70 30
f 71 30 31
f 69 29 70
f 69 28 29
f 72 31 32
f 72 71 31
f 73 32 33
f 73 72 32
f 68 25 26
f 68 26 27
f 68 27 28
f 68 28 69
f 74 73 33
f 67 22 23
f 67 23 24
f 67 24 25
f 67 25 68
f 66 18 19
f 66 19 20
f 66 20 21
f 66 21 22
f 66 22 67
f 75 74 33
f 65 15 16
f 65 16 17
f 65 17 18
f 65 18 66
f 76 75 33
f 77 76 33
f 108 12 13
f 108 13 14
f 108 14 15
f 108 15 65
f 78 77 33
f 107 9 10
f 107 10 11
f 107 11 12
f 107 12 108
f 8 9 107
f 79 78 33
f 106 8 107
f 7 8 106
f 6 106 105
f 6 7 106
f 5 105 104
f 5 6 105
f 4 104 103
f 4 5 104
f 3 102 101
f 3 103 102
f 3 4 103
f 1 3 101
f 1 99 98
f 1 100 99
f 1 101 100
f 97 1 98
f 96 1 97
f 95 1 96
f 212 83 82
f 212 84 83
f 212 85 84
f 211 85 212
f 211 86 85
f 211 87 86
f 213 212 82
f 213 81 80
f 213 82 81
f 209 88 87
f 209 89 88
f 209 87 211
f 208 89 209
f 208 90 89
f 208 91 90
f 208 92 91
f 207 92 208
f 207 93 92
f 207 94 93
f 112 214 213
f 111 210 214
f 111 214 112
f 113 112 213
f 110 210 111
f 114 79 33
f 114 213 80
f 114 80 79
f 114 113 213
f 109 205 210
f 109 210 110
f 130 206 205
f 130 205 109
f 129 206 130
f 128 206 129
f 128 207 206
f 127 207 128
f 127 94 207
f 126 94 127
f 126 1 95
f 126 95 94
f 135 117 116
f 134 118 117
f 134 117 135
f 136 116 115
f 136 135 116
f 133 119 118
f 133 118 134
f 137 136 115
f 132 120 119
f 132 119 133
f 138 137 115
f 138 115 114
f 138 114 33
f 131 120 132
f 160 121 120
f 160 120 131
f 159 122 121
f 159 121 160
f 158 123 122
f 158 122 159
f 157 124 123
f 157 123 158
f 156 125 124
f 156 124 157
f 155 125 156
f 154 125 155
f 166 142 141
f 167 141 140
f 167 166 141
f 168 140 139
f 168 167 140
f 165 143 142
f 165 142 166
f 164 144 143
f 164 143 165
f 169 168 139
f 163 145 144
f 163 144 164
f 162 146 145
f 162 145 163
f 34 139 138
f 34 138 33
f 34 170 169
f 34 171 170
f 34 169 139
f 161 146 162
f 172 171 34
f 173 172 34
f 204 147 146
f 204 146 161
f 174 173 34
f 203 147 204
f 203 148 147
f 175 174 34
f 175 34 35
f 202 149 148
f 202 148 203
f 176 175 35
f 201 149 202
f 201 150 149
f 177 176 35
f 177 35 36
f 200 150 201
f 200 151 150
f 178 36 37
f 178 177 36
f 199 151 200
f 199 152 151
f 179 178 37
f 179 37 38
f 198 152 199
f 198 153 152
f 180 38 39
f 180 179 38
f 197 153 198
f 40 180 39
f 181 180 40
f 41 181 40
f 42 181 41
f 43 181 42
f 44 181 43
f 44 182 181
f 2 153 197
f 2 154 153
f 2 192 191
f 2 193 192
f 2 194 193
f 2 195 194
f 2 196 195
f 2 197 196
f 45 182 44
f 46 182 45
f 64 2 191
f 64 191 190
f 47 182 46
f 47 183 182
f 63 64 190
f 63 190 189
f 48 183 47
f 62 63 189
f 62 189 188
f 49 183 48
f 61 62 188
f 61 188 187
f 50 183 49
f 50 184 183
f 60 61 187
f 60 187 186
f 51 184 50
f 59 60 186
f 52 184 51
f 58 59 186
f 53 184 52
f 57 58 186
f 57 186 185
f 54 184 53
f 54 185 184
f 56 57 185
f 55 185 54
f 55 56 185
f 2 1 154
f 154 1 125
f 125 1 126
f 249 216 215
f 249 215 217
f 250 217 218
f 250 249 217
f 251 218 219
f 251 250 218
f 252 219 220
f 252 251 219
f 253 220 221
f 253 252 220
f 254 221 222
f 254 253 221
f 255 222 223
f 255 254 222
f 256 223 224
f 256 255 223
f 257 256 224
f 257 224 225
f 258 257 225
f 258 225 226
f 259 258 226
f 259 226 227
f 260 227 228
f 260 259 227
f 261 228 229
f 261 260 228
f 262 229 230
f 262 261 229
f 263 230 231
f 263 262 230
f 264 231 232
f 264 263 231
f 265 232 233
f 265 264 232
f 266 233 234
f 266 265 233
f 235 266 234
f 267 266 235
f 268 235 236
f 268 267 235
f 269 236 237
f 269 268 236
f 270 237 238
f 270 269 237
f 271 238 239
f 271 270 238
f 272 239 240
f 272 271 239
f 273 240 241
f 273 272 240
f 274 241 242
f 274 273 241
f 243 274 242
f 275 274 243
f 276 243 244
f 276 275 243
f 245 276 244
f 277 276 245
f 246 277 245
f 278 277 246
f 247 278 246
f 248 278 247
f 280 281 279
f 280 282 281
f 317 284 283
f 317 283 285
f 318 285 286
f 318 317 285
f 319 286 287
f 319 318 286
f 320 287 288
f 320 319 287
f 321 288 289
f 321 320 288
f 322 289 290
f 322 321 289
f 323 290 291
f 323 322 290
f 324 291 292
f 324 323 291
f 325 324 292
f 325 292 293
f 326 325 293
f 326 293 294
f 327 326 294
f 327 294 295
f 328 295 296
f 328 327 295
f 329 296 297
f 329 328 296
f 330 297 298
f 330 329 297
f 331 298 299
f 331 330 298
f 332 299 300
f 332 331 299
f 333 300 301
f 333 332 300
f 334 301 302
f 334 333 301
f 335 302 303
f 335 334 302
f 336 303 304
f 336 335 303
f 337 304 305
f 337 336 304
f 338 305 306
f 338 337 305
f 339 306 307
f 339 338 306
f 340 307 308
f 340 339 307
f 341 308 309
f 341 340 308
f 342 309 310
f 342 341 309
f 343 310 311
f 343 342 310
f 344 311 312
f 344 343 311
f 313 344 312
f 345 344 313
f 314 345 313
f 346 345 314
f 316 314 315
f 316 346 314
f 350 349 347
f 348 350 347
f 394 392 391
f 394 393 392
f 395 394 391
f 396 391 390
f 396 395 391
f 397 390 389
f 397 396 390
f 398 397 389
f 399 398 389
f 406 404 403
f 406 405 404
f 407 402 401
f 407 403 402
f 407 406 403
f 408 407 401
f 408 401 400
f 409 389 388
f 409 400 399
f 409 399 389
f 409 408 400
f 410 409 388
f 410 388 387
f 411 410 387
f 411 387 386
f 412 411 386
f 413 412 386
f 413 386 385
f 414 413 385
f 414 385 351
f 384 414 351
f 352 384 351
f 373 375 374
f 353 384 352
f 353 352 383
f 372 376 375
f 372 375 373
f 371 377 376
f 371 376 372
f 370 377 371
f 354 383 382
f 354 353 383
f 369 378 377
f 369 377 370
f 355 382 381
f 355 354 382
f 368 378 369
f 356 380 379
f 356 381 380
f 356 355 381
f 357 379 378
f 357 356 379
f 358 367 366
f 358 368 367
f 358 378 368
f 358 357 378
f 359 366 365
f 359 358 366
f 360 364 363
f 360 365 364
f 360 359 365
f 361 363 362
f 361 360 363
f 416 438 415
f 416 460 438
f 417 459 460
f 417 460 416
f 418 458 459
f 418 459 417
f 419 457 458
f 419 458 418
f 420 456 457
f 420 457 419
f 421 455 456
f 421 456 420
f 422 454 455
f 422 455 421
f 423 453 454
f 423 454 422
f 424 452 453
f 424 453 423
f 425 451 452
f 425 452 424
f 426 450 451
f 426 451 425
f 427 449 450
f 427 450 426
f 428 449 427
f 428 448 449
f 429 448 428
f 429 447 448
f 430 447 429
f 430 446 447
f 431 446 430
f 431 445 446
f 432 445 431
f 432 444 445
f 433 444 432
f 433 443 444
f 434 442 443
f 434 443 433
f 435 441 442
f 435 442 434
f 436 440 441
f 436 441 435
f 437 439 440
f 437 440 436
f 462 484 461
f 462 506 484
f 463 505 506
f 463 506 462
f 464 504 505
f 464 505 463
f 465 503 504
f 465 504 464
f 466 502 503
f 466 503 465
f 467 501 502
f 467 502 466
f 468 500 501
f 468 501 467
f 469 499 500
f 469 500 468
f 470 498 499
f 470 499 469
f 471 497 498
f 471 498 470
f 472 496 497
f 472 497 471
f 473 495 496
f 473 496 472
f 474 495 473
f 474 494 495
f 475 494 474
f 475 493 494
f 476 493 475
f 476 492 493
f 477 492 476
f 477 491 492
f 478 491 477
f 478 490 491
f 479 490 478
f 479 489 490
f 480 488 489
f 480 489 479
f 481 487 488
f 481 488 480
f 482 486 487
f 482 487 481
f 483 485 486
f 483 486 482
f 526 524 523
f 526 525 524
f 531 527 526
f 531 528 527
f 531 529 528
f 531 530 529
f 513 515 514
f 513 516 515
f 513 517 516
f 513 518 517
f 534 532 531
f 534 533 532
f 511 513 512
f 508 510 509
f 508 511 510
f 507 511 508
f 507 519 518
f 507 520 519
f 507 521 520
f 507 513 511
f 507 518 513
f 540 539 538
f 543 541 540
f 543 542 541
f 547 522 521
f 547 523 522
f 547 549 548
f 547 550 549
f 547 507 550
f 547 526 523
f 547 521 507
f 546 543 540
f 546 540 538
f 546 535 534
f 546 536 535
f 546 526 547
f 546 537 536
f 546 538 537
f 546 544 543
f 546 545 544
f 546 531 526
f 546 534 531
f 554 556 555
f 570 552 551
f 570 553 552
f 570 554 553
f 570 557 556
f 570 558 557
f 570 559 558
f 570 560 559
f 570 561 560
f 570 562 561
f 570 563 562
f 570 564 563
f 570 565 564
f 570 566 565
f 570 567 566
f 570 568 567
f 570 569 568
f 570 572 571
f 570 551 572
f 570 556 554
f 574 576 575
f 602 574 573
f 602 577 576
f 602 576 574
f 598 597 596
f 600 602 601
f 599 578 577
f 599 579 578
f 599 580 579
f 599 581 580
f 599 582 581
f 599 583 582
f 599 584 583
f 599 585 584
f 599 586 585
f 599 587 586
f 599 588 587
f 599 589 588
f 599 590 589
f 599 591 590
f 599 592 591
f 599 593 592
f 599 594 593
f 599 595 594
f 599 596 595
f 599 598 596
f 599 602 600
f 599 577 602
f 622 620 619
f 622 621 620
f 627 623 622
f 627 624 623
f 627 625 624
f 627 626 625
f 609 611 610
f 609 612 611
f 609 613 612
f 609 614 613
f 630 628 627
f 630 629 628
f 607 609 608
f 604 606 605
f 604 607 606
f 603 607 604
f 603 615 614
f 603 616 615
f 603 617 616
f 603 609 607
f 603 614 609
f 636 635 634
f 639 637 636
f 639 638 637
f 643 618 617
f 643 619 618
f 643 645 644
f 643 646 645
f 643 603 646
f 643 622 619
f 643 617 603
f 642 639 636
f 642 636 634
f 642 631 630
f 642 632 631
f 642 622 643
f 642 633 632
f 642 634 633
f 642 640 639
f 642 641 640
f 642 627 622
f 642 630 627
f 651 647 648
f 651 648 649
f 651 649 650
f 652 656 647
f 652 647 651
f 653 654 655
f 653 655 656
f 653 656 652
f 658 669 657
f 658 680 669
f 659 679 680
f 659 680 658
f 660 678 679
f 660 679 659
f 661 677 678
f 661 678 660
f 662 676 677
f 662 677 661
f 663 675 676
f 663 676 662
f 664 674 675
f 664 675 663
f 665 673 674
f 665 674 664
f 666 672 673
f 666 673 665
f 667 671 672
f 667 672 666
f 668 670 671
f 668 671 667
f 682 693 681
f 682 704 693
f 683 703 704
f 683 704 682
f 684 702 703
f 684 703 683
f 685 701 702
f 685 702 684
f 686 700 701
f 686 701 685
f 687 699 700
f 687 700 686
f 688 698 699
f 688 699 687
f 689 697 698
f 689 698 688
f 690 696 697
f 690 697 689
f 691 695 696
f 691 696 690
f 692 694 695
f 692 695 691
f 706 721 705
f 706 736 721
f 707 735 736
f 707 736 706
f 708 734 735
f 708 735 707
f 709 733 734
f 709 734 708
f 710 732 733
f 710 733 709
f 711 731 732
f 711 732 710
f 712 730 731
f 712 731 711
f 713 729 730
f 713 730 712
f 714 728 729
f 714 729 713
f 715 727 728
f 715 728 714
f 716 726 727
f 716 727 715
f 717 725 726
f 717 726 716
f 718 724 725
f 718 725 717
f 719 723 724
f 719 724 718
f 720 722 723
f 720 723 719
f 738 753 737
f 738 768 753
f 739 767 768
f 739 768 738
f 740 766 767
f 740 767 739
f 741 765 766
f 741 766 740
f 742 764 765
f 742 765 741
f 743 763 764
f 743 764 742
f 744 762 763
f 744 763 743
f 745 761 762
f 745 762 744
f 746 760 761
f 746 761 745
f 747 759 760
f 747 760 746
f 748 758 759
f 748 759 747
f 749 757 758
f 749 758 748
f 750 756 757
f 750 757 749
f 751 755 756
f 751 756 750
f 752 754 755
f 752 755 751
f 770 792 769
f 770 814 792
f 771 813 814
f 771 814 770
f 772 812 813
f 772 813 771
f 773 811 812
f 773 812 772
f 774 810 811
f 774 811 773
f 775 809 810
f 775 810 774
f 776 808 809
f 776 809 775
f 777 807 808
f 777 808 776
f 778 806 807
f 778 807 777
f 779 805 806
f 779 806 778
f 780 804 805
f 780 805 779
f 781 803 804
f 781 804 780
f 782 803 781
f 782 802 803
f 783 802 782
f 783 801 802
f 784 801 783
f 784 800 801
f 785 800 784
f 785 799 800
f 786 799 785
f 786 798 799
f 787 798 786
f 787 797 798
f 788 796 797
f 788 797 787
f 789 795 796
f 789 796 788
f 790 794 795
f 790 795 789
f 791 793 794
f 791 794 790
f 816 838 815
f 816 860 838
f 817 859 860
f 817 860 816
f 818 858 859
f 818 859 817
f 819 857 858
f 819 858 818
f 820 856 857
f 820 857 819
f 821 855 856
f 821 856 820
f 822 854 855
f 822 855 821
f 823 853 854
f 823 854 822
f 824 852 853
f 824 853 823
f 825 851 852
f 825 852 824
f 826 850 851
f 826 851 825
f 827 849 850
f 827 850 826
f 828 849 827
f 828 848 849
f 829 848 828
f 829 847 848
f 830 847 829
f 830 846 847
f 831 846 830
f 831 845 846
f 832 845 831
f 832 844 845
f 833 844 832
f 833 843 844
f 834 842 843
f 834 843 833
f 835 841 842
f 835 842 834
f 836 840 841
f 836 841 835
f 837 839 840
f 837 840 836
f 862 863 861
f 862 864 863
f 866 870 865
f 866 871 870
f 867 872 871
f 867 871 866
f 868 873 872
f 868 872 867
f 869 874 873
f 869 873 868
f 876 877 875
f 876 878 877
f 880 884 879
f 880 885 884
f 881 886 885
f 881 885 880
f 882 887 886
f 882 886 881
f 883 888 887
f 883 887 882
